<svg width="1411" height="467" viewBox="0 0 1411 467" xmlns="http://www.w3.org/2000/svg"><title>Group</title><g fill="none" fill-rule="evenodd"><g opacity=".1"><g stroke="#444" stroke-width="2"><path d="M970 448.584V450a4 4 0 0 0 4 4h4m-8-14.594V439a7 7 0 0 1 7-7h2a7 7 0 0 1 7 7v.422"/><path d="M973 439.101a5 5 0 1 0 0 9.798v-9.798zm10 9.798a5 5 0 1 0 0-9.798v9.798z" stroke-linecap="square"/></g><g stroke="#5D6D81" stroke-width="2"><path d="M761.799 188.601C763.092 190.61 765.826 192 769 192c.59 0 1.163-.051 1.716-.142L775 194v-4.04c1.241-1.057 2-2.44 2-3.96 0-1.552-.792-2.961-2.081-4.027"/><path d="M765 173c-5.523 0-10 3.582-10 8 0 1.797.75 3.45 2 4.785V191l4.833-2.416c.996.266 2.059.416 3.167.416 5.523 0 10-3.582 10-8s-4.477-8-10-8z" stroke-linecap="square"/></g><path d="M355.102 261h-36.204c-1.6 0-2.898-1.326-2.898-2.962v-52.076c0-1.636 1.298-2.962 2.898-2.962h36.204c1.6 0 2.898 1.326 2.898 2.962v52.076c0 1.636-1.298 2.962-2.898 2.962z"/><path d="M355.102 261h-36.204c-1.6 0-2.898-1.326-2.898-2.962v-52.076c0-1.636 1.298-2.962 2.898-2.962h36.204c1.6 0 2.898 1.326 2.898 2.962v52.076c0 1.636-1.298 2.962-2.898 2.962z" stroke="#5D6D81" stroke-width="2" stroke-linecap="round"/><path d="M316 209h42v44h-42z"/><path stroke="#5D6D81" stroke-width="2" stroke-linecap="round" d="M316 209h42v44h-42zm4 8l4-4m-4 9l2-2m4-4l3-3m-9 14l9-9m4-4l1-1m4-7h1"/><path d="M341 257a3 3 0 1 1-6 0 3 3 0 0 1 6 0z"/><path d="M341 257a3 3 0 1 1-6 0 3 3 0 0 1 6 0z" stroke="#5D6D81" stroke-width="2" stroke-linecap="round"/><path d="M693.462 327.735l-15.626-2.694a69.636 69.636 0 0 0-23.672 0l-15.625 2.694a1.316 1.316 0 0 1-1.539-1.296v-34.878c0-.815.735-1.434 1.539-1.296l15.625 2.694a69.636 69.636 0 0 0 23.672 0l15.626-2.694a1.316 1.316 0 0 1 1.538 1.296v34.878c0 .815-.735 1.434-1.538 1.296z"/><path d="M693.462 327.735l-15.626-2.694a69.636 69.636 0 0 0-23.672 0l-15.625 2.694a1.316 1.316 0 0 1-1.539-1.296v-34.878c0-.815.735-1.434 1.539-1.296l15.625 2.694a69.636 69.636 0 0 0 23.672 0l15.626-2.694a1.316 1.316 0 0 1 1.538 1.296v34.878c0 .815-.735 1.434-1.538 1.296z" stroke="#5D6D81" stroke-width="2" stroke-linecap="round"/><path d="M652 329h28v3h-28z"/><path stroke="#5D6D81" stroke-width="2" stroke-linecap="round" d="M652 329h28v3h-28zm14-5v5m-22-26l4-4m-4 9l2-2m4-4l3-3m-9 14l9-9m4-4l1-1"/><path d="M1247 99h4v7h-4z"/><path stroke="#5D6D81" stroke-width="2" d="M1247 99h4v7h-4z"/><path d="M1289 99h4v7h-4z"/><path stroke="#5D6D81" stroke-width="2" d="M1289 99h4v7h-4z"/><path d="M1251.514 126h-5.224a.29.29 0 0 1-.29-.29v-19.227c0-.267.216-.483.483-.483h4.73a3.786 3.786 0 0 1 3.787 3.787v12.727a3.486 3.486 0 0 1-3.486 3.486z"/><path d="M1251.514 126h-5.224a.29.29 0 0 1-.29-.29v-19.227c0-.267.216-.483.483-.483h4.73a3.786 3.786 0 0 1 3.787 3.787v12.727a3.486 3.486 0 0 1-3.486 3.486z" stroke="#5D6D81" stroke-width="2"/><path d="M1246 126a5 5 0 0 1-5-5v-10a5 5 0 0 1 5-5v20z"/><path d="M1246 126a5 5 0 0 1-5-5v-10a5 5 0 0 1 5-5v20z" stroke="#5D6D81" stroke-width="2"/><path d="M1294 126v-20a5 5 0 0 1 5 5v10a5 5 0 0 1-5 5z"/><path d="M1294 126v-20a5 5 0 0 1 5 5v10a5 5 0 0 1-5 5z" stroke="#5D6D81" stroke-width="2"/><path d="M1293.71 126h-5.224a3.486 3.486 0 0 1-3.486-3.486v-12.727a3.786 3.786 0 0 1 3.787-3.787h4.882a.33.33 0 0 1 .331.331v19.379c0 .16-.13.29-.29.29z"/><path d="M1293.71 126h-5.224a3.486 3.486 0 0 1-3.486-3.486v-12.727a3.786 3.786 0 0 1 3.787-3.787h4.882a.33.33 0 0 1 .331.331v19.379c0 .16-.13.29-.29.29z" stroke="#5D6D81" stroke-width="2"/><path d="M1252 110h3m-3 4h3m-3 4h3m-3 4h3m30-12h3m-3 4h3m-3 4h3m-3 4h3" stroke="#5D6D81" stroke-width="2" stroke-linecap="round"/><path d="M1284.483 85.495c-.719.662-1.81.656-2.549.016-2.627-2.275-8.42-3.511-11.934-3.511-3.514 0-9.307 1.236-11.934 3.511-.739.64-1.83.646-2.549-.016l-3.101-2.85c-.818-.751-.835-2.055-.012-2.801C1256.527 76.109 1264.423 74 1270 74s13.473 2.109 17.596 5.844c.823.746.806 2.05-.012 2.801l-3.101 2.85z"/><path d="M1284.483 85.495c-.719.662-1.81.656-2.549.016-2.627-2.275-8.42-3.511-11.934-3.511-3.514 0-9.307 1.236-11.934 3.511-.739.64-1.83.646-2.549-.016l-3.101-2.85c-.818-.751-.835-2.055-.012-2.801C1256.527 76.109 1264.423 74 1270 74s13.473 2.109 17.596 5.844c.823.746.806 2.05-.012 2.801l-3.101 2.85z" stroke="#5D6D81" stroke-width="2" stroke-linecap="round"/><path d="M1255.517 85.495l-3.101-2.85a1.895 1.895 0 0 1-.524-.843c-3.673 4.066-5.892 9.594-5.892 15.584V99h6v-1.614c0-4.366 1.622-8.462 4.304-11.466a1.857 1.857 0 0 1-.787-.425z"/><path d="M1255.517 85.495l-3.101-2.85a1.895 1.895 0 0 1-.524-.843c-3.673 4.066-5.892 9.594-5.892 15.584V99h6v-1.614c0-4.366 1.622-8.462 4.304-11.466a1.857 1.857 0 0 1-.787-.425z" stroke="#5D6D81" stroke-width="2"/><path d="M1287.949 82.169a1.865 1.865 0 0 1-.365.476l-3.101 2.85a1.864 1.864 0 0 1-1.24.493c2.904 2.999 4.757 7.063 4.757 11.398V99h6v-1.614c0-5.812-2.324-11.188-6.051-15.217z"/><path d="M1287.949 82.169a1.865 1.865 0 0 1-.365.476l-3.101 2.85a1.864 1.864 0 0 1-1.24.493c2.904 2.999 4.757 7.063 4.757 11.398V99h6v-1.614c0-5.812-2.324-11.188-6.051-15.217z" stroke="#5D6D81" stroke-width="2"/><path d="M1110.857 445h-43.714a3.143 3.143 0 0 1-3.143-3.143v-41.714a3.143 3.143 0 0 1 3.143-3.143h43.714a3.143 3.143 0 0 1 3.143 3.143v41.714a3.143 3.143 0 0 1-3.143 3.143z"/><path d="M1110.857 445h-43.714a3.143 3.143 0 0 1-3.143-3.143v-41.714a3.143 3.143 0 0 1 3.143-3.143h43.714a3.143 3.143 0 0 1 3.143 3.143v41.714a3.143 3.143 0 0 1-3.143 3.143z" stroke="#5D6D81" stroke-width="2"/><path d="M1068 445h42v10h-42z"/><path stroke="#5D6D81" stroke-width="2" stroke-linecap="round" d="M1068 445h42v10h-42z"/><path d="M1096 448h11v4h-11z"/><path stroke="#5D6D81" stroke-width="2" d="M1096 448h11v4h-11z"/><path d="M1103 452h4v-4h-4z"/><path stroke="#5D6D81" stroke-width="2" d="M1103 452h4v-4h-4z"/><path d="M1106.128 431h-34.256a3.873 3.873 0 0 1-3.872-3.872v-21.256a3.873 3.873 0 0 1 3.872-3.872h34.256a3.873 3.873 0 0 1 3.872 3.872v21.256a3.873 3.873 0 0 1-3.872 3.872z"/><path d="M1106.128 431h-34.256a3.873 3.873 0 0 1-3.872-3.872v-21.256a3.873 3.873 0 0 1 3.872-3.872h34.256a3.873 3.873 0 0 1 3.872 3.872v21.256a3.873 3.873 0 0 1-3.872 3.872z" stroke="#5D6D81" stroke-width="2"/><path d="M1073 411l4-4m-4 9l2-2m4-4l3-3m-9 14l9-9m4-4l1-1" stroke="#5D6D81" stroke-width="2" stroke-linecap="round"/><path d="M1070 439h4v3h-4z"/><path stroke="#5D6D81" stroke-width="2" d="M1070 439h4v3h-4zm20-1h11m6 0h3"/><path d="M1100 436h7v4h-7z"/><path stroke="#5D6D81" stroke-width="2" d="M1100 436h7v4h-7z"/><path d="M945 351h-22l-4.212 6.425a7.46 7.46 0 0 0-.788 3.336v24.478c0 1.158.27 2.3.788 3.336L923 395h22l4.212-6.425a7.46 7.46 0 0 0 .788-3.336v-24.478c0-1.158-.27-2.3-.788-3.336L945 351z"/><path d="M945 351h-22l-4.212 6.425a7.46 7.46 0 0 0-.788 3.336v24.478c0 1.158.27 2.3.788 3.336L923 395h22l4.212-6.425a7.46 7.46 0 0 0 .788-3.336v-24.478c0-1.158-.27-2.3-.788-3.336L945 351z" stroke="#5D6D81" stroke-width="2" stroke-linecap="round"/><path d="M943.579 385h-19.158a2.421 2.421 0 0 1-2.421-2.421v-21.158a2.421 2.421 0 0 1 2.421-2.421h19.158a2.421 2.421 0 0 1 2.421 2.421v21.158a2.421 2.421 0 0 1-2.421 2.421z"/><path d="M943.579 385h-19.158a2.421 2.421 0 0 1-2.421-2.421v-21.158a2.421 2.421 0 0 1 2.421-2.421h19.158a2.421 2.421 0 0 1 2.421 2.421v21.158a2.421 2.421 0 0 1-2.421 2.421z" stroke="#5D6D81" stroke-width="2" stroke-linecap="round"/><path d="M935.455 392h-2.91a.545.545 0 0 1-.545-.545v-2.91c0-.301.244-.545.545-.545h2.91c.301 0 .545.244.545.545v2.91a.545.545 0 0 1-.545.545z" fill="#FFF"/><path d="M935.455 392h-2.91a.545.545 0 0 1-.545-.545v-2.91c0-.301.244-.545.545-.545h2.91c.301 0 .545.244.545.545v2.91a.545.545 0 0 1-.545.545z" stroke="#5D6D81" stroke-width="2" stroke-linecap="round"/><path d="M923 344h22v7h-22z"/><path stroke="#5D6D81" stroke-width="2" stroke-linecap="round" d="M923 344h22v7h-22z"/><path d="M923 395h22v7h-22z"/><path stroke="#5D6D81" stroke-width="2" stroke-linecap="round" d="M923 395h22v7h-22zm3-28l4-4m-4 9l2-2m4-4l3-3m-9 14l9-9m4-4l1-1"/><g transform="translate(1230 6)"><path d="M4.237 14.938l-3.101 5.169c-.442.737.19 1.652 1.036 1.498L11 20l8.828 1.605c.846.154 1.479-.761 1.036-1.498l-3.102-5.17" stroke="#5D6D81" stroke-width="2"/><circle stroke="#5D6D81" stroke-width="2" stroke-linecap="square" cx="11" cy="9" r="9"/><circle stroke="#5D6D81" stroke-width="2" stroke-linecap="square" cx="11" cy="10" r="4"/><circle fill="#5D6D81" fill-rule="nonzero" cx="11" cy="10" r="1"/></g><g stroke="#5D6D81" stroke-width="2"><path d="M58 323v2m-5-1v2m10-2v2" stroke-linecap="square"/><path d="M67 330h4v4c0 1.1-.9 2-2 2h-2.5"/><path d="M58 342c-5 0-9-4-9-9v-3h18v3c0 5-4 9-9 9zm-9 3h18" stroke-linecap="square"/></g><g transform="translate(166 170)" stroke="#5D6D81" stroke-width="2"><path d="M17.9 6L16 22H4L2.1 6"/><path stroke-linecap="square" d="M15 2l-1-2H6L5 2H0v4h20V2z"/><circle stroke-linecap="square" cx="10" cy="13" r="3"/></g><g stroke-width="2" stroke="#5D6D81"><path d="M171 57l5 6-2.5 2.9M167 57l-3 11 5 5 5-5-3-11"/><path stroke-linecap="square" d="M171 57h-4l-2-4h8z"/></g><path d="M833 326h-50a4 4 0 0 0-4 4v2h58v-2a4 4 0 0 0-4-4"/><path d="M833 326h-50a4 4 0 0 0-4 4v2h58v-2a4 4 0 0 0-4-4z" stroke="#5D6D81" stroke-width="2" stroke-linecap="round" stroke-linejoin="round"/><path d="M831 297c0-12.703-10.297-23-23-23s-23 10.297-23 23 10.297 23 23 23 23-10.297 23-23"/><path d="M831 297c0-12.703-10.297-23-23-23s-23 10.297-23 23 10.297 23 23 23 23-10.297 23-23z" stroke="#5D6D81" stroke-width="2" stroke-linecap="round" stroke-linejoin="round"/><path d="M816 297a8 8 0 1 0-16 0 8 8 0 0 0 16 0"/><path d="M816 297a8 8 0 1 0-16 0 8 8 0 0 0 16 0zm-12 0c0-2.206 1.794-4 4-4" stroke="#5D6D81" stroke-width="2" stroke-linecap="round" stroke-linejoin="round"/><path d="M808 320a22.897 22.897 0 0 1-14.289-4.984L785 326h46l-8.711-10.984A22.897 22.897 0 0 1 808 320"/><path d="M808 320a22.897 22.897 0 0 1-14.289-4.984L785 326h46l-8.711-10.984A22.897 22.897 0 0 1 808 320zm-22 9h-6.874M830 329h6.874" stroke="#5D6D81" stroke-width="2" stroke-linecap="round" stroke-linejoin="round"/><path d="M808 274c-12.703 0-23 10.297-23 23 2.102 0 3.94-1.474 4.331-3.539C790.993 284.67 798.732 278 808 278s17.007 6.67 18.67 15.461c.391 2.065 2.228 3.539 4.33 3.539 0-12.703-10.297-23-23-23"/><path d="M808 274c-12.703 0-23 10.297-23 23 2.102 0 3.94-1.474 4.331-3.539C790.993 284.67 798.732 278 808 278s17.007 6.67 18.67 15.461c.391 2.065 2.228 3.539 4.33 3.539 0-12.703-10.297-23-23-23z" stroke="#5D6D81" stroke-width="2" stroke-linecap="round" stroke-linejoin="round"/><path d="M347.774 427h-21.548c-.224 0-.311-.307-.124-.437l1.805-1.273c1.947-1.374 2.868-3.891 2.3-6.29h13.587v.002c-.568 2.399.353 4.917 2.302 6.29l1.803 1.271c.186.131.098.437-.125.437z"/><path d="M347.774 427h-21.548c-.224 0-.311-.307-.124-.437l1.805-1.273c1.947-1.374 2.868-3.891 2.3-6.29h13.587v.002c-.568 2.399.353 4.917 2.302 6.29l1.803 1.271c.186.131.098.437-.125.437z" stroke="#5D6D81" stroke-width="2" stroke-linecap="round"/><path d="M362.502 419h-51.004a3.498 3.498 0 0 1-3.498-3.499v-37.003a3.498 3.498 0 0 1 3.498-3.498h51.004a3.498 3.498 0 0 1 3.498 3.498v37.003a3.498 3.498 0 0 1-3.498 3.499z"/><path d="M362.502 419h-51.004a3.498 3.498 0 0 1-3.498-3.499v-37.003a3.498 3.498 0 0 1 3.498-3.498h51.004a3.498 3.498 0 0 1 3.498 3.498v37.003a3.498 3.498 0 0 1-3.498 3.499z" stroke="#5D6D81" stroke-width="2" stroke-linecap="round"/><path d="M366 410h-58v-31.502a3.498 3.498 0 0 1 3.498-3.498h51.004a3.498 3.498 0 0 1 3.498 3.498V410z"/><path d="M366 410h-58v-31.502a3.498 3.498 0 0 1 3.498-3.498h51.004a3.498 3.498 0 0 1 3.498 3.498V410zm-54-27l4-4m-4 9l2-2m4-4l3-3m-9 14l9-9m4-4l1-1" stroke="#5D6D81" stroke-width="2" stroke-linecap="round"/><path d="M348.5 430h-23c-.825 0-1.5-.675-1.5-1.5s.675-1.5 1.5-1.5h23c.825 0 1.5.675 1.5 1.5s-.675 1.5-1.5 1.5z"/><path d="M348.5 430h-23c-.825 0-1.5-.675-1.5-1.5s.675-1.5 1.5-1.5h23c.825 0 1.5.675 1.5 1.5s-.675 1.5-1.5 1.5z" stroke="#5D6D81" stroke-width="2" stroke-linecap="round"/><path d="M873 63c0 8.284-6.716 15-15 15-8.284 0-15-6.716-15-15 0-8.284 6.716-15 15-15 8.284 0 15 6.716 15 15z"/><path d="M873 63c0 8.284-6.716 15-15 15-8.284 0-15-6.716-15-15 0-8.284 6.716-15 15-15 8.284 0 15 6.716 15 15z" stroke="#5D6D81" stroke-width="2"/><path d="M858 33v15c6.897 0 12.692 4.661 14.444 11H884V33h-26z"/><path d="M858 33v15c6.897 0 12.692 4.661 14.444 11H884V33h-26z" stroke="#5D6D81" stroke-width="2" stroke-linejoin="round"/><path d="M858 48v-3.11l-11.814-20.675L826 59h17.556c1.753-6.339 7.547-11 14.444-11z"/><path d="M858 48v-3.11l-11.814-20.675L826 59h17.556c1.753-6.339 7.547-11 14.444-11z" stroke="#5D6D81" stroke-width="2" stroke-linejoin="round"/><path d="M844 38a1 1 0 1 1-2 0 1 1 0 0 1 2 0m0-6a1 1 0 1 1-2 0 1 1 0 0 1 2 0m-3 3a1 1 0 1 1-2 0 1 1 0 0 1 2 0m6-6a1 1 0 1 1-2 0 1 1 0 0 1 2 0m0 6a1 1 0 1 1-2 0 1 1 0 0 1 2 0m3 3a1 1 0 1 1-2 0 1 1 0 0 1 2 0m0-6a1 1 0 1 1-2 0 1 1 0 0 1 2 0m3 3a1 1 0 1 1-2 0 1 1 0 0 1 2 0m-9 15a1 1 0 1 1-2 0 1 1 0 0 1 2 0m-6-6a1 1 0 1 1-2 0 1 1 0 0 1 2 0m6 0a1 1 0 1 1-2 0 1 1 0 0 1 2 0m-3-3a1 1 0 1 1-2 0 1 1 0 0 1 2 0m-6 6a1 1 0 1 1-2 0 1 1 0 0 1 2 0m3 3a1 1 0 1 1-2 0 1 1 0 0 1 2 0m3-3a1 1 0 1 1-2 0 1 1 0 0 1 2 0m6-6a1 1 0 1 1-2 0 1 1 0 0 1 2 0m0 6a1 1 0 1 1-2 0 1 1 0 0 1 2 0m3 3a1 1 0 1 1-2 0 1 1 0 0 1 2 0m0-6a1 1 0 1 1-2 0 1 1 0 0 1 2 0m3-3a1 1 0 1 1-2 0 1 1 0 0 1 2 0m0 6a1 1 0 1 1-2 0 1 1 0 0 1 2 0m3-3a1 1 0 1 1-2 0 1 1 0 0 1 2 0m-24 12a1 1 0 1 1-2 0 1 1 0 0 1 2 0m-3 3a1 1 0 1 1-2 0 1 1 0 0 1 2 0m6-6a1 1 0 1 1-2 0 1 1 0 0 1 2 0m3 3a1 1 0 1 1-2 0 1 1 0 0 1 2 0m6 0a1 1 0 1 1-2 0 1 1 0 0 1 2 0m-3-3a1 1 0 1 1-2 0 1 1 0 0 1 2 0m-6 6a1 1 0 1 1-2 0 1 1 0 0 1 2 0m6 0a1 1 0 1 1-2 0 1 1 0 0 1 2 0m6-6a1 1 0 1 1-2 0 1 1 0 0 1 2 0" fill="#5D6D81"/><path d="M884 205h42v-42h-42z"/><path stroke="#5D6D81" stroke-width="2" stroke-linecap="round" stroke-linejoin="round" d="M884 205h42v-42h-42z"/><path stroke="#5D6D81" stroke-width="2" stroke-linecap="round" stroke-linejoin="round" stroke-dasharray="2,4,2,4,2,4" d="M934 184l-29 29-29-29 29-29z"/><path d="M932 163c0-3.316-2.684-6-6-6m4 5l2 1 2-2" stroke="#5D6D81" stroke-width="2" stroke-linecap="round" stroke-linejoin="round"/><path stroke="#5D6D81" stroke-width="2" stroke-linecap="round" stroke-linejoin="round" d="M928 155l-2 2 1 2m-49 46c0 3.316 2.684 6 6 6"/><path stroke="#5D6D81" stroke-width="2" stroke-linecap="round" stroke-linejoin="round" d="M880 206l-2-1-2 2m6 6l2-2-1-2"/><path d="M618 140h44v44h-44z"/><path stroke="#5D6D81" stroke-width="2" stroke-linecap="round" stroke-linejoin="round" d="M618 140h44v44h-44z"/><path d="M676 170l-14 14v-44l14-14z"/><path stroke="#5D6D81" stroke-width="2" stroke-linecap="round" stroke-linejoin="round" d="M676 170l-14 14v-44l14-14z"/><path stroke="#5D6D81" stroke-width="2" stroke-linecap="round" stroke-linejoin="round" stroke-dasharray="3" d="M632 140v30h30"/><path d="M662 140h-44l14-14h44z"/><path stroke="#5D6D81" stroke-width="2" stroke-linecap="round" stroke-linejoin="round" d="M662 140h-44l14-14h44z"/><path d="M618 184l14-14" stroke="#5D6D81" stroke-width="2" stroke-linecap="round" stroke-linejoin="round" stroke-dasharray="3"/><path d="M445.444 26.887l9.899 9.9-3.001 3.001a6.756 6.756 0 0 0 0 9.554l2.294 2.294L424.23 58l6.364-30.406 2.295 2.294a6.753 6.753 0 0 0 9.553 0l3.002-3.001z"/><path d="M445.444 26.887l9.899 9.9-3.001 3.001a6.756 6.756 0 0 0 0 9.554l2.294 2.294L424.23 58l6.364-30.406 2.295 2.294a6.753 6.753 0 0 0 9.553 0l3.002-3.001zM424.23 58l15.557-15.556" stroke="#5D6D81" stroke-width="2" stroke-linecap="round"/><path d="M448.979 23.352l9.9 9.899-3.536 3.536-9.899-9.9z"/><path stroke="#5D6D81" stroke-width="2" stroke-linecap="round" d="M448.979 23.352l9.9 9.899-3.536 3.536-9.899-9.9z"/><path d="M453.929 21.23L461 28.302l-3.535 3.535-7.072-7.071z"/><path stroke="#5D6D81" stroke-width="2" stroke-linecap="round" stroke-linejoin="round" d="M453.929 21.23L461 28.302l-3.535 3.535-7.072-7.071z"/><path d="M439.787 38.201a3 3 0 1 1 4.243 4.243 3 3 0 0 1-4.243-4.243z"/><path d="M439.787 38.201a3 3 0 1 1 4.243 4.243 3 3 0 0 1-4.243-4.243zM423 64.837C433.174 73.662 446.458 79 461 79m-58-58c0 14.452 5.272 27.661 14 37.811" stroke="#5D6D81" stroke-width="2" stroke-linecap="round"/><path d="M417 59h6v6h-6z"/><path stroke="#5D6D81" stroke-width="2" stroke-linecap="round" stroke-linejoin="round" d="M417 59h6v6h-6z"/><path d="M515 260a3 3 0 1 0-6 0 3 3 0 0 0 6 0"/><path d="M515 260a3 3 0 1 0-6 0 3 3 0 0 0 6 0z" stroke="#5D6D81" stroke-width="2" stroke-linecap="round" stroke-linejoin="round"/><path d="M509 260a2.99 2.99 0 0 1 1.239-2.419L496 236h29c0-15.909-13.091-29-29-29s-29 13.091-29 29 13.091 29 29 29c4.719 0 9.346-1.168 13.496-3.352A2.992 2.992 0 0 1 509 260"/><path d="M509 260a2.99 2.99 0 0 1 1.239-2.419L496 236h29c0-15.909-13.091-29-29-29s-29 13.091-29 29 13.091 29 29 29c4.719 0 9.346-1.168 13.496-3.352A2.992 2.992 0 0 1 509 260z" stroke="#5D6D81" stroke-width="2" stroke-linecap="round" stroke-linejoin="round"/><path d="M503.707 247.682c3.79-2.505 6.293-6.8 6.293-11.682h-14l7.707 11.682z" stroke="#5D6D81" stroke-width="2" stroke-linecap="round" stroke-linejoin="round" stroke-dasharray="2,4,2,4,2,4"/><path d="M1074.016 223.002h-43a2 2 0 0 0-2 2v10a2 2 0 0 0 2 2v7a3 3 0 1 0 6 0v8a3 3 0 1 0 6 0v-10.5a2.5 2.5 0 1 0 5 0v-4.5h26a2 2 0 0 0 2-2v-10a2 2 0 0 0-2-2"/><path d="M1074.016 223.002h-43a2 2 0 0 0-2 2v10a2 2 0 0 0 2 2v7a3 3 0 1 0 6 0v8a3 3 0 1 0 6 0v-10.5a2.5 2.5 0 1 0 5 0v-4.5h26a2 2 0 0 0 2-2v-10a2 2 0 0 0-2-2z" stroke="#5D6D81" stroke-width="2" stroke-linecap="round" stroke-linejoin="round"/><path d="M1052.016 256.002v-7.012a2.98 2.98 0 0 1 3-2.988s21.128-1.82 22.008-2c2.28-.466 3.993-2.582 3.993-5v-4c0-2.764-2.237-5-5-5m-47.001 0h-2m21 42h3m-3 4h3m-18-43l5-6m2 6l5-6m2 6l5-6m2 6l5-6m2 6l5-6m1 6l5-6" stroke="#5D6D81" stroke-width="2" stroke-linecap="round" stroke-linejoin="round"/><path d="M1059.016 256.002h-14l1 5h2v16a4 4 0 0 0 8 0v-16h2l1-5z"/><path d="M1059.016 256.002h-14l1 5h2v16a4 4 0 0 0 8 0v-16h2l1-5z" stroke="#5D6D81" stroke-width="2" stroke-linecap="round" stroke-linejoin="round"/><path d="M1037.016 241.003v3" fill="#C6E3F8" fill-rule="nonzero"/><path d="M1037.016 241.003v3m6-4.001v2" stroke="#5D6D81" stroke-width="2" stroke-linecap="round" stroke-linejoin="round"/><g stroke="#5D6D81" stroke-width="2" transform="translate(1 1)"><path d="M0 15.5V3c0-1.7 1.3-3 3-3h1m18 15.5V3c0-1.7-1.3-3-3-3h-1"/><path d="M9 15c0-1.1.9-2 2-2s2 .9 2 2" stroke-linecap="square"/><circle stroke-linecap="square" cx="4.5" cy="15.5" r="4.5"/><circle stroke-linecap="square" cx="17.5" cy="15.5" r="4.5"/></g><g transform="translate(173 429)"><path d="M18 22H2a2 2 0 0 1-2-2V2a2 2 0 0 1 2-2h16a2 2 0 0 1 2 2v18a2 2 0 0 1-2 2z" stroke="#5D6D81" stroke-width="2" stroke-linecap="square"/><circle fill="#5D6D81" fill-rule="nonzero" cx="10" cy="18" r="1"/></g><path d="M666 57.002v-46" stroke="#5D6D81" stroke-width="2" stroke-linecap="round" stroke-linejoin="round"/><path d="M665.818 56.944L641 49.002v-46l25 8V56.81a.14.14 0 0 1-.182.133"/><path d="M665.818 56.944L641 49.002v-46l25 8V56.81a.14.14 0 0 1-.182.133zM646.017 15.46L653 18.263m-6.983 2.739l14.964 5.522m-14.964.478l14.964 5.522m-14.964.478l14.964 5.522m-14.964.478l14.964 5.522" stroke="#5D6D81" stroke-width="2" stroke-linecap="round" stroke-linejoin="round"/><path d="M666.182 56.944L691 49.002v-46l-25 8V56.81a.14.14 0 0 0 .182.133"/><path d="M666.182 56.944L691 49.002v-46l-25 8V56.81a.14.14 0 0 0 .182.133z" stroke="#5D6D81" stroke-width="2" stroke-linecap="round" stroke-linejoin="round"/><path d="M691 11.002v38l-24.818 7.942a.14.14 0 0 1-.182-.133.14.14 0 0 1-.182.133L641 49.002v-38h-3.525a.475.475 0 0 0-.475.475v45.05c0 .262.213.475.475.475h57.05a.475.475 0 0 0 .475-.475v-45.05a.475.475 0 0 0-.475-.475H691z"/><path d="M691 11.002v38l-24.818 7.942a.14.14 0 0 1-.182-.133.14.14 0 0 1-.182.133L641 49.002v-38h-3.525a.475.475 0 0 0-.475.475v45.05c0 .262.213.475.475.475h57.05a.475.475 0 0 0 .475-.475v-45.05a.475.475 0 0 0-.475-.475H691zm-5 4l-14.964 5.522m14.964.478l-14.964 5.522m14.964.478l-14.964 5.522m14.964.478l-14.964 5.522m14.964.478l-14.964 5.522" stroke="#5D6D81" stroke-width="2" stroke-linecap="round" stroke-linejoin="round"/><path d="M269 25h-30l5-14h21z"/><path stroke="#5D6D81" stroke-width="2" stroke-linecap="round" stroke-linejoin="round" d="M269 25h-30l5-14h21z"/><path d="M283 22l-14 3-4-14 10-4z"/><path stroke="#5D6D81" stroke-width="2" stroke-linecap="round" stroke-linejoin="round" d="M283 22l-14 3-4-14 10-4z"/><path d="M225 22l14 3 5-14-11-4z"/><path stroke="#5D6D81" stroke-width="2" stroke-linecap="round" stroke-linejoin="round" d="M225 22l14 3 5-14-11-4z"/><path d="M275 7l-10 4h-21l-11-4 11-2h21z"/><path stroke="#5D6D81" stroke-width="2" stroke-linecap="round" stroke-linejoin="round" d="M275 7l-10 4h-21l-11-4 11-2h21z"/><path d="M225 22l14 3 5-14-11-4z"/><path stroke="#5D6D81" stroke-width="2" stroke-linecap="round" stroke-linejoin="round" d="M225 22l14 3 5-14-11-4z"/><path d="M269 25h-30l-14-3 29 41 29-41z"/><path stroke="#5D6D81" stroke-width="2" stroke-linecap="round" stroke-linejoin="round" d="M269 25h-30l-14-3 29 41 29-41zm-30 0l15 38m15-38l-15 38"/><g stroke="#5D6D81" stroke-width="2" stroke-linecap="square"><path d="M1177 276v11l-4-3-4 3v-11"/><path d="M1165 276h20v22h-20z"/></g><g stroke="#5D6D81" stroke-width="2" stroke-linecap="square"><path d="M470 322h13c1.1 0 2 .9 2 2v18c0 1.1-.9 2-2 2h-13m-3-22h3v22h-3z"/><path d="M474 326h7v4h-7zm0 7h7m-7 3h3m10-11v2m0 3v2"/></g><g stroke="#5D6D81" stroke-width="2" stroke-linecap="square"><path d="M775 441v-3h8v3m-6 11h-9v-11h22v11h-9m8 0v6h-20v-6"/><path d="M777 450h4v4h-4z"/></g><g stroke="#5D6D81" stroke-width="2" stroke-linecap="square"><path d="M1218 465h12m-17-20h22v16h-22z"/><path d="M1222 449l6 4-6 4z"/></g><g transform="translate(456 127)"><path d="M11 22v-4m-6 4h12" stroke="#5D6D81" stroke-width="2" stroke-linecap="square"/><circle fill="#444" fill-rule="nonzero" cx="11" cy="4" r="1"/><path d="M20 18H2a2 2 0 0 1-2-2V2a2 2 0 0 1 2-2h18a2 2 0 0 1 2 2v14a2 2 0 0 1-2 2zM0 14h22" stroke="#5D6D81" stroke-width="2" stroke-linecap="square"/></g><g stroke-width="2" stroke="#5D6D81"><path d="M1057 131.1l-4 2.9v12h22v-12l-4-2.9"/><path d="M1057 136.2V124h14v12.2m-18-2.2l22 12m0-12l-11 6"/><path stroke-linecap="square" d="M1062 129l-2 2 2 2m4-4l2 2-2 2"/></g><g stroke-width="2" stroke="#5D6D81"><path d="M301 312l-15 12v7l3.6-4.3"/><path stroke-linecap="square" d="M281 320l20-8-4 20z"/></g><g stroke="#5D6D81" stroke-width="2" stroke-linecap="square"><path d="M1380 133l-7 7-7-7"/><path d="M1362 129h22v18h-22zm6 12l-2 2m12-2l2 2"/></g><g stroke-width="2" stroke="#5D6D81"><path d="M777.9 49.3L776 53h-2l-1.9-3.7M772 57l2-4m2 0l2 4"/><path d="M771.7 49h-.7c-3.9 0-7 3.1-7 7v1h22v-1c0-3.9-3.1-7-7-7h-.7m-9.3-7.2c1 .7 2.2 1.2 3.5 1.2 2.2 0 4.1-1.3 5-3.2.7 1.5 1.9 2.6 3.5 3"/><path d="M775 50c-3.3 0-6-2.7-6-6v-3c0-3.3 2.7-6 6-6s6 2.7 6 6v3c0 3.3-2.7 6-6 6z" stroke-linecap="square"/></g><path d="M554 10.6l3 6.4h6.4l-4.7 4.9 1.9 7.5-6.6-3.8-6.6 3.8 1.9-7.5-4.7-4.9h6.4z" stroke-linecap="square" stroke-width="2" stroke="#5D6D81"/><g transform="translate(1388 355)" stroke="#5D6D81" stroke-width="2"><path d="M19 3.5c-1.9 2-3 4.6-3 7.5 0 2.9 1.1 5.6 3 7.5M3 3.5c1.9 2 3 4.6 3 7.5 0 2.9-1.1 5.6-3 7.5M11 0v22m11-11H0"/><circle stroke-linecap="square" cx="11" cy="11" r="11"/></g><g transform="translate(562 442)" stroke="#5D6D81" stroke-width="2" stroke-linecap="square"><circle cx="8" cy="11" r="8"/><path d="M8 8v3h3M2 2V0h12v2M2 20v2h12v-2"/></g><g stroke="#5D6D81" stroke-width="2" stroke-linecap="square"><path d="M923 279h18v12h-18zm4-4v4m10-4v4"/><path d="M919 297v-22h22"/></g></g><g opacity=".3"><path d="M499.365 412H492c-.613 0-1.19-.336-1.455-.89-2.574-5.386-8.065-9.11-14.433-9.11s-11.859 3.724-14.434 9.11c-.264.554-.841.89-1.454.89h-15.589c-.903 0-1.635.732-1.635 1.635v26.73c0 .903.732 1.635 1.635 1.635h54.73c.903 0 1.635-.732 1.635-1.635v-26.73c0-.903-.732-1.635-1.635-1.635z"/><path d="M499.365 412H492c-.613 0-1.19-.336-1.455-.89-2.574-5.386-8.065-9.11-14.433-9.11s-11.859 3.724-14.434 9.11c-.264.554-.841.89-1.454.89h-15.589c-.903 0-1.635.732-1.635 1.635v26.73c0 .903.732 1.635 1.635 1.635h54.73c.903 0 1.635-.732 1.635-1.635v-26.73c0-.903-.732-1.635-1.635-1.635z" stroke="#5D6D81" stroke-width="2" stroke-linecap="round"/><path d="M476.112 430c-6.617 0-12-5.383-12-12s5.383-12 12-12 12 5.383 12 12-5.383 12-12 12z"/><path d="M476.112 430c-6.617 0-12-5.383-12-12s5.383-12 12-12 12 5.383 12 12-5.383 12-12 12z" stroke="#5D6D81" stroke-width="2"/><path d="M443 418h6m-6 6h6m-6 6h6m-6 6h6" stroke="#5D6D81" stroke-width="2" stroke-linecap="round"/><path d="M493 438a1 1 0 1 1 0 2 1 1 0 0 1 0-2m4-2a1 1 0 1 1 0 2 1 1 0 0 1 0-2m-4-2a1 1 0 1 1 0 2 1 1 0 0 1 0-2m0-4a1 1 0 1 1 0 2 1 1 0 0 1 0-2m4 2a1 1 0 1 1 0 2 1 1 0 0 1 0-2m0-4a1 1 0 1 1 0 2 1 1 0 0 1 0-2m-4-2a1 1 0 1 1 0 2 1 1 0 0 1 0-2m0-4a1 1 0 1 1 0 2 1 1 0 0 1 0-2m4 2a1 1 0 1 1 0 2 1 1 0 0 1 0-2m0-4a1 1 0 1 1 0 2 1 1 0 0 1 0-2m-4-2a1 1 0 1 1 0 2 1 1 0 0 1 0-2m0-4a1 1 0 1 1 0 2 1 1 0 0 1 0-2m4 2a1 1 0 1 1 0 2 1 1 0 0 1 0-2" fill="#5D6D81"/><path d="M450 412h-4v-2.402c0-.33.268-.598.598-.598h2.804c.33 0 .598.268.598.598V412z"/><path d="M450 412h-4v-2.402c0-.33.268-.598.598-.598h2.804c.33 0 .598.268.598.598V412z" stroke="#5D6D81" stroke-width="2" stroke-linecap="round"/><path d="M457 412h-4v-2.402c0-.33.268-.598.598-.598h2.804c.33 0 .598.268.598.598V412z"/><path d="M457 412h-4v-2.402c0-.33.268-.598.598-.598h2.804c.33 0 .598.268.598.598V412z" stroke="#5D6D81" stroke-width="2" stroke-linecap="round"/><path fill="#EBB200" d="M454 434h6v4h-6z"/><path stroke="#5D6D81" stroke-width="2" stroke-linecap="round" d="M454 434h6v4h-6z"/><path fill="#EBB200" d="M464 434h6v4h-6z"/><path stroke="#5D6D81" stroke-width="2" stroke-linecap="round" d="M464 434h6v4h-6z"/><path d="M484 418a8 8 0 1 1-16 0 8 8 0 0 1 16 0z" fill="#EBB200"/><path d="M484 418a8 8 0 1 1-16 0 8 8 0 0 1 16 0zm-4 0c0-2.211-1.342-4-3-4" stroke="#5D6D81" stroke-width="2" stroke-linecap="round"/><path d="M49 73h58v40H49z"/><path fill="#5BAADC" d="M50 78h56v30H50z"/><path stroke="#5D6D81" stroke-width="2" stroke-linecap="round" d="M49 73h58v40H49z"/><path d="M81 121.073v3.059a.868.868 0 0 1-.868.868h-4.264a.868.868 0 0 1-.868-.868v-3.059c-7.401.351-13 1.974-13 3.927 0 2.209 7.164 4 16 4 8.837 0 16-1.791 16-4 0-1.953-5.599-3.576-13-3.927z"/><path d="M81 121.073v3.059a.868.868 0 0 1-.868.868h-4.264a.868.868 0 0 1-.868-.868v-3.059c-7.401.351-13 1.974-13 3.927 0 2.209 7.164 4 16 4 8.837 0 16-1.791 16-4 0-1.953-5.599-3.576-13-3.927zM53 85l4-4m-4 9l2-2m4-4l3-3m-9 14l9-9m4-4l1-1" stroke="#5D6D81" stroke-width="2" stroke-linecap="round"/><path d="M80.132 125h-4.264a.868.868 0 0 1-.868-.868V113h6v11.132a.868.868 0 0 1-.868.868z"/><path d="M80.132 125h-4.264a.868.868 0 0 1-.868-.868V113h6v11.132a.868.868 0 0 1-.868.868zM49 77h58m-58 32h58" stroke="#5D6D81" stroke-width="2" stroke-linecap="round"/><path d="M1150 59.993h26a2 2 0 0 0 2-2v-8a2 2 0 0 0-2-2h-26a2 2 0 0 0-2 2v8a2 2 0 0 0 2 2"/><path d="M1150 59.993h26a2 2 0 0 0 2-2v-8a2 2 0 0 0-2-2h-26a2 2 0 0 0-2 2v8a2 2 0 0 0 2 2z" stroke="#5D6D81" stroke-width="2" stroke-linecap="round" stroke-linejoin="round"/><path d="M1148 56.993h-4v-6h4z"/><path stroke="#5D6D81" stroke-width="2" stroke-linecap="round" stroke-linejoin="round" d="M1148 56.993h-4v-6h4z"/><path d="M1142 59.993c-1.1 0-2-.9-2-2v-8c0-1.101.9-2 2-2s2 .899 2 2v8c0 1.1-.9 2-2 2"/><path d="M1142 59.993c-1.1 0-2-.9-2-2v-8c0-1.101.9-2 2-2s2 .899 2 2v8c0 1.1-.9 2-2 2z" stroke="#5D6D81" stroke-width="2" stroke-linecap="round" stroke-linejoin="round"/><path d="M1178 56.993h4v-6h-4z"/><path stroke="#5D6D81" stroke-width="2" stroke-linecap="round" stroke-linejoin="round" d="M1178 56.993h4v-6h-4z"/><path d="M1184 59.993c1.1 0 2-.9 2-2v-8c0-1.101-.9-2-2-2s-2 .899-2 2v8c0 1.1.9 2 2 2"/><path d="M1184 59.993c1.1 0 2-.9 2-2v-8c0-1.101-.9-2-2-2s-2 .899-2 2v8c0 1.1.9 2 2 2z" stroke="#5D6D81" stroke-width="2" stroke-linecap="round" stroke-linejoin="round"/><path d="M1184 42.992v5" stroke="#5D6D81" stroke-width="2"/><path d="M1156 55.992h14" stroke="#5D6D81" stroke-width="2" stroke-linecap="round"/><path d="M1153 59.993l-6 11m26-11l6 11" stroke="#5D6D81" stroke-width="2" stroke-linecap="round" stroke-linejoin="round"/><path d="M1163 40.993a4 4 0 0 0-4 4v3h8v-3a4 4 0 0 0-4-4" fill="#F08481" fill-rule="nonzero"/><path d="M1163 40.993a4 4 0 0 0-4 4v3h8v-3a4 4 0 0 0-4-4z" stroke="#5D6D81" stroke-width="2" stroke-linecap="round" stroke-linejoin="round"/><path d="M1144 38.993h-4v-2.72c0-.707.574-1.28 1.281-1.28h1.438a1.28 1.28 0 0 1 1.281 1.28v2.72z"/><path d="M1144 38.993h-4v-2.72c0-.707.574-1.28 1.281-1.28h1.438a1.28 1.28 0 0 1 1.281 1.28v2.72z" stroke="#5D6D81" stroke-width="2" stroke-linecap="round" stroke-linejoin="round"/><path d="M1134 38.992h16" stroke="#5D6D81" stroke-width="2" stroke-linecap="round"/><path d="M1142 38.993v9" stroke="#5D6D81" stroke-width="2"/><path d="M1186 38.993h-4v-2.72c0-.707.574-1.28 1.281-1.28h1.438a1.28 1.28 0 0 1 1.281 1.28v2.72z"/><path d="M1186 38.993h-4v-2.72c0-.707.574-1.28 1.281-1.28h1.438a1.28 1.28 0 0 1 1.281 1.28v2.72z" stroke="#5D6D81" stroke-width="2" stroke-linecap="round" stroke-linejoin="round"/><path d="M1176 38.993h16" stroke="#5D6D81" stroke-width="2" stroke-linecap="round"/><path d="M1184 38.993v9" stroke="#5D6D81" stroke-width="2"/><path stroke="#5D6D81" stroke-width="2" stroke-linecap="round" stroke-linejoin="round" d="M1168 51.993h-10l-2-4h14z"/><path d="M1271 384.586a5.414 5.414 0 0 1-5.414 5.414h-30.474a2.113 2.113 0 0 1-2.112-2.112v-53.776c0-1.166.946-2.112 2.112-2.112h33.776c1.166 0 2.112.946 2.112 2.112v50.474z"/><path d="M1271 384.586a5.414 5.414 0 0 1-5.414 5.414h-30.474a2.113 2.113 0 0 1-2.112-2.112v-53.776c0-1.166.946-2.112 2.112-2.112h33.776c1.166 0 2.112.946 2.112 2.112v50.474z" stroke="#5D6D81" stroke-width="2" stroke-linecap="round" stroke-linejoin="round"/><path d="M1263 372.867a2.5 2.5 0 1 1-5 0 2.5 2.5 0 0 1 5 0z" fill="#F08481"/><path d="M1263 372.867a2.5 2.5 0 1 1-5 0 2.5 2.5 0 0 1 5 0z" stroke="#5D6D81" stroke-width="2" stroke-linecap="round" stroke-linejoin="round"/><path d="M1257 378.867a2.5 2.5 0 1 1-5 0 2.5 2.5 0 0 1 5 0z" fill="#EBB200"/><path d="M1257 378.867a2.5 2.5 0 1 1-5 0 2.5 2.5 0 0 1 5 0z" stroke="#5D6D81" stroke-width="2" stroke-linecap="round" stroke-linejoin="round"/><path d="M1266 359.096c0 3.261-2.739 5.904-6 5.904h-22v-28h28v22.096z"/><path d="M1266 359.096c0 3.261-2.739 5.904-6 5.904h-22v-28h28v22.096z" stroke="#5D6D81" stroke-width="2" stroke-linecap="round" stroke-linejoin="round"/><path d="M1259 384.367l2.5 2.5m.5-5.5l2.5 2.5m.5-5.5l2.5 2.5" stroke="#5D6D81" stroke-width="2"/><path d="M1242 345l4-4m-4 9l2-2m4-4l3-3" stroke="#5D6D81" stroke-width="2" stroke-linecap="round"/><path d="M1248.286 373H1245v-3.286a.714.714 0 0 0-.714-.714h-2.572a.714.714 0 0 0-.714.714V373h-3.286a.714.714 0 0 0-.714.714v2.572c0 .394.32.714.714.714H1241v3.286c0 .394.32.714.714.714h2.572c.394 0 .714-.32.714-.714V377h3.286c.394 0 .714-.32.714-.714v-2.572a.714.714 0 0 0-.714-.714z" fill="#6E8097"/><path d="M1248.286 373H1245v-3.286a.714.714 0 0 0-.714-.714h-2.572a.714.714 0 0 0-.714.714V373h-3.286a.714.714 0 0 0-.714.714v2.572c0 .394.32.714.714.714H1241v3.286c0 .394.32.714.714.714h2.572c.394 0 .714-.32.714-.714V377h3.286c.394 0 .714-.32.714-.714v-2.572a.714.714 0 0 0-.714-.714z" stroke="#5D6D81" stroke-width="2" stroke-linecap="round"/><path d="M1404.132 18H1394v23.427a.572.572 0 0 1-.573.573h-3.854a.572.572 0 0 1-.573-.573V18h-35.132a3.868 3.868 0 0 0-3.868 3.868v37.264a3.868 3.868 0 0 0 3.868 3.868h50.264a3.868 3.868 0 0 0 3.868-3.868V21.868a3.868 3.868 0 0 0-3.868-3.868z"/><path d="M1404.132 18H1394v23.427a.572.572 0 0 1-.573.573h-3.854a.572.572 0 0 1-.573-.573V18h-35.132a3.868 3.868 0 0 0-3.868 3.868v37.264a3.868 3.868 0 0 0 3.868 3.868h50.264a3.868 3.868 0 0 0 3.868-3.868V21.868a3.868 3.868 0 0 0-3.868-3.868z" stroke="#5D6D81" stroke-width="2" stroke-linecap="round"/><path d="M1350 25h13v31h-13z"/><path stroke="#5D6D81" stroke-width="2" stroke-linecap="round" d="M1350 25h13v31h-13zm54 14v5m-49-15h3m-3 4h3m-3 15h3m-3 4h3"/><path d="M1360 40.5a3.5 3.5 0 1 1-7 0 3.5 3.5 0 0 1 7 0z"/><path d="M1360 40.5a3.5 3.5 0 1 1-7 0 3.5 3.5 0 0 1 7 0z" stroke="#5D6D81" stroke-width="2" stroke-linecap="round"/><path d="M1358 40.5a1.5 1.5 0 1 1-3.001-.001 1.5 1.5 0 0 1 3.001.001" fill="#F08481"/><path d="M1390 15v-3.5c0-.825.675-1.5 1.5-1.5s1.5.675 1.5 1.5V15h-3z"/><path d="M1390 15v-3.5c0-.825.675-1.5 1.5-1.5s1.5.675 1.5 1.5V15h-3zm3.428 27h-3.856a.572.572 0 0 1-.572-.573V15h5v26.427a.572.572 0 0 1-.572.573z" stroke="#5D6D81" stroke-width="2" stroke-linecap="round"/><path d="M1393.428 42h-3.856a.572.572 0 0 1-.572-.573V15h5v26.427a.572.572 0 0 1-.572.573z"/><path d="M1393.428 42h-3.856a.572.572 0 0 1-.572-.573V15h5v26.427a.572.572 0 0 1-.572.573z" stroke="#5D6D81" stroke-width="2" stroke-linecap="round"/><path d="M1394 25v16.427a.572.572 0 0 1-.573.573h-3.854a.572.572 0 0 1-.573-.573V25h-26v31h37V25h-6z" fill="#F08481"/><path d="M1394 25v16.427a.572.572 0 0 1-.573.573h-3.854a.572.572 0 0 1-.573-.573V25h-26v31h37V25h-6z" stroke="#5D6D81" stroke-width="2" stroke-linecap="round"/><path fill="#5D6D81" d="M1391 46h1v3h-1z"/><path d="M1392 46h-1l-1.771-3.542a.317.317 0 0 1 .284-.458h3.975c.235 0 .388.248.283.458L1392 46z" stroke="#5D6D81" stroke-width="2" stroke-linecap="round"/><path d="M1363.252 406.26l-4.95 4.95-2.828 2.828-4.95 4.95-4.243 4.243 2.828 2.828 3.536 3.536v-5c0-1.326.527-2.598 1.465-3.536l2.778-2.778a2 2 0 0 1 2.828 0l18.385 18.385-4.244 4.242 2.83 2.829L1388 432.423l-2.83-2.828-4.242 4.242-18.385-18.385a2.001 2.001 0 0 1 0-2.828l2.779-2.778a4.997 4.997 0 0 1 3.535-1.465h5l-3.535-3.535-2.828-2.828-4.243 4.242z"/><path d="M1363.252 406.26l-4.95 4.95-2.828 2.828-4.95 4.95-4.243 4.243 2.828 2.828 3.536 3.536v-5c0-1.326.527-2.598 1.465-3.536l2.778-2.778a2 2 0 0 1 2.828 0l18.385 18.385-4.244 4.242 2.83 2.829L1388 432.423l-2.83-2.828-4.242 4.242-18.385-18.385a2.001 2.001 0 0 1 0-2.828l2.779-2.778a4.997 4.997 0 0 1 3.535-1.465h5l-3.535-3.535-2.828-2.828-4.243 4.242z" stroke="#5D6D81" stroke-width="2" stroke-linecap="round" stroke-linejoin="round"/><path d="M1378.083 455.758c-.341 2.228-2.015 3.9-4.243 4.242l-39.597-39.597c-2.228.34-3.901 2.014-4.243 4.242" stroke="#F08481" stroke-width="2" stroke-linecap="round" stroke-linejoin="round"/><path d="M65 206.002v2H55v-2H36v28h48v-28z"/><path stroke="#5D6D81" stroke-width="2" stroke-linecap="round" stroke-linejoin="round" d="M65 206.002v2H55v-2H36v28h48v-28z"/><path d="M51 203.002h18" stroke="#5D6D81" stroke-width="2" stroke-linecap="round"/><path stroke="#5D6D81" stroke-width="2" d="M36 234.002h48v-5H36z"/><path d="M55 229.002H39l8-13z"/><path stroke="#5D6D81" stroke-width="2" stroke-linecap="round" stroke-linejoin="round" d="M55 229.002H39l8-13z"/><path d="M77.923 229.002l-4.923-8-4.923 8z"/><path stroke="#5D6D81" stroke-width="2" stroke-linecap="round" stroke-linejoin="round" d="M77.923 229.002l-4.923-8-4.923 8z"/><path d="M75.003 214.24A3 3 0 0 0 79 209.767" stroke="#5D6D81" stroke-width="2" stroke-linecap="round"/><path d="M61.154 229.002l-6.154-10-3.077 5 3.077 5z"/><path stroke="#5D6D81" stroke-width="2" stroke-linecap="round" stroke-linejoin="round" d="M61.154 229.002l-6.154-10-3.077 5 3.077 5z"/><path fill="#F08481" fill-rule="nonzero" d="M41 215.002l-1-2-2-1 2-1 1-2 1 2 2 1-2 1zm23 5l-1-2-2-1 2-1 1-2 1 2 2 1-2 1z"/><path d="M31 241.002h58v-4H31z"/><path stroke="#5D6D81" stroke-width="2" stroke-linecap="round" stroke-linejoin="round" d="M31 241.002h58v-4H31z"/><path d="M50 245.002h20v-4H50z"/><path stroke="#5D6D81" stroke-width="2" stroke-linecap="round" stroke-linejoin="round" d="M50 245.002h20v-4H50z"/><path d="M68.832 251.002h-3.54a.155.155 0 0 1-.148-.104L63 245.002h4l2.062 5.672a.245.245 0 0 1-.23.328"/><path d="M68.832 251.002h-3.54a.155.155 0 0 1-.148-.104L63 245.002h4l2.062 5.672a.245.245 0 0 1-.23.328z" stroke="#5D6D81" stroke-width="2" stroke-linecap="round" stroke-linejoin="round"/><path d="M67.182 251.002l2.818 9" stroke="#5D6D81" stroke-width="2" stroke-linecap="round"/><path d="M50.168 251.002h3.54a.155.155 0 0 0 .148-.104L56 245.002h-4l-2.062 5.672a.245.245 0 0 0 .23.328"/><path d="M50.168 251.002h3.54a.155.155 0 0 0 .148-.104L56 245.002h-4l-2.062 5.672a.245.245 0 0 0 .23.328z" stroke="#5D6D81" stroke-width="2" stroke-linecap="round" stroke-linejoin="round"/><path d="M51.818 251.002l-2.818 9" stroke="#5D6D81" stroke-width="2" stroke-linecap="round"/><path d="M55 208.002h10v-5H55z"/><path stroke="#5D6D81" stroke-width="2" stroke-linecap="round" stroke-linejoin="round" d="M55 208.002h10v-5H55z"/><path d="M1014.707 66.562l-.707.707" stroke="#5D6D81" stroke-width="2" stroke-linecap="round"/><path d="M1022.485 64.441l-7.778 2.121 2.121-7.778 15.203-15.203a1.985 1.985 0 0 1 2.807 0l2.85 2.85a1.985 1.985 0 0 1 0 2.807l-15.203 15.203z" fill="#EBB200" fill-rule="nonzero"/><path d="M1022.485 64.441l-7.778 2.121 2.121-7.778 15.203-15.203a1.985 1.985 0 0 1 2.807 0l2.85 2.85a1.985 1.985 0 0 1 0 2.807l-15.203 15.203zm11.657-11.657l-5.657-5.657m-11.657 11.657l5.657 5.657" stroke="#5D6D81" stroke-width="2"/><path d="M1008 67a3 3 0 1 1-6 0 3 3 0 0 1 6 0"/><path d="M1008 67a3 3 0 1 1-6 0 3 3 0 0 1 6 0zm-19-6h22" stroke="#5D6D81" stroke-width="2" stroke-linecap="round"/><path d="M1021 44V18.405a3.406 3.406 0 0 0-3.405-3.405h-25.19A3.406 3.406 0 0 0 989 18.405v51.189A3.406 3.406 0 0 0 992.405 73h25.19M989 21h32m-20-3h4m3 0h1" stroke="#5D6D81" stroke-width="2" stroke-linecap="round"/><path d="M250.505 123.002c-.456.605-1.173 1-1.989 1a2.486 2.486 0 0 1-1.988-1h-.512v3a3 3 0 1 1-6 0v-2a3 3 0 1 1-6 0v-1h-5v33a3 3 0 0 0 3 3h42a3 3 0 0 0 3-3v-33h-26.51z"/><path d="M250.505 123.002c-.456.605-1.173 1-1.989 1a2.486 2.486 0 0 1-1.988-1h-.512v3a3 3 0 1 1-6 0v-2a3 3 0 1 1-6 0v-1h-5v33a3 3 0 0 0 3 3h42a3 3 0 0 0 3-3v-33h-26.51zm-10.488-2v3" stroke="#5D6D81" stroke-width="2" stroke-linecap="round" stroke-linejoin="round"/><path d="M246.017 117.002h-12v7a3 3 0 1 0 6 0v2a3 3 0 1 0 6 0v-4.5a2.5 2.5 0 1 0 5 0v-4.5h-5z" fill="#7DDEB1" fill-rule="nonzero"/><path d="M246.017 117.002h-12v7a3 3 0 1 0 6 0v2a3 3 0 1 0 6 0v-4.5a2.5 2.5 0 1 0 5 0v-4.5h-5zm0 3v2" stroke="#5D6D81" stroke-width="2" stroke-linecap="round" stroke-linejoin="round"/><path d="M278.017 117.002h-27v4.5c0 .566-.195 1.082-.511 1.5h27.51a1 1 0 0 0 1-1v-4a1 1 0 0 0-1-1"/><path d="M278.017 117.002h-27v4.5c0 .566-.195 1.082-.511 1.5h27.51a1 1 0 0 0 1-1v-4a1 1 0 0 0-1-1z" stroke="#5D6D81" stroke-width="2" stroke-linecap="round" stroke-linejoin="round"/><path d="M234.017 117.002h-6a1 1 0 0 0-1 1v4a1 1 0 0 0 1 1h6v-6z"/><path d="M234.017 117.002h-6a1 1 0 0 0-1 1v4a1 1 0 0 0 1 1h6v-6z" stroke="#5D6D81" stroke-width="2" stroke-linecap="round" stroke-linejoin="round"/><path fill="#EBB200" fill-rule="nonzero" d="M229.016 149.003h48v-16h-48z"/><path stroke="#5D6D81" stroke-width="2" stroke-linecap="round" stroke-linejoin="round" d="M229.016 149.003h48v-16h-48z"/><path d="M258.017 143.002h-10a2 2 0 1 1 0-4h10a2 2 0 0 1 0 4"/><path d="M258.017 143.002h-10a2 2 0 1 1 0-4h10a2 2 0 0 1 0 4z" stroke="#5D6D81" stroke-width="2" stroke-linecap="round" stroke-linejoin="round"/><path d="M227.017 120.002h-3c0 11.608 10.393 21 22 21m33-21h3c0 11.608-10.393 21-22 21" stroke="#5D6D81" stroke-width="2" stroke-linecap="round" stroke-linejoin="round"/><path d="M199.038 333h-26.077a2.962 2.962 0 0 1-2.96-2.962v-52.076a2.962 2.962 0 0 1 2.96-2.962h26.077a2.962 2.962 0 0 1 2.962 2.962v52.076a2.962 2.962 0 0 1-2.962 2.962"/><path d="M199.038 333h-26.077a2.962 2.962 0 0 1-2.96-2.962v-52.076a2.962 2.962 0 0 1 2.96-2.962h26.077a2.962 2.962 0 0 1 2.962 2.962v52.076a2.962 2.962 0 0 1-2.962 2.962z" stroke="#5D6D81" stroke-width="2" stroke-linecap="round" stroke-linejoin="round"/><path stroke="#5D6D81" stroke-width="2" stroke-linecap="round" d="M170 325h32v-44h-32zm15-47h5m-9 0h1m-13 6v1m0 3v1m0 3v1"/><path d="M189 329a3 3 0 1 1-6 0 3 3 0 0 1 6 0"/><path d="M189 329a3 3 0 1 1-6 0 3 3 0 0 1 6 0z" stroke="#5D6D81" stroke-width="2" stroke-linecap="round" stroke-linejoin="round"/><path d="M196 303c0 5.523-4.477 10-10 10s-10-4.477-10-10 4.477-10 10-10 10 4.477 10 10" fill="#5BAADC" fill-rule="nonzero"/><path d="M196 303c0 5.523-4.477 10-10 10s-10-4.477-10-10 4.477-10 10-10 10 4.477 10 10z" stroke="#5D6D81" stroke-width="2" stroke-linecap="round" stroke-linejoin="round"/><path d="M188.443 309.306a1.099 1.099 0 0 1-.608-.984v-1.132c.081-.092.174-.211.273-.351.393-.555.69-1.166.896-1.806a.906.906 0 0 0 .643-.862v-1.208a.901.901 0 0 0-.302-.67v-1.746S189.68 298 186 298s-3.298 2.547-3.298 2.547v1.746a.901.901 0 0 0-.302.67v1.208c0 .318.167.598.417.76a5.992 5.992 0 0 0 1.092 2.259v1.104c0 .403-.219.773-.573.966l-2.694 1.469a2.444 2.444 0 0 0-.497.366 9.943 9.943 0 0 0 11.701.006 2.435 2.435 0 0 0-.519-.353l-2.884-1.442z" fill="#FFF" fill-rule="nonzero"/><path d="M188.443 309.306a1.099 1.099 0 0 1-.608-.984v-1.132c.081-.092.174-.211.273-.351.393-.555.69-1.166.896-1.806a.906.906 0 0 0 .643-.862v-1.208a.901.901 0 0 0-.302-.67v-1.746S189.68 298 186 298s-3.298 2.547-3.298 2.547v1.746a.901.901 0 0 0-.302.67v1.208c0 .318.167.598.417.76a5.992 5.992 0 0 0 1.092 2.259v1.104c0 .403-.219.773-.573.966l-2.694 1.469a2.444 2.444 0 0 0-.497.366 9.943 9.943 0 0 0 11.701.006 2.435 2.435 0 0 0-.519-.353l-2.884-1.442z" stroke="#5D6D81" stroke-width="2" stroke-linecap="round" stroke-linejoin="round"/><path d="M174 289h24v-4h-24z"/><path stroke="#5D6D81" stroke-width="2" stroke-linecap="round" stroke-linejoin="round" d="M174 289h24v-4h-24z"/><path d="M174 321h24v-4h-24z"/><path stroke="#5D6D81" stroke-width="2" stroke-linecap="round" stroke-linejoin="round" d="M174 321h24v-4h-24z"/><path d="M161 275c0 2.211-1.789 4-4 4 2.211 0 4 1.789 4 4 0-2.211 1.789-4 4-4-2.211 0-4-1.789-4-4z" stroke="#5BAADC" stroke-width="2" stroke-linecap="round" stroke-linejoin="round"/><path d="M210 293v-4m-2 2h4" stroke="#5BAADC" stroke-width="2" stroke-linecap="round"/><path d="M164 318a1 1 0 1 1-2 0 1 1 0 0 1 2 0m-5-18a1 1 0 1 1-2 0 1 1 0 0 1 2 0m49 10a1 1 0 1 1-2 0 1 1 0 0 1 2 0m7 21a1 1 0 1 1-2 0 1 1 0 0 1 2 0m444 69.002a4 4 0 0 0-4 4v22.289a503.178 503.178 0 0 1 8.589-2.21c2.798-.696 5.032 2.41 3.445 4.818a5.844 5.844 0 0 1-3.166 2.374l-4.869 1.499a5.664 5.664 0 0 0-3.999 5.414v15.816a4 4 0 0 1 4-4h36v-50h-36z"/><path d="M659 400.002a4 4 0 0 0-4 4v22.289a503.178 503.178 0 0 1 8.589-2.21c2.798-.696 5.032 2.41 3.445 4.818a5.844 5.844 0 0 1-3.166 2.374l-4.869 1.499a5.664 5.664 0 0 0-3.999 5.414v15.816a4 4 0 0 1 4-4h36v-50h-36z" stroke="#5D6D81" stroke-width="2" stroke-linecap="round" stroke-linejoin="round"/><path fill="#7DDEB1" fill-rule="nonzero" d="M663 420.002h24v-16h-24z"/><path stroke="#5D6D81" stroke-width="2" stroke-linecap="round" stroke-linejoin="round" d="M663 420.002h24v-16h-24zm9-10h6m-9 4h12"/><path d="M659 450.002a4 4 0 0 0 0 8h36v-8h-36z"/><path d="M659 450.002a4 4 0 0 0 0 8h36v-8h-36zm1 4h30" stroke="#5D6D81" stroke-width="2" stroke-linecap="round" stroke-linejoin="round"/><path d="M663.592 424.08c-3.169.788-8.87 2.422-11.938 3.312a11.26 11.26 0 0 0-3.792 1.937 11.25 11.25 0 0 1-1.837 1.167 6.024 6.024 0 0 0-2.999 3.5c-.352 1.073-.416 1.152-.776 1.271l-5.25 1.735v11h1.325c2.608 0 6.743.756 9.248 1.485 1.163.338 2.381.515 3.617.515H655v-11.816a5.666 5.666 0 0 1 3.999-5.415l4.869-1.498a5.843 5.843 0 0 0 3.169-2.379c1.583-2.406-.649-5.509-3.445-4.814"/><path d="M663.592 424.08c-3.169.788-8.87 2.422-11.938 3.312a11.26 11.26 0 0 0-3.792 1.937 11.25 11.25 0 0 1-1.837 1.167 6.024 6.024 0 0 0-2.999 3.5c-.352 1.073-.416 1.152-.776 1.271l-5.25 1.735v11h1.325c2.608 0 6.743.756 9.248 1.485 1.163.338 2.381.515 3.617.515H655v-11.816a5.666 5.666 0 0 1 3.999-5.415l4.869-1.498a5.843 5.843 0 0 0 3.169-2.379c1.583-2.406-.649-5.509-3.445-4.814z" stroke="#5D6D81" stroke-width="2" stroke-linecap="round" stroke-linejoin="round"/><path d="M662.5 428.002c1.933 0 3.5-1.119 3.5-2.5 0-.487-.203-.938-.541-1.323a3.14 3.14 0 0 0-1.87-.098c-1.353.336-2.92.731-4.551 1.151-.014.09-.038.177-.038.27 0 1.381 1.567 2.5 3.5 2.5"/><path d="M662.5 428.002c1.933 0 3.5-1.119 3.5-2.5 0-.487-.203-.938-.541-1.323a3.14 3.14 0 0 0-1.87-.098c-1.353.336-2.92.731-4.551 1.151-.014.09-.038.177-.038.27 0 1.381 1.567 2.5 3.5 2.5z" stroke="#5D6D81" stroke-width="2" stroke-linecap="round" stroke-linejoin="round"/><path d="M52.824 466H23.176C17.003 466 12 460.996 12 454.824v-29.648C12 419.003 17.003 414 23.176 414h29.648C58.996 414 64 419.003 64 425.176v29.648C64 460.996 58.996 466 52.824 466z"/><path d="M52.824 466H23.176C17.003 466 12 460.996 12 454.824v-29.648C12 419.003 17.003 414 23.176 414h29.648C58.996 414 64 419.003 64 425.176v29.648C64 460.996 58.996 466 52.824 466z" stroke="#5D6D81" stroke-width="2" stroke-linecap="round" stroke-linejoin="round"/><path d="M42.68 453h-3.24l-2.76-9.04h-8.32L25.72 453H22.6l8.24-28h3.32l8.52 28zm-6.72-12l-3.48-11.36L29.12 441h6.84zm13.519-14.76c0 .453-.159.84-.479 1.16-.32.32-.7.48-1.141.48-.44 0-.826-.166-1.159-.5-.334-.333-.5-.713-.5-1.14 0-.427.166-.806.5-1.14.333-.333.719-.5 1.159-.5.441 0 .821.16 1.141.48.32.32.479.707.479 1.16zm-3.12 6.72h2.88V453h-2.88v-20.04z" fill="#EBB200"/><path d="M1223.824 225h-29.648c-6.173 0-11.176-5.004-11.176-11.176v-29.648c0-6.173 5.003-11.176 11.176-11.176h29.648c6.172 0 11.176 5.003 11.176 11.176v29.648c0 6.172-5.004 11.176-11.176 11.176z"/><path d="M1223.824 225h-29.648c-6.173 0-11.176-5.004-11.176-11.176v-29.648c0-6.173 5.003-11.176 11.176-11.176h29.648c6.172 0 11.176 5.003 11.176 11.176v29.648c0 6.172-5.004 11.176-11.176 11.176z" stroke="#5D6D81" stroke-width="2" stroke-linecap="round" stroke-linejoin="round"/><path d="M1195.16 212h-2.88v-28h9.64c2.613 0 4.553.813 5.82 2.44 1.266 1.626 1.9 3.76 1.9 6.4 0 .933-.027 1.74-.08 2.42-.054.68-.22 1.534-.5 2.56-.28 1.027-.66 1.866-1.14 2.52-.48.654-1.214 1.226-2.2 1.72-.987.494-2.16.74-3.52.74h-7.04v9.2zm0-12h6.68c.96 0 1.773-.187 2.44-.56.666-.374 1.153-.773 1.46-1.2.306-.426.547-1.04.72-1.84.173-.8.267-1.4.28-1.8.013-.4.02-.973.02-1.72 0-4.053-1.694-6.08-5.08-6.08h-6.52V200zm17.32 6.92l2.8-.12c.106.987.6 1.754 1.48 2.3.88.547 1.893.82 3.04.82 1.146 0 2.14-.26 2.98-.78.84-.52 1.26-1.266 1.26-2.24 0-.973-.36-1.747-1.08-2.32-.72-.573-1.6-1.026-2.64-1.36-1.04-.333-2.087-.686-3.14-1.06a7.36 7.36 0 0 1-2.78-1.76c-.987-.933-1.48-2.073-1.48-3.42 0-1.346.54-2.6 1.62-3.76 1.08-1.16 2.833-1.74 5.26-1.74.853 0 1.653.1 2.4.3.746.201 1.28.394 1.6.58l.48.28-.92 2.52c-.854-.666-1.974-1-3.36-1-1.387 0-2.42.26-3.1.78-.68.52-1.02 1.18-1.02 1.98 0 .88.426 1.574 1.28 2.08.853.507 1.813.934 2.88 1.28 1.066.347 2.126.734 3.18 1.16a6.594 6.594 0 0 1 2.68 2c.733.907 1.1 2.107 1.1 3.6 0 1.494-.6 2.794-1.8 3.9-1.2 1.106-2.954 1.66-5.26 1.66-2.307 0-4.114-.547-5.42-1.64-1.307-1.093-1.987-2.44-2.04-4.04" fill="#5BAADC"/><g><path d="M1399 298h-54a2 2 0 0 1-2-2v-44h58v44a2 2 0 0 1-2 2"/><path d="M1399 298h-54a2 2 0 0 1-2-2v-44h58v44a2 2 0 0 1-2 2z" stroke="#5D6D81" stroke-width="2" stroke-linecap="round" stroke-linejoin="round"/><path d="M1401 252h-58v-10a2 2 0 0 1 2-2h54a2 2 0 0 1 2 2v10z"/><path d="M1401 252h-58v-10a2 2 0 0 1 2-2h54a2 2 0 0 1 2 2v10z" stroke="#5D6D81" stroke-width="2" stroke-linecap="round" stroke-linejoin="round"/><path d="M1353 246a3 3 0 1 0-6 0 3 3 0 0 0 6 0" fill="#F08481" fill-rule="nonzero"/><path d="M1353 246a3 3 0 1 0-6 0 3 3 0 0 0 6 0z" stroke="#5D6D81" stroke-width="2" stroke-linecap="round" stroke-linejoin="round"/><path d="M1363 246a3 3 0 1 0-6 0 3 3 0 0 0 6 0" fill="#EBB200" fill-rule="nonzero"/><path d="M1363 246a3 3 0 1 0-6 0 3 3 0 0 0 6 0z" stroke="#5D6D81" stroke-width="2" stroke-linecap="round" stroke-linejoin="round"/><path d="M1373 246a3 3 0 1 0-6 0 3 3 0 0 0 6 0" fill="#7DDEB1" fill-rule="nonzero"/><path d="M1373 246a3 3 0 1 0-6 0 3 3 0 0 0 6 0zm-24 11h8m-8 12h8m-5-6h14m-17 12h17m-14 6h11m-11 12h11m-8-6h14" stroke="#5D6D81" stroke-width="2" stroke-linecap="round" stroke-linejoin="round"/><path d="M1397 284v-18a2 2 0 0 0-2-2h-18a2 2 0 0 0-2 2v6l-3 3 3 3v6a2 2 0 0 0 2 2h18a2 2 0 0 0 2-2"/><path d="M1397 284v-18a2 2 0 0 0-2-2h-18a2 2 0 0 0-2 2v6l-3 3 3 3v6a2 2 0 0 0 2 2h18a2 2 0 0 0 2-2z" stroke="#5D6D81" stroke-width="2" stroke-linecap="round" stroke-linejoin="round"/><path d="M1383 281c-1.098 0-2-.902-2-2v-2l-2-2.013 2-1.987v-2c0-1.098.902-2 2-2m6 12c1.098 0 2-.902 2-2v-2l2-2-2-2v-2c0-1.098-.902-2-2-2" stroke="#5D6D81" stroke-width="2" stroke-linecap="round" stroke-linejoin="round"/></g></g></g></svg>