<?xml version="1.0" encoding="utf-8"?>
<!-- Generator: Adobe Illustrator 16.0.0, SVG Export Plug-In . SVG Version: 6.00 Build 0)  -->
<!DOCTYPE svg PUBLIC "-//W3C//DTD SVG 1.1//EN" "http://www.w3.org/Graphics/SVG/1.1/DTD/svg11.dtd">
<svg version="1.1" id="图层_1" xmlns="http://www.w3.org/2000/svg" xmlns:xlink="http://www.w3.org/1999/xlink" x="0px" y="0px"
	 width="41px" height="32px" viewBox="0 0 41 32" enable-background="new 0 0 41 32" xml:space="preserve">
<title>“ copy 2</title>
<desc>Created with Sketch.</desc>
<g id="Page-1">
	<g id="final" transform="translate(-1375.000000, -5457.000000)">
		<path id="_x201C_-copy-2" fill="#28C4B2" d="M1389.79,5489H1375v-10.579c0-4.28,0.377-7.658,1.132-10.131
			c0.754-2.474,2.149-4.693,4.184-6.658c2.035-1.965,4.631-3.508,7.79-4.631l2.895,6.105c-2.947,0.982-5.062,2.351-6.342,4.105
			s-1.956,4.088-2.026,7h7.158V5489z M1414.474,5489h-14.79v-10.579c0-4.315,0.378-7.702,1.133-10.158
			c0.754-2.456,2.157-4.667,4.21-6.632c2.053-1.965,4.64-3.508,7.763-4.631l2.895,6.105c-2.947,0.982-5.061,2.351-6.342,4.105
			c-1.28,1.754-1.956,4.088-2.025,7h7.157V5489z"/>
	</g>
</g>
</svg>
