<?xml version="1.0"?>
								<svg xmlns="http://www.w3.org/2000/svg" xmlns:xlink="http://www.w3.org/1999/xlink" viewBox="0 0 128 128"><defs><linearGradient id="a" x1="122.737" y1="122.737" x2="5.263" y2="5.263" gradientUnits="userSpaceOnUse"><stop offset="0" stop-color="#5360d9"/><stop offset="1" stop-color="#79d5dd"/></linearGradient></defs><path d="M123.25,46.625v4.358a1.75,1.75,0,1,1-3.5,0V46.625a1.75,1.75,0,0,1,3.5,0Zm0-40.125V39.167a1.75,1.75,0,0,1-3.5,0V25.942H8.25V119.75h111.5v-62a1.75,1.75,0,0,1,3.5,0V121.5a1.751,1.751,0,0,1-1.75,1.75H6.5a1.751,1.751,0,0,1-1.75-1.75V6.5A1.751,1.751,0,0,1,6.5,4.75h115A1.751,1.751,0,0,1,123.25,6.5Zm-3.5,15.942V8.25H8.25V22.442Zm-9-7.1a4.75,4.75,0,1,1-4.75-4.75A4.755,4.755,0,0,1,110.755,15.346Zm-3.5,0a1.25,1.25,0,1,0-1.25,1.25A1.251,1.251,0,0,0,107.255,15.346Zm-11.243,0a4.75,4.75,0,1,1-4.75-4.75A4.756,4.756,0,0,1,96.012,15.346Zm-3.5,0a1.25,1.25,0,1,0-1.25,1.25A1.252,1.252,0,0,0,92.512,15.346Zm-11.244,0a4.75,4.75,0,1,1-4.75-4.75A4.756,4.756,0,0,1,81.268,15.346Zm-3.5,0a1.25,1.25,0,1,0-1.25,1.25A1.251,1.251,0,0,0,77.768,15.346ZM39.75,41.122a4.75,4.75,0,1,1,4.75,4.75A4.756,4.756,0,0,1,39.75,41.122Zm3.5,0a1.25,1.25,0,1,0,1.25-1.25A1.251,1.251,0,0,0,43.25,41.122ZM60.583,69.776a1.75,1.75,0,0,1-1.75,1.75H15.526a1.751,1.751,0,0,1-1.75-1.75V33.192a1.751,1.751,0,0,1,1.75-1.75H58.833a1.75,1.75,0,0,1,1.75,1.75Zm-43.307-1.75H44.038L31.193,50.584,23.5,55.1a1.75,1.75,0,0,1-1.774-3.018l9.05-5.317a1.751,1.751,0,0,1,2.3.471l4.676,6.35,11.615-6.824a1.751,1.751,0,0,1,2.3.471l5.42,7.36V34.942H17.276Zm39.807,0V60.5l-7.3-9.916-9.942,5.84,8.547,11.6ZM79.518,31.442H69.167a1.75,1.75,0,0,0-1.75,1.75v70.616a1.75,1.75,0,0,0,1.75,1.75h43.307a1.751,1.751,0,0,0,1.75-1.75V33.192a1.751,1.751,0,0,0-1.75-1.75H89.25a1.75,1.75,0,0,0,0,3.5h21.474v67.116H70.917V34.942h8.6a1.75,1.75,0,0,0,0-3.5Zm23.956,10.976H78.167a1.75,1.75,0,0,0,0,3.5h25.307a1.75,1.75,0,0,0,0-3.5Zm0,8.11H78.167a1.75,1.75,0,0,0,0,3.5h25.307a1.75,1.75,0,0,0,0-3.5Zm0,8.111H78.167a1.75,1.75,0,0,0,0,3.5h25.307a1.75,1.75,0,0,0,0-3.5Zm0,8.111H78.167a1.75,1.75,0,0,0,0,3.5h25.307a1.75,1.75,0,0,0,0-3.5Zm0,8.111H78.167a1.75,1.75,0,0,0,0,3.5h25.307a1.75,1.75,0,0,0,0-3.5Zm0,8.11H78.167a1.75,1.75,0,0,0,0,3.5h25.307a1.75,1.75,0,0,0,0-3.5Zm0,8.111H78.167a1.75,1.75,0,0,0,0,3.5h25.307a1.75,1.75,0,0,0,0-3.5ZM58.833,76.917H15.5a1.75,1.75,0,0,0,0,3.5H58.833a1.75,1.75,0,0,0,0-3.5Zm0,8.11H15.5a1.75,1.75,0,0,0,0,3.5H58.833a1.75,1.75,0,1,0,0-3.5Zm0,8.111H15.5a1.75,1.75,0,0,0,0,3.5H58.833a1.75,1.75,0,0,0,0-3.5Zm0,8.111H15.5a1.75,1.75,0,0,0,0,3.5H58.833a1.75,1.75,0,0,0,0-3.5Z" fill="url(#a)"/></svg>