<svg xmlns:dc="http://purl.org/dc/elements/1.1/" xmlns:cc="http://creativecommons.org/ns#" xmlns:rdf="http://www.w3.org/1999/02/22-rdf-syntax-ns#" xmlns:svg="http://www.w3.org/2000/svg" xmlns="http://www.w3.org/2000/svg" xmlns:xlink="http://www.w3.org/1999/xlink" id="svg221" viewBox="244 308 541 146" version="1.1">
  <metadata id="metadata227">
    <rdf:rdf>
      <cc:work rdf:about="">
        <dc:format>image/svg+xml</dc:format>
        <dc:type rdf:resource="http://purl.org/dc/dcmitype/StillImage"></dc:type>
      </cc:work>
    </rdf:rdf>
  </metadata>
  <defs id="defs225"></defs>
  <g id="logo-group">
    <image xlink:href="../nounpreview/676600.png" id="icon" width="200" height="200" x="412" y="0" style="display: none;"></image>
    <g id="title" style="font-style:normal;font-weight:700;font-size:72px;line-height:1;font-family:'Comfortaa Bold Alt1';font-variant-ligatures:none;text-align:center;text-anchor:middle">
      <path id="path229" style="font-style: normal; font-weight: 700; font-size: 72px; line-height: 1; font-family: &quot;Comfortaa Bold Alt1&quot;; font-variant-ligatures: none; text-align: center; text-anchor: middle; fill: rgb(255, 255, 255);" d="m 389.79687,-33.046875 h -7.3125 v 28.125 q 0,1.125 1.05469,1.96875 1.05469,0.84375 2.46094,0.84375 V 0 h -16.17188 v -2.109375 q 1.40625,0 2.46094,-0.7734375 1.05469,-0.8085938 1.05469,-2.0390625 V -8.4375 q -1.6875,2.0390625 -4.53516,3.1289063 -2.8125,1.0898437 -6.01172,1.0898437 -5.76562,0 -9.91406,-3.7265625 -4.14844,-3.7265625 -4.14844,-8.9296875 0,-5.238281 4.07813,-8.929687 4.11328,-3.726563 9.98437,-3.726563 7.06641,0 10.54688,4.21875 v -7.734375 H 346.69531 V -36.5625 h 43.10156 z M 373.34375,-11.25 V -22.5 q -2.77734,-2.8125 -6.32813,-2.8125 -3.76171,0 -6.46875,2.425781 -2.67187,2.390625 -2.67187,6.011719 0,3.621094 2.67187,6.046875 2.70704,2.390625 6.46875,2.390625 3.44532,0 6.32813,-2.8125 z" transform="translate(0 290.7828123601547) translate(252 49.23282983680782) scale(1.482520893352265) translate(-346.69531 36.5625)"></path>
      <path id="path231" style="font-style: normal; font-weight: 700; font-size: 72px; line-height: 1; font-family: &quot;Comfortaa Bold Alt1&quot;; font-variant-ligatures: none; text-align: center; text-anchor: middle; fill: rgb(255, 255, 255);" d="m 382.48437,-37.96875 h -8.4375 q -1.96875,0 -4.21875,-2.109375 l -9.84375,-9.140625 Q 358.47266,-50.625 355.0625,-50.625 H 352.25 v -2.8125 h 9.84375 q 2.56641,0 4.92187,2.109375 l 10.19532,9.140625 q 2.35547,2.109375 3.86718,2.109375 h 1.40625 z" transform="translate(0 290.7828123601547) translate(263.19998576779943 24.21528976148835) scale(1.482520893352265) translate(-352.25 53.4375)"></path>
      <path id="path233" style="font-style: normal; font-weight: 700; font-size: 72px; line-height: 1; font-family: &quot;Comfortaa Bold Alt1&quot;; font-variant-ligatures: none; text-align: center; text-anchor: middle; fill: rgb(255, 255, 255);" d="m 430.29687,-33.046875 h -7.3125 v 28.125 q 0,1.125 1.05469,1.96875 1.05469,0.84375 2.46094,0.84375 V 0 h -16.17188 v -2.109375 q 1.40625,0 2.46094,-0.7734375 1.05469,-0.8085938 1.05469,-2.0390625 V -8.4375 q -1.6875,2.0390625 -4.53516,3.1289063 -2.8125,1.0898437 -6.01172,1.0898437 -5.76562,0 -9.91406,-3.7265625 -4.14844,-3.7265625 -4.14844,-8.9296875 0,-5.238281 4.07813,-8.929687 4.11328,-3.726563 9.98437,-3.726563 6.25782,0 10.54688,3.515625 v -7.03125 H 387.19531 V -36.5625 h 43.10156 z m -16.45312,19.6875 V -22.5 q -2.77734,-2.8125 -6.32813,-2.8125 -3.90234,0 -5.625,1.40625 z m -1.40625,2.8125 -12.65625,-11.25 q -1.40625,1.898438 -1.40625,4.921875 0,3.621094 2.67187,6.046875 2.70704,2.390625 6.46875,2.390625 2.8125,0 4.92188,-2.109375 z" transform="translate(0 290.7828123601547) translate(317.9721797541758 49.23282983680782) scale(1.482520893352265) translate(-387.19531 36.5625)"></path>
      <path id="path235" style="font-style: normal; font-weight: 700; font-size: 72px; line-height: 1; font-family: &quot;Comfortaa Bold Alt1&quot;; font-variant-ligatures: none; text-align: center; text-anchor: middle; fill: rgb(255, 255, 255);" d="m 463.69531,-33.046875 h -7.3125 v 27.3515625 q 0,3.5859375 3.51563,3.5859375 V 0 h -16.17188 v -2.109375 q 3.51563,0 3.51563,-3.5859375 V -33.046875 h -5.0625 V -36.5625 h 21.51562 z m 26.01563,-4.21875 h -9.14063 q -2.07422,-5.765625 -6.67969,-9.210937 -4.60546,-3.445313 -10.19531,-3.445313 -3.90234,0 -6.71484,2.285156 -2.77735,2.25 -2.77735,5.449219 0,2.460938 2.10938,4.921875 h -9.14063 q -2.10937,-2.460937 -2.10937,-4.921875 0,-4.851562 5.97656,-7.699219 5.97656,-2.847656 13.00781,-2.847656 9.07032,0 16.06641,4.21875 7.03125,4.21875 9.59766,11.25 z" transform="translate(0 290.7828123601547) translate(402.4527136989007 25.257687264626654) scale(1.482520893352265) translate(-442.17969 52.734375)"></path>
      <path id="path237" style="font-style: normal; font-weight: 700; font-size: 72px; line-height: 1; font-family: &quot;Comfortaa Bold Alt1&quot;; font-variant-ligatures: none; text-align: center; text-anchor: middle; fill: rgb(255, 255, 255);" d="m 501.38281,-33.046875 h -7.66406 v 7.734375 h -11.25 q -1.79297,0 -3.02344,1.054688 -1.19531,1.019531 -1.19531,2.460937 0,1.160156 1.47656,2.003906 1.51172,0.808594 3.44531,0.808594 h 5.625 q 3.48047,0 5.94141,2.214844 2.49609,2.214843 2.49609,5.519531 0,4.9921875 -4.85156,8.1210937 Q 487.53125,0 481.41406,0 474.875,0 469.46094,-4.640625 464.04687,-9.28125 462.07812,-16.523437 l 2.46094,-1.054688 q 1.58203,5.835937 5.76563,9.5976563 4.21875,3.7617187 9.35156,3.7617187 3.44531,0 5.94141,-1.8632812 2.49609,-1.8632813 2.49609,-4.4648438 0,-2.390625 -2.03906,-4.007813 -2.00391,-1.617187 -4.99219,-1.617187 h -4.21875 q -3.19922,0 -5.48438,-1.863281 -2.25,-1.898438 -2.25,-4.464844 0,-2.355469 2.8125,-3.972656 2.84766,-1.652344 7.03125,-1.652344 h 5.625 v -4.921875 H 461.02344 V -36.5625 h 40.35937 z" transform="translate(0 290.7828123601547) translate(433.354008569712 49.23282983680782) scale(1.482520893352265) translate(-461.02344 36.5625)"></path>
      <path id="path239" style="font-style: normal; font-weight: 700; font-size: 72px; line-height: 1; font-family: &quot;Comfortaa Bold Alt1&quot;; font-variant-ligatures: none; text-align: center; text-anchor: middle; fill: rgb(255, 255, 255);" d="m 549.89844,-33.046875 h -7.3125 v 28.125 q 0,1.125 1.05468,1.96875 1.05469,0.84375 2.46094,0.84375 V 0 h -16.17187 v -2.109375 q 1.40625,0 2.46093,-0.7734375 1.05469,-0.8085938 1.05469,-2.0390625 V -22.5 h -10.54687 v 0.210938 q 7.03125,2.8125 7.03125,9.984374 0,4.2539067 -3.65625,7.242188 -3.6211,2.953125 -8.64844,2.953125 -7.06641,0 -12.16406,-6.5742188 -5.0625,-6.6093752 -5.0625,-15.9257812 h 2.10937 q 0.63281,6.996094 4.14844,11.777344 3.55078,4.7460935 8.15625,4.7460935 2.56641,0 4.25391,-2.0390625 1.72265,-2.039063 1.72265,-4.992188 0,-3.023437 -2.14453,-5.203124 Q 516.53516,-22.5 513.54687,-22.5 h -1.89843 v -2.8125 h 21.79687 v -7.734375 H 498.71094 V -36.5625 h 51.1875 z" transform="translate(0 290.7828123601547) translate(492.19155652462996 49.23282983680782) scale(1.482520893352265) translate(-498.71094 36.5625)"></path>
      <path id="path241" style="font-style: normal; font-weight: 700; font-size: 72px; line-height: 1; font-family: &quot;Comfortaa Bold Alt1&quot;; font-variant-ligatures: none; text-align: center; text-anchor: middle; fill: rgb(255, 255, 255);" d="m 568.74219,-33.046875 h -7.3125 v 27.3515625 q 0,3.5859375 3.51562,3.5859375 V 0 h -16.17187 v -2.109375 q 3.51562,0 3.51562,-3.5859375 V -33.046875 h -5.0625 V -36.5625 h 21.51563 z" transform="translate(0 290.7828123601547) translate(567.0820186152735 49.23282983680782) scale(1.482520893352265) translate(-547.22656 36.5625)"></path>
      <path id="path243" style="font-style: normal; font-weight: 700; font-size: 72px; line-height: 1; font-family: &quot;Comfortaa Bold Alt1&quot;; font-variant-ligatures: none; text-align: center; text-anchor: middle; fill: rgb(255, 255, 255);" d="m 601.85937,-33.046875 h -9.28125 v 7.3125 h -9.14062 q -2.42578,0 -4.04297,1.019531 -1.58203,0.984375 -1.58203,2.777344 0,1.511719 1.26562,2.425781 1.26563,0.878907 3.09375,0.878907 1.08985,0 3.16407,-0.175782 2.10937,-0.175781 3.02343,-0.175781 7.59375,0 7.59375,5.625 0,4.1835937 -3.05859,6.6445313 -3.02344,2.4257812 -8.33203,2.4257812 h -3.09375 q 1.26562,1.4765625 3.51562,2.8125 2.28516,1.3359375 3.79688,1.3359375 1.54687,0 3.375,-0.984375 l 1.05469,1.40625 q -4.1836,3.796875 -8.4375,3.796875 -4.71094,0 -9,-4.4296875 -3.76172,-3.9375 -5.27344,-5.3789062 -1.47656,-1.4414063 -2.88281,-1.6523438 v -2.109375 h 10.05468 q 0.70313,1.3007812 2.03907,3.09375 2.95312,0 5.09765,-1.40625 2.14453,-1.4414063 2.14453,-3.7968755 0,-2.109375 -1.58203,-3.339843 -1.58203,-1.230469 -4.04297,-1.230469 h -5.625 q -2.74218,0 -4.88671,-1.828125 -2.14454,-1.863281 -2.14454,-4.5 0,-2.671875 2.07422,-4.394531 2.07422,-1.722656 4.95703,-1.722656 h 7.73438 v -4.429688 H 566.07031 V -36.5625 h 35.78906 z" transform="translate(0 290.7828123601547) translate(597.9833134860847 49.23282983680782) scale(1.482520893352265) translate(-566.07031 36.5625)"></path>
      <path id="path245" style="font-style: normal; font-weight: 700; font-size: 72px; line-height: 1; font-family: &quot;Comfortaa Bold Alt1&quot;; font-variant-ligatures: none; text-align: center; text-anchor: middle; fill: rgb(255, 255, 255);" d="m 650.09375,-33.046875 h -7.3125 v 28.125 q 0,1.125 1.05469,1.96875 1.05468,0.84375 2.46093,0.84375 V 0 H 630.125 v -2.109375 q 1.40625,0 2.46094,-0.7734375 1.05468,-0.8085938 1.05468,-2.0390625 V -18.28125 q -3.02343,-2.460937 -10.89843,-3.867187 2.53125,1.441406 3.90234,3.796875 1.37109,2.320312 1.37109,4.992187 0,4.9570312 -3.90234,8.4726563 -3.86719,3.4804687 -9.45703,3.4804687 -5.51953,0 -9.45703,-3.515625 -3.90235,-3.5507813 -3.90235,-8.4375 0,-5.238281 3.86719,-8.929687 3.90235,-3.726563 9.49219,-3.726563 11.10937,0 18.98437,4.570313 V -33.046875 H 599.25781 V -36.5625 h 50.83594 z m -35.4375,9.84375 q -2.28516,0 -3.97266,2.707031 -1.65234,2.707032 -1.65234,6.433594 0,4.042969 1.65234,6.9609375 1.6875,2.8828125 3.97266,2.8828125 2.35547,0 3.97266,-2.8125 1.65234,-2.8476563 1.65234,-7.03125 0,-3.867187 -1.65234,-6.503906 -1.61719,-2.636719 -3.97266,-2.636719 z" transform="translate(0 290.7828123601547) translate(650.1495174209177 49.23282983680782) scale(1.482520893352265) translate(-599.25781 36.5625)"></path>
      <path id="path247" style="font-style: normal; font-weight: 700; font-size: 72px; line-height: 1; font-family: &quot;Comfortaa Bold Alt1&quot;; font-variant-ligatures: none; text-align: center; text-anchor: middle; fill: rgb(255, 255, 255);" d="m 679.44922,-33.046875 h -17.96485 v 0.351563 q 5.41407,0.492187 9.03516,3.621093 3.62109,3.09375 3.62109,7.277344 0,3.9375 -3.41015,7.136719 -3.41016,3.199218 -8.54297,4.113281 5.27344,5.2734375 7.38281,5.2734375 2.56641,0 4.57031,-2.4609375 l 1.40625,1.7578125 q -1.93359,2.7773437 -4.60546,4.3945313 Q 668.30469,0 665.70312,0 q -3.51562,0 -8.4375,-4.921875 -7.03125,-7.03125 -9.14062,-7.03125 l 0.70312,-2.109375 q 2.14454,0.703125 6.32813,0.703125 4.04297,0 6.92578,-2.636719 Q 665,-18.632812 665,-22.5 q 0,-4.5 -3.58594,-7.523437 -3.55078,-3.023438 -8.36719,-3.023438 h -5.55468 V -36.5625 h 31.95703 z" transform="translate(0 290.7828123601547) translate(724.623035335515 49.23282983680782) scale(1.482520893352265) translate(-647.49219 36.5625)"></path>
    </g>
    <g id="tagline" style="font-style:normal;font-weight:800;font-size:32px;line-height:1;font-family:Raleway;font-variant-ligatures:none;text-align:center;text-anchor:middle">
      <path id="path250" style="font-style: normal; font-weight: 800; font-size: 32px; line-height: 1; font-family: Raleway; font-variant-ligatures: none; text-align: center; text-anchor: middle; fill: rgb(255, 255, 255);" d="m 291.085,-5.824 q 0,1.472 -0.608,2.56 -0.608,1.088 -1.664,1.824 -1.056,0.704 -2.464,1.088 Q 284.941,0 283.373,0 h -11.072 v -22.72 h 12.64 q 1.184,0 2.144,0.512 0.96,0.512 1.632,1.344 0.672,0.8 1.024,1.856 0.384,1.024 0.384,2.112 0,1.632 -0.832,3.072 -0.8,1.44 -2.432,2.176 1.952,0.576 3.072,2.048 1.152,1.472 1.152,3.776 z m -5.344,-1.056 q 0,-1.056 -0.608,-1.792 -0.608,-0.736 -1.536,-0.736 h -6.048 v 4.96 h 5.824 q 1.024,0 1.696,-0.672 0.672,-0.672 0.672,-1.76 z m -8.192,-11.36 v 4.704 h 5.152 q 0.864,0 1.536,-0.576 0.672,-0.576 0.672,-1.792 0,-1.12 -0.608,-1.728 -0.576,-0.608 -1.408,-0.608 z" transform="translate(0 371.9350178783569) translate(252.31373000000002 48.8224) scale(1.08) translate(-272.301 22.72)"></path>
      <path id="path252" style="font-style: normal; font-weight: 800; font-size: 32px; line-height: 1; font-family: Raleway; font-variant-ligatures: none; text-align: center; text-anchor: middle; fill: rgb(255, 255, 255);" d="m 298.848,0.32 q -2.592,0 -3.936,-1.6 Q 293.6,-2.912 293.6,-6.048 V -16.8 h 5.12 v 9.632 q 0,1.536 0.608,2.368 0.608,0.8 1.728,0.8 1.024,0 1.984,-0.544 0.96,-0.544 1.696,-1.888 V -16.8 h 5.12 v 11.04 q 0,0.768 0.224,1.088 0.256,0.288 0.864,0.352 V 0 q -0.736,0.16 -1.248,0.192 -0.512,0.064 -0.928,0.064 -2.752,0 -3.136,-2.144 l -0.096,-1.024 q -1.152,1.664 -2.88,2.464 -1.696,0.768 -3.808,0.768 z" transform="translate(0 371.9350178783569) translate(275.3166500000001 55.215999999999994) scale(1.08) translate(-293.6 16.8)"></path>
      <path id="path254" style="font-style: normal; font-weight: 800; font-size: 32px; line-height: 1; font-family: Raleway; font-variant-ligatures: none; text-align: center; text-anchor: middle; fill: rgb(255, 255, 255);" d="m 313.8225,0 v -16.8 h 5.12 V 0 Z m 0,-18.72 v -4.64 h 5.12 v 4.64 z" transform="translate(0 371.9350178783569) translate(297.15695000000005 48.1312) scale(1.08) translate(-313.8225 23.36)"></path>
      <path id="path256" style="font-style: normal; font-weight: 800; font-size: 32px; line-height: 1; font-family: Raleway; font-variant-ligatures: none; text-align: center; text-anchor: middle; fill: rgb(255, 255, 255);" d="m 322.3835,-23.36 h 5.12 v 17.376 q 0,1.92 1.632,1.92 0.384,0 0.832,-0.096 0.48,-0.128 0.864,-0.352 l 0.672,3.84 q -0.96,0.448 -2.208,0.704 -1.248,0.256 -2.336,0.256 -2.208,0 -3.392,-1.152 -1.184,-1.152 -1.184,-3.328 z" transform="translate(0 371.9350178783569) translate(306.4028300000001 48.1312) scale(1.08) translate(-322.3835 23.36)"></path>
      <path id="path258" style="font-style: normal; font-weight: 800; font-size: 32px; line-height: 1; font-family: Raleway; font-variant-ligatures: none; text-align: center; text-anchor: middle; fill: rgb(255, 255, 255);" d="m 340.1735,0.32 q -1.728,0 -3.2,-0.64 -1.44,-0.672 -2.496,-1.856 -1.056,-1.184 -1.664,-2.752 -0.576,-1.6 -0.576,-3.488 0,-1.824 0.544,-3.424 0.544,-1.6 1.536,-2.752 0.992,-1.184 2.336,-1.856 1.376,-0.672 3.008,-0.672 1.76,0 3.168,0.832 1.44,0.832 2.208,2.24 v -9.312 h 5.12 v 17.6 q 0,0.768 0.224,1.088 0.256,0.288 0.864,0.352 V 0 q -0.704,0.16 -1.216,0.192 -0.512,0.064 -0.96,0.064 -1.344,0 -2.176,-0.544 -0.832,-0.576 -0.96,-1.632 l -0.096,-0.864 q -0.896,1.568 -2.432,2.336 -1.504,0.768 -3.232,0.768 z m 1.376,-4.32 q 1.056,0 2.016,-0.608 0.992,-0.64 1.504,-1.728 v -3.52 q -0.48,-1.28 -1.568,-2.08 -1.056,-0.832 -2.208,-0.832 -0.832,0 -1.536,0.384 -0.672,0.352 -1.184,0.96 -0.512,0.608 -0.8,1.408 -0.256,0.8 -0.256,1.696 0,0.928 0.288,1.728 0.32,0.8 0.832,1.376 0.544,0.576 1.28,0.896 0.768,0.32 1.632,0.32 z" transform="translate(0 371.9350178783569) translate(317.0451500000001 48.1312) scale(1.08) translate(-332.2375 23.36)"></path>
      <path id="path260" style="font-style: normal; font-weight: 800; font-size: 32px; line-height: 1; font-family: Raleway; font-variant-ligatures: none; text-align: center; text-anchor: middle; fill: rgb(255, 255, 255);" d="m 354.135,0 v -16.8 h 5.12 V 0 Z m 0,-18.72 v -4.64 h 5.12 v 4.64 z" transform="translate(0 371.9350178783569) translate(340.6944500000001 48.1312) scale(1.08) translate(-354.135 23.36)"></path>
      <path id="path262" style="font-style: normal; font-weight: 800; font-size: 32px; line-height: 1; font-family: Raleway; font-variant-ligatures: none; text-align: center; text-anchor: middle; fill: rgb(255, 255, 255);" d="m 378.952,0 h -5.12 v -9.44 q 0,-1.664 -0.64,-2.4 -0.608,-0.768 -1.632,-0.768 -0.544,0 -1.088,0.224 -0.544,0.224 -1.056,0.64 -0.512,0.384 -0.928,0.928 -0.384,0.544 -0.608,1.184 V 0 h -5.12 v -16.8 h 4.608 v 2.816 q 0.928,-1.504 2.624,-2.304 1.696,-0.832 3.904,-0.832 1.632,0 2.624,0.608 0.992,0.576 1.536,1.536 0.544,0.928 0.704,2.048 0.192,1.12 0.192,2.176 z" transform="translate(0 371.9350178783569) translate(350.0094500000001 54.8704) scale(1.08) translate(-362.76 17.12)"></path>
      <path id="path264" style="font-style: normal; font-weight: 800; font-size: 32px; line-height: 1; font-family: Raleway; font-variant-ligatures: none; text-align: center; text-anchor: middle; fill: rgb(255, 255, 255);" d="m 388.8505,0.064 q -1.664,0 -3.04,-0.672 -1.376,-0.672 -2.368,-1.824 -0.96,-1.152 -1.504,-2.688 -0.544,-1.536 -0.544,-3.296 0,-1.856 0.576,-3.424 0.576,-1.6 1.6,-2.752 1.024,-1.184 2.464,-1.856 1.44,-0.672 3.168,-0.672 1.92,0 3.328,0.832 1.44,0.8 2.304,2.24 V -16.8 h 4.448 v 15.648 q 0,1.92 -0.736,3.456 -0.704,1.536 -1.984,2.592 -1.28,1.088 -3.072,1.664 -1.792,0.576 -3.936,0.576 -2.72,0 -4.64,-0.864 -1.92,-0.864 -3.36,-2.496 l 2.752,-2.784 q 0.928,1.056 2.304,1.664 1.376,0.64 2.944,0.64 0.928,0 1.76,-0.256 0.832,-0.256 1.472,-0.8 0.64,-0.512 0.992,-1.376 0.384,-0.832 0.384,-2.016 v -1.632 q -0.768,1.408 -2.208,2.144 -1.44,0.704 -3.104,0.704 z m 1.76,-4.064 q 1.184,0 2.112,-0.64 0.928,-0.672 1.44,-1.696 v -3.52 q -0.512,-1.344 -1.568,-2.112 -1.056,-0.8 -2.24,-0.8 -0.832,0 -1.536,0.384 -0.672,0.352 -1.184,0.992 -0.48,0.608 -0.768,1.44 -0.256,0.8 -0.256,1.664 0,0.928 0.288,1.728 0.32,0.768 0.864,1.344 0.544,0.576 1.248,0.896 0.736,0.32 1.6,0.32 z" transform="translate(0 371.9350178783569) translate(370.1347100000001 54.8704) scale(1.08) translate(-381.3945 17.12)"></path>
      <path id="path266" style="font-style: normal; font-weight: 800; font-size: 32px; line-height: 1; font-family: Raleway; font-variant-ligatures: none; text-align: center; text-anchor: middle; fill: rgb(255, 255, 255);" d="m 429.46,-5.824 q 0,1.472 -0.608,2.56 -0.608,1.088 -1.664,1.824 -1.056,0.704 -2.464,1.088 Q 423.316,0 421.748,0 h -11.072 v -22.72 h 12.64 q 1.184,0 2.144,0.512 0.96,0.512 1.632,1.344 0.672,0.8 1.024,1.856 0.384,1.024 0.384,2.112 0,1.632 -0.832,3.072 -0.8,1.44 -2.432,2.176 1.952,0.576 3.072,2.048 1.152,1.472 1.152,3.776 z m -5.344,-1.056 q 0,-1.056 -0.608,-1.792 -0.608,-0.736 -1.536,-0.736 h -6.048 v 4.96 h 5.824 q 1.024,0 1.696,-0.672 0.672,-0.672 0.672,-1.76 z m -8.192,-11.36 v 4.704 h 5.152 q 0.864,0 1.536,-0.576 0.672,-0.576 0.672,-1.792 0,-1.12 -0.608,-1.728 -0.576,-0.608 -1.408,-0.608 z" transform="translate(0 371.9350178783569) translate(401.7587300000001 48.8224) scale(1.08) translate(-410.676 22.72)"></path>
      <path id="path268" style="font-style: normal; font-weight: 800; font-size: 32px; line-height: 1; font-family: Raleway; font-variant-ligatures: none; text-align: center; text-anchor: middle; fill: rgb(255, 255, 255);" d="m 442.791,-12.416 q -1.856,0.032 -3.36,0.608 -1.504,0.576 -2.176,1.728 V 0 h -5.12 v -16.8 h 4.704 v 3.392 q 0.864,-1.696 2.208,-2.656 1.376,-0.96 2.912,-0.992 0.352,0 0.512,0 0.16,0 0.32,0.032 z" transform="translate(0 371.9350178783569) translate(424.93445000000014 54.93952) scale(1.08) translate(-432.135 17.056)"></path>
      <path id="path270" style="font-style: normal; font-weight: 800; font-size: 32px; line-height: 1; font-family: Raleway; font-variant-ligatures: none; text-align: center; text-anchor: middle; fill: rgb(255, 255, 255);" d="m 449.4655,0.32 q -1.248,0 -2.336,-0.384 -1.056,-0.416 -1.824,-1.12 -0.768,-0.736 -1.216,-1.696 -0.448,-0.992 -0.448,-2.144 0,-1.248 0.512,-2.272 0.544,-1.024 1.504,-1.76 0.96,-0.736 2.272,-1.152 1.312,-0.416 2.912,-0.416 1.056,0 2.048,0.192 0.992,0.16 1.728,0.512 v -0.768 q 0,-2.912 -3.36,-2.912 -1.376,0 -2.624,0.48 -1.248,0.448 -2.624,1.376 l -1.504,-3.2 q 1.664,-1.088 3.456,-1.632 1.792,-0.544 3.808,-0.544 3.808,0 5.888,1.792 2.08,1.792 2.08,5.248 v 4.32 q 0,0.768 0.224,1.088 0.256,0.288 0.864,0.352 V 0 q -0.672,0.16 -1.216,0.192 -0.544,0.064 -0.992,0.064 -1.44,0 -2.176,-0.544 -0.736,-0.576 -0.928,-1.6 l -0.096,-0.768 q -1.12,1.44 -2.688,2.208 -1.536,0.768 -3.264,0.768 z m 1.504,-3.68 q 0.832,0 1.6,-0.288 0.8,-0.288 1.312,-0.768 0.736,-0.576 0.736,-1.216 v -1.6 q -0.672,-0.256 -1.472,-0.384 -0.768,-0.16 -1.44,-0.16 -1.408,0 -2.336,0.64 -0.896,0.64 -0.896,1.664 0,0.928 0.704,1.536 0.704,0.576 1.792,0.576 z" transform="translate(0 371.9350178783569) translate(437.36147000000017 54.8704) scale(1.08) translate(-443.6415 17.12)"></path>
      <path id="path272" style="font-style: normal; font-weight: 800; font-size: 32px; line-height: 1; font-family: Raleway; font-variant-ligatures: none; text-align: center; text-anchor: middle; fill: rgb(255, 255, 255);" d="m 479.6395,0 h -5.12 v -9.44 q 0,-1.664 -0.64,-2.4 -0.608,-0.768 -1.632,-0.768 -0.544,0 -1.088,0.224 -0.544,0.224 -1.056,0.64 -0.512,0.384 -0.928,0.928 -0.384,0.544 -0.608,1.184 V 0 h -5.12 v -16.8 h 4.608 v 2.816 q 0.928,-1.504 2.624,-2.304 1.696,-0.832 3.904,-0.832 1.632,0 2.624,0.608 0.992,0.576 1.536,1.536 0.544,0.928 0.704,2.048 0.192,1.12 0.192,2.176 z" transform="translate(0 371.9350178783569) translate(458.75195000000014 54.8704) scale(1.08) translate(-463.4475 17.12)"></path>
      <path id="path274" style="font-style: normal; font-weight: 800; font-size: 32px; line-height: 1; font-family: Raleway; font-variant-ligatures: none; text-align: center; text-anchor: middle; fill: rgb(255, 255, 255);" d="m 489.986,0.32 q -1.728,0 -3.2,-0.64 -1.44,-0.672 -2.496,-1.856 -1.056,-1.184 -1.664,-2.752 -0.576,-1.6 -0.576,-3.488 0,-1.824 0.544,-3.424 0.544,-1.6 1.536,-2.752 0.992,-1.184 2.336,-1.856 1.376,-0.672 3.008,-0.672 1.76,0 3.168,0.832 1.44,0.832 2.208,2.24 v -9.312 h 5.12 v 17.6 q 0,0.768 0.224,1.088 0.256,0.288 0.864,0.352 V 0 q -0.704,0.16 -1.216,0.192 -0.512,0.064 -0.96,0.064 -1.344,0 -2.176,-0.544 -0.832,-0.576 -0.96,-1.632 l -0.096,-0.864 q -0.896,1.568 -2.432,2.336 -1.504,0.768 -3.232,0.768 z M 491.362,-4 q 1.056,0 2.016,-0.608 0.992,-0.64 1.504,-1.728 v -3.52 q -0.48,-1.28 -1.568,-2.08 -1.056,-0.832 -2.208,-0.832 -0.832,0 -1.536,0.384 -0.672,0.352 -1.184,0.96 -0.512,0.608 -0.8,1.408 -0.256,0.8 -0.256,1.696 0,0.928 0.288,1.728 0.32,0.8 0.832,1.376 0.544,0.576 1.28,0.896 0.768,0.32 1.632,0.32 z" transform="translate(0 371.9350178783569) translate(478.84265000000016 48.1312) scale(1.08) translate(-482.05 23.36)"></path>
      <path id="path276" style="font-style: normal; font-weight: 800; font-size: 32px; line-height: 1; font-family: Raleway; font-variant-ligatures: none; text-align: center; text-anchor: middle; fill: rgb(255, 255, 255);" d="m 510.5715,0.32 q -2.144,0 -4.224,-0.672 -2.08,-0.704 -3.52,-2.016 l 1.824,-3.136 q 1.536,1.056 2.976,1.632 1.472,0.576 2.816,0.576 0.992,0 1.536,-0.352 0.544,-0.352 0.544,-1.024 0,-0.672 -0.704,-1.056 -0.672,-0.416 -2.4,-0.864 -1.696,-0.48 -2.88,-0.928 -1.152,-0.448 -1.888,-0.992 -0.736,-0.544 -1.056,-1.248 -0.32,-0.704 -0.32,-1.664 0,-1.28 0.512,-2.336 0.512,-1.056 1.408,-1.792 0.896,-0.736 2.112,-1.152 1.248,-0.416 2.688,-0.416 1.888,0 3.52,0.512 1.664,0.512 3.2,1.856 l -1.984,3.072 q -1.44,-0.992 -2.56,-1.44 -1.12,-0.448 -2.176,-0.448 -0.832,0 -1.408,0.352 -0.576,0.32 -0.576,1.056 0,0.704 0.608,1.056 0.64,0.352 2.336,0.768 1.792,0.48 3.008,0.96 1.248,0.48 2.016,1.088 0.768,0.576 1.12,1.344 0.352,0.768 0.352,1.824 0,2.496 -1.856,3.968 -1.856,1.472 -5.024,1.472 z" transform="translate(0 371.9350178783569) translate(501.2823500000002 54.8704) scale(1.08) translate(-502.8275 17.12)"></path>
      <path id="path278" style="font-style: normal; font-weight: 800; font-size: 32px; line-height: 1; font-family: Raleway; font-variant-ligatures: none; text-align: center; text-anchor: middle; fill: rgb(255, 255, 255);" d="m 527.3225,0 v -16.8 h 5.12 V 0 Z m 0,-18.72 v -4.64 h 5.12 v 4.64 z" transform="translate(0 371.9350178783569) translate(527.7369500000001 48.1312) scale(1.08) translate(-527.3225 23.36)"></path>
      <path id="path280" style="font-style: normal; font-weight: 800; font-size: 32px; line-height: 1; font-family: Raleway; font-variant-ligatures: none; text-align: center; text-anchor: middle; fill: rgb(255, 255, 255);" d="m 542.5715,0.32 q -2.144,0 -4.224,-0.672 -2.08,-0.704 -3.52,-2.016 l 1.824,-3.136 q 1.536,1.056 2.976,1.632 1.472,0.576 2.816,0.576 0.992,0 1.536,-0.352 0.544,-0.352 0.544,-1.024 0,-0.672 -0.704,-1.056 -0.672,-0.416 -2.4,-0.864 -1.696,-0.48 -2.88,-0.928 -1.152,-0.448 -1.888,-0.992 -0.736,-0.544 -1.056,-1.248 -0.32,-0.704 -0.32,-1.664 0,-1.28 0.512,-2.336 0.512,-1.056 1.408,-1.792 0.896,-0.736 2.112,-1.152 1.248,-0.416 2.688,-0.416 1.888,0 3.52,0.512 1.664,0.512 3.2,1.856 l -1.984,3.072 q -1.44,-0.992 -2.56,-1.44 -1.12,-0.448 -2.176,-0.448 -0.832,0 -1.408,0.352 -0.576,0.32 -0.576,1.056 0,0.704 0.608,1.056 0.64,0.352 2.336,0.768 1.792,0.48 3.008,0.96 1.248,0.48 2.016,1.088 0.768,0.576 1.12,1.344 0.352,0.768 0.352,1.824 0,2.496 -1.856,3.968 -1.856,1.472 -5.024,1.472 z" transform="translate(0 371.9350178783569) translate(535.84235 54.8704) scale(1.08) translate(-534.8275 17.12)"></path>
      <path id="path282" style="font-style: normal; font-weight: 800; font-size: 32px; line-height: 1; font-family: Raleway; font-variant-ligatures: none; text-align: center; text-anchor: middle; fill: rgb(255, 255, 255);" d="m 567.3225,0.32 q -2.144,0 -3.84,-0.704 -1.664,-0.704 -2.816,-1.888 -1.152,-1.216 -1.76,-2.784 -0.576,-1.6 -0.576,-3.328 0,-1.728 0.576,-3.296 0.608,-1.6 1.76,-2.784 1.152,-1.216 2.816,-1.92 1.696,-0.736 3.84,-0.736 2.144,0 3.808,0.736 1.664,0.704 2.816,1.92 1.152,1.184 1.76,2.784 0.608,1.568 0.608,3.296 0,1.728 -0.608,3.328 -0.576,1.568 -1.728,2.784 -1.152,1.184 -2.848,1.888 -1.664,0.704 -3.808,0.704 z m -3.744,-8.704 q 0,1.984 1.056,3.2 1.056,1.184 2.688,1.184 0.8,0 1.472,-0.32 0.672,-0.32 1.152,-0.896 0.512,-0.576 0.8,-1.376 0.288,-0.832 0.288,-1.792 0,-1.984 -1.056,-3.168 -1.056,-1.216 -2.656,-1.216 -0.8,0 -1.504,0.32 -0.672,0.32 -1.184,0.896 -0.48,0.576 -0.768,1.408 -0.288,0.8 -0.288,1.76 z" transform="translate(0 371.9350178783569) translate(561.22559 54.8704) scale(1.08) translate(-558.3305 17.12)"></path>
      <path id="path284" style="font-style: normal; font-weight: 800; font-size: 32px; line-height: 1; font-family: Raleway; font-variant-ligatures: none; text-align: center; text-anchor: middle; fill: rgb(255, 255, 255);" d="m 583.9105,0.32 q -2.592,0 -3.936,-1.6 -1.312,-1.632 -1.312,-4.768 V -16.8 h 5.12 v 9.632 q 0,1.536 0.608,2.368 0.608,0.8 1.728,0.8 1.024,0 1.984,-0.544 0.96,-0.544 1.696,-1.888 V -16.8 h 5.12 v 11.04 q 0,0.768 0.224,1.088 0.256,0.288 0.864,0.352 V 0 q -0.736,0.16 -1.248,0.192 -0.512,0.064 -0.928,0.064 -2.752,0 -3.136,-2.144 l -0.096,-1.024 q -1.152,1.664 -2.88,2.464 -1.696,0.768 -3.808,0.768 z" transform="translate(0 371.9350178783569) translate(583.18415 55.215999999999994) scale(1.08) translate(-578.6625 16.8)"></path>
      <path id="path286" style="font-style: normal; font-weight: 800; font-size: 32px; line-height: 1; font-family: Raleway; font-variant-ligatures: none; text-align: center; text-anchor: middle; fill: rgb(255, 255, 255);" d="m 609.541,-12.416 q -1.856,0.032 -3.36,0.608 -1.504,0.576 -2.176,1.728 V 0 h -5.12 v -16.8 h 4.704 v 3.392 q 0.864,-1.696 2.208,-2.656 1.376,-0.96 2.912,-0.992 0.352,0 0.512,0 0.16,0 0.32,0.032 z" transform="translate(0 371.9350178783569) translate(605.02445 54.93952) scale(1.08) translate(-598.885 17.056)"></path>
      <path id="path288" style="font-style: normal; font-weight: 800; font-size: 32px; line-height: 1; font-family: Raleway; font-variant-ligatures: none; text-align: center; text-anchor: middle; fill: rgb(255, 255, 255);" d="m 637.585,-5.824 q 0,1.472 -0.608,2.56 -0.608,1.088 -1.664,1.824 -1.056,0.704 -2.464,1.088 Q 631.441,0 629.873,0 h -11.072 v -22.72 h 12.64 q 1.184,0 2.144,0.512 0.96,0.512 1.632,1.344 0.672,0.8 1.024,1.856 0.384,1.024 0.384,2.112 0,1.632 -0.832,3.072 -0.8,1.44 -2.432,2.176 1.952,0.576 3.072,2.048 1.152,1.472 1.152,3.776 z m -5.344,-1.056 q 0,-1.056 -0.608,-1.792 -0.608,-0.736 -1.536,-0.736 h -6.048 v 4.96 h 5.824 q 1.024,0 1.696,-0.672 0.672,-0.672 0.672,-1.76 z m -8.192,-11.36 v 4.704 h 5.152 q 0.864,0 1.536,-0.576 0.672,-0.576 0.672,-1.792 0,-1.12 -0.608,-1.728 -0.576,-0.608 -1.408,-0.608 z" transform="translate(0 371.9350178783569) translate(626.5337300000001 48.8224) scale(1.08) translate(-618.801 22.72)"></path>
      <path id="path290" style="font-style: normal; font-weight: 800; font-size: 32px; line-height: 1; font-family: Raleway; font-variant-ligatures: none; text-align: center; text-anchor: middle; fill: rgb(255, 255, 255);" d="m 645.348,0.32 q -2.592,0 -3.936,-1.6 Q 640.1,-2.912 640.1,-6.048 V -16.8 h 5.12 v 9.632 q 0,1.536 0.608,2.368 0.608,0.8 1.728,0.8 1.024,0 1.984,-0.544 0.96,-0.544 1.696,-1.888 V -16.8 h 5.12 v 11.04 q 0,0.768 0.224,1.088 0.256,0.288 0.864,0.352 V 0 q -0.736,0.16 -1.248,0.192 -0.512,0.064 -0.928,0.064 -2.752,0 -3.136,-2.144 l -0.096,-1.024 q -1.152,1.664 -2.88,2.464 -1.696,0.768 -3.808,0.768 z" transform="translate(0 371.9350178783569) translate(649.53665 55.215999999999994) scale(1.08) translate(-640.1 16.8)"></path>
      <path id="path292" style="font-style: normal; font-weight: 800; font-size: 32px; line-height: 1; font-family: Raleway; font-variant-ligatures: none; text-align: center; text-anchor: middle; fill: rgb(255, 255, 255);" d="m 666.9465,0.32 q -2.144,0 -4.224,-0.672 -2.08,-0.704 -3.52,-2.016 l 1.824,-3.136 q 1.536,1.056 2.976,1.632 1.472,0.576 2.816,0.576 0.992,0 1.536,-0.352 0.544,-0.352 0.544,-1.024 0,-0.672 -0.704,-1.056 -0.672,-0.416 -2.4,-0.864 -1.696,-0.48 -2.88,-0.928 -1.152,-0.448 -1.888,-0.992 -0.736,-0.544 -1.056,-1.248 -0.32,-0.704 -0.32,-1.664 0,-1.28 0.512,-2.336 0.512,-1.056 1.408,-1.792 0.896,-0.736 2.112,-1.152 1.248,-0.416 2.688,-0.416 1.888,0 3.52,0.512 1.664,0.512 3.2,1.856 l -1.984,3.072 q -1.44,-0.992 -2.56,-1.44 -1.12,-0.448 -2.176,-0.448 -0.832,0 -1.408,0.352 -0.576,0.32 -0.576,1.056 0,0.704 0.608,1.056 0.64,0.352 2.336,0.768 1.792,0.48 3.008,0.96 1.248,0.48 2.016,1.088 0.768,0.576 1.12,1.344 0.352,0.768 0.352,1.824 0,2.496 -1.856,3.968 -1.856,1.472 -5.024,1.472 z" transform="translate(0 371.9350178783569) translate(670.1673499999999 54.8704) scale(1.08) translate(-659.2025 17.12)"></path>
      <path id="path294" style="font-style: normal; font-weight: 800; font-size: 32px; line-height: 1; font-family: Raleway; font-variant-ligatures: none; text-align: center; text-anchor: middle; fill: rgb(255, 255, 255);" d="m 676.26,0 v -16.8 h 5.12 V 0 Z m 0,-18.72 v -4.64 h 5.12 v 4.64 z" transform="translate(0 371.9350178783569) translate(688.5894499999998 48.1312) scale(1.08) translate(-676.26 23.36)"></path>
      <path id="path296" style="font-style: normal; font-weight: 800; font-size: 32px; line-height: 1; font-family: Raleway; font-variant-ligatures: none; text-align: center; text-anchor: middle; fill: rgb(255, 255, 255);" d="m 701.077,0 h -5.12 v -9.44 q 0,-1.664 -0.64,-2.4 -0.608,-0.768 -1.632,-0.768 -0.544,0 -1.088,0.224 -0.544,0.224 -1.056,0.64 -0.512,0.384 -0.928,0.928 -0.384,0.544 -0.608,1.184 V 0 h -5.12 v -16.8 h 4.608 v 2.816 q 0.928,-1.504 2.624,-2.304 1.696,-0.832 3.904,-0.832 1.632,0 2.624,0.608 0.992,0.576 1.536,1.536 0.544,0.928 0.704,2.048 0.192,1.12 0.192,2.176 z" transform="translate(0 371.9350178783569) translate(697.9044499999998 54.8704) scale(1.08) translate(-684.885 17.12)"></path>
      <path id="path298" style="font-style: normal; font-weight: 800; font-size: 32px; line-height: 1; font-family: Raleway; font-variant-ligatures: none; text-align: center; text-anchor: middle; fill: rgb(255, 255, 255);" d="m 712.4795,0.32 q -2.112,0 -3.808,-0.672 -1.664,-0.704 -2.848,-1.888 -1.152,-1.184 -1.76,-2.72 -0.608,-1.568 -0.608,-3.264 0,-1.824 0.608,-3.424 0.608,-1.632 1.76,-2.848 1.152,-1.216 2.816,-1.92 1.696,-0.704 3.84,-0.704 2.144,0 3.808,0.704 1.664,0.704 2.816,1.92 1.152,1.184 1.728,2.752 0.608,1.568 0.608,3.296 0,0.448 -0.032,0.896 -0.032,0.416 -0.096,0.736 h -12.416 q 0.128,1.696 1.216,2.592 1.12,0.864 2.528,0.864 1.12,0 2.144,-0.544 1.056,-0.544 1.408,-1.472 l 4.352,1.216 q -0.992,1.984 -3.072,3.232 -2.08,1.248 -4.992,1.248 z m 3.552,-10.304 q -0.16,-1.6 -1.152,-2.528 -0.992,-0.928 -2.464,-0.928 -1.504,0 -2.496,0.96 -0.96,0.928 -1.12,2.496 z" transform="translate(0 371.9350178783569) translate(717.9605899999998 54.8704) scale(1.08) translate(-703.4555 17.12)"></path>
      <path id="path300" style="font-style: normal; font-weight: 800; font-size: 32px; line-height: 1; font-family: Raleway; font-variant-ligatures: none; text-align: center; text-anchor: middle; fill: rgb(255, 255, 255);" d="m 730.384,0.32 q -2.144,0 -4.224,-0.672 -2.08,-0.704 -3.52,-2.016 l 1.824,-3.136 q 1.536,1.056 2.976,1.632 1.472,0.576 2.816,0.576 0.992,0 1.536,-0.352 0.544,-0.352 0.544,-1.024 0,-0.672 -0.704,-1.056 -0.672,-0.416 -2.4,-0.864 -1.696,-0.48 -2.88,-0.928 -1.152,-0.448 -1.888,-0.992 -0.736,-0.544 -1.056,-1.248 -0.32,-0.704 -0.32,-1.664 0,-1.28 0.512,-2.336 0.512,-1.056 1.408,-1.792 0.896,-0.736 2.112,-1.152 1.248,-0.416 2.688,-0.416 1.888,0 3.52,0.512 1.664,0.512 3.2,1.856 l -1.984,3.072 q -1.44,-0.992 -2.56,-1.44 -1.12,-0.448 -2.176,-0.448 -0.832,0 -1.408,0.352 -0.576,0.32 -0.576,1.056 0,0.704 0.608,1.056 0.64,0.352 2.336,0.768 1.792,0.48 3.008,0.96 1.248,0.48 2.016,1.088 0.768,0.576 1.12,1.344 0.352,0.768 0.352,1.824 0,2.496 -1.856,3.968 -1.856,1.472 -5.024,1.472 z" transform="translate(0 371.9350178783569) translate(738.6798499999998 54.8704) scale(1.08) translate(-722.64 17.12)"></path>
      <path id="path302" style="font-style: normal; font-weight: 800; font-size: 32px; line-height: 1; font-family: Raleway; font-variant-ligatures: none; text-align: center; text-anchor: middle; fill: rgb(255, 255, 255);" d="m 746.3215,0.32 q -2.144,0 -4.224,-0.672 -2.08,-0.704 -3.52,-2.016 l 1.824,-3.136 q 1.536,1.056 2.976,1.632 1.472,0.576 2.816,0.576 0.992,0 1.536,-0.352 0.544,-0.352 0.544,-1.024 0,-0.672 -0.704,-1.056 -0.672,-0.416 -2.4,-0.864 -1.696,-0.48 -2.88,-0.928 -1.152,-0.448 -1.888,-0.992 -0.736,-0.544 -1.056,-1.248 -0.32,-0.704 -0.32,-1.664 0,-1.28 0.512,-2.336 0.512,-1.056 1.408,-1.792 0.896,-0.736 2.112,-1.152 1.248,-0.416 2.688,-0.416 1.888,0 3.52,0.512 1.664,0.512 3.2,1.856 l -1.984,3.072 q -1.44,-0.992 -2.56,-1.44 -1.12,-0.448 -2.176,-0.448 -0.832,0 -1.408,0.352 -0.576,0.32 -0.576,1.056 0,0.704 0.608,1.056 0.64,0.352 2.336,0.768 1.792,0.48 3.008,0.96 1.248,0.48 2.016,1.088 0.768,0.576 1.12,1.344 0.352,0.768 0.352,1.824 0,2.496 -1.856,3.968 -1.856,1.472 -5.024,1.472 z" transform="translate(0 371.9350178783569) translate(755.8923499999997 54.8704) scale(1.08) translate(-738.5775 17.12)"></path>
    </g>
  </g>
</svg>