<?xml version="1.0"?>
							<svg xmlns="http://www.w3.org/2000/svg" xmlns:xlink="http://www.w3.org/1999/xlink" id="Gradient" viewBox="0 0 512 512"><defs><linearGradient id="linear-gradient" x1="256" y1="488" x2="256" y2="24" gradientUnits="userSpaceOnUse"><stop offset="0" stop-color="#27c1e6"/><stop offset="0.5" stop-color="#c275e9"/><stop offset="1" stop-color="#f2515d"/></linearGradient></defs><path d="M496,256a8,8,0,0,0-4.136-7L417.561,208l3.184-1.757a8,8,0,0,0-7.728-14.01l-12.824,7.075c-.524.289-5.134,2.9-6.2,4.828a8,8,0,0,0,3.141,10.869l74.3,41L256,374.863,40.561,256l74.3-40.995A8,8,0,0,0,118,204.136c-1.064-1.93-5.673-4.539-6.2-4.827l-12.824-7.076a8,8,0,0,0-7.729,14.01L94.439,208l-74.3,41a8,8,0,0,0,0,14.01l74.3,41-74.3,41a8,8,0,0,0,0,14.01l232,128a8,8,0,0,0,7.73,0l232-128a8,8,0,0,0,0-14.01L417.561,304l74.3-40.995A8,8,0,0,0,496,256Zm-24.561,96L256,470.863,40.561,352,111,313.137l141.135,77.868a8,8,0,0,0,7.73,0L401,313.137ZM241.991,39.729a8,8,0,0,1,3.14-10.87l7-3.864a8,8,0,0,1,7.728,0l7.005,3.864a8,8,0,1,1-7.729,14.01L256,41.137l-3.14,1.732A8,8,0,0,1,241.991,39.729Zm39.655,6.419a8,8,0,0,1,10.87-3.139l12.823,7.075a8,8,0,1,1-7.731,14.01l-12.822-7.075A8,8,0,0,1,281.646,46.148Zm38.468,21.226a8,8,0,0,1,10.869-3.141l12.824,7.075a8,8,0,1,1-7.729,14.009l-12.823-7.074A8,8,0,0,1,320.114,67.374Zm76.939,42.448a8,8,0,0,1,10.869-3.14l12.822,7.074a8,8,0,1,1-7.728,14.01l-12.823-7.075A8,8,0,0,1,397.053,109.822Zm38.468,21.225a8,8,0,0,1,10.87-3.141l12.823,7.074a8,8,0,1,1-7.729,14.01l-12.823-7.074A8,8,0,0,1,435.521,131.047ZM358.583,88.6a8,8,0,0,1,10.87-3.141l12.823,7.075a8,8,0,1,1-7.73,14.01l-12.822-7.075A8,8,0,0,1,358.583,88.6ZM473.989,160a8,8,0,0,1,10.87-10.869l7,3.864a8,8,0,0,1,0,14.01l-7,3.864A8,8,0,0,1,473.989,160Zm-88.572,56.6a8,8,0,0,1-3.141,10.869l-12.822,7.075a8,8,0,0,1-7.73-14.01l12.823-7.075A8,8,0,0,1,385.417,216.6ZM281.646,273.85a8,8,0,0,1,3.14-10.87l12.823-7.074a8,8,0,1,1,7.729,14.01l-12.823,7.074a8,8,0,0,1-10.869-3.14Zm65.3-36.028a8,8,0,0,1-3.14,10.869l-12.823,7.075a8,8,0,1,1-7.728-14.01l12.822-7.074A8,8,0,0,1,346.947,237.822Zm88.574-48.868a8,8,0,0,1,3.14-10.87l12.823-7.075a8,8,0,1,1,7.73,14.01l-12.822,7.075a8,8,0,0,1-10.871-3.14Zm-193.53,91.317a8,8,0,0,1,10.869-3.14l3.14,1.732,3.14-1.732a8,8,0,0,1,7.729,14.01l-7.005,3.864a8,8,0,0,1-7.728,0l-7-3.864A8,8,0,0,1,241.991,280.271ZM76.479,188.953a8,8,0,0,1-10.87,3.141L52.787,185.02a8,8,0,1,1,7.728-14.01l12.823,7.074A8,8,0,0,1,76.479,188.953Zm76.937,42.45a8,8,0,0,1-10.869,3.14l-12.823-7.075a8,8,0,1,1,7.73-14.01l12.822,7.075A8,8,0,0,1,153.416,231.4Zm38.47,21.223a7.995,7.995,0,0,1-10.869,3.141l-12.824-7.075a8,8,0,0,1,7.729-14.009l12.823,7.074A8,8,0,0,1,191.886,252.626Zm38.468,21.226a8,8,0,0,1-10.869,3.139l-12.823-7.075a8,8,0,1,1,7.73-14.01l12.822,7.075A8,8,0,0,1,230.354,273.852ZM16,160a8,8,0,0,1,4.136-7l7-3.864A8,8,0,0,1,38.01,160a8,8,0,0,1-10.87,10.869l-7-3.864A8,8,0,0,1,16,160Zm72.114-35.374a8,8,0,0,1,3.141-10.869l12.823-7.074a8,8,0,1,1,7.729,14.009l-12.824,7.075a7.995,7.995,0,0,1-10.869-3.141ZM49.646,145.852a8,8,0,0,1,3.14-10.871l12.822-7.075a8,8,0,1,1,7.73,14.01l-12.823,7.075a8,8,0,0,1-10.869-3.139ZM165.053,82.179a8,8,0,0,1,3.139-10.87l12.824-7.076a8,8,0,0,1,7.729,14.01l-12.823,7.075a8,8,0,0,1-10.869-3.139Zm38.468-21.226a8,8,0,0,1,3.141-10.869l12.823-7.074a8,8,0,1,1,7.728,14.01l-12.822,7.074a8,8,0,0,1-10.87-3.141ZM126.584,103.4a8,8,0,0,1,3.14-10.87l12.822-7.075a8,8,0,1,1,7.73,14.01l-12.823,7.075a8,8,0,0,1-10.869-3.14Z" style="fill:url(#linear-gradient)"/></svg>