<?xml version="1.0" encoding="iso-8859-1"?>
							<svg version="1.1" id="Capa_1" xmlns="http://www.w3.org/2000/svg" xmlns:xlink="http://www.w3.org/1999/xlink" x="0px" y="0px"
								 viewBox="0 0 496 496" style="enable-background:new 0 0 496 496;" xml:space="preserve">
							<path style="fill:#E2E2E2;" d="M456,56c17.672,0,32,14.328,32,32v360c0,25.672-14.328,40-32,40H40c-17.672,0-32-14.328-32-40V88
								c0-17.672,14.328-32,32-32H456z"/>
							<path style="fill:#8C95A4;" d="M488,440v8c0,25.672-14.328,40-32,40H40c-17.672,0-32-14.328-32-40v-8H488z"/>
							<path style="fill:#798699;" d="M456,464H40c-13.552,0-25.072-8.488-29.736-24H8v8c0,25.672,14.328,40,32,40h416
								c17.672,0,32-14.328,32-40v-8h-2.264C481.072,455.512,469.552,464,456,464z"/>
							<rect x="40" y="88" style="fill:#39C3FC;" width="416" height="176"/>
							<polygon style="fill:#148CE0;" points="40,240 40,264 456,264 456,259.712 456,253.712 456,240 "/>
							<rect x="56" y="264" style="fill:#8C95A4;" width="384" height="144"/>
							<polygon style="fill:#F4F4F4;" points="88,8 88,232 320,232 320,192 320,136 320,8 "/>
							<polygon style="fill:#FB5968;" points="88,8 88,72 320,72 320,60.568 320,44.568 320,8 "/>
							<rect x="120" y="168" style="fill:#FCD770;" width="152" height="32"/>
							<polygon style="fill:#F4F4F4;" points="304,208 328,184 360,216 384,192 352,160 376,136 304,136 "/>
							<path d="M456,48H328V0H80v48H40C17.944,48,0,65.944,0,88v360c0,28.264,16.448,48,40,48h416c23.552,0,40-19.736,40-48V88
								C496,65.944,478.056,48,456,48z M372.688,192L360,204.688l-32-32l-16,16V144h44.688l-16,16L372.688,192z M296,128v96H96V80h216v48
								H296z M312,211.312V224h-12.688L312,211.312z M312,16v48H96V16H312z M40,64h40v16H32v160h16V96h32v144h248v-44.688l32,32
								L395.312,192l-32-32l32-32H328V96h120v144h16V80H328V64h128c13.232,0,24,10.768,24,24v168H16V88C16,74.768,26.768,64,40,64z M96,272
								v32H64v-32H96z M64,320h32v32H64V320z M112,320h32v32h-32V320z M160,320h32v32h-32V320z M208,320h32v32h-32V320z M256,320h32v32h-32
								V320z M304,320h32v32h-32V320z M352,320h32v32h-32V320z M352,304v-32h32v32H352z M336,304h-32v-32h32V304z M288,304h-32v-32h32V304z
								 M240,304h-32v-32h32V304z M192,304h-32v-32h32V304z M144,304h-32v-32h32V304z M64,368h32v32H64V368z M112,368h32v32h-32V368z
								 M160,368h176v32H160V368z M352,368h32v32h-32V368z M400,368h32v32h-32V368z M432,352h-32v-32h32V352z M432,304h-32v-32h32V304z
								 M456,480H40c-14.576,0-24-12.56-24-32h434.592v-16H16V272h32v144h400V272h32v160h-16.112v16H480C480,467.44,470.576,480,456,480z"
								/>
							<rect x="112" y="96" width="184" height="16"/>
							<rect x="216" y="128" width="64" height="16"/>
							<rect x="112" y="128" width="72" height="16"/>
							<path d="M112,208h168v-48H112V208z M128,176h136v16H128V176z"/>
							<rect x="112" y="32" width="16" height="16"/>
							<rect x="144" y="32" width="16" height="16"/>
							<rect x="176" y="32" width="16" height="16"/>
							<g>
							</g>
							<g>
							</g>
							<g>
							</g>
							<g>
							</g>
							<g>
							</g>
							<g>
							</g>
							<g>
							</g>
							<g>
							</g>
							<g>
							</g>
							<g>
							</g>
							<g>
							</g>
							<g>
							</g>
							<g>
							</g>
							<g>
							</g>
							<g>
							</g>
							</svg>