<svg width="500" height="495" style="transition: none 0s ease 0s; text-align: inherit; line-height: 10px; border-width: 0px; margin: 0px; padding: 0px; letter-spacing: 0px; font-weight: 300; font-size: 6px;">
                                <g style="transition: none 0s ease 0s; text-align: inherit; line-height: 9px; border-width: 0px; margin: 0px; padding: 0px; letter-spacing: 0px; font-weight: 300; font-size: 6px;">
                                    <clipPath id="clipPolygon" style="transition: none 0s ease 0s; text-align: inherit; line-height: 7px; border-width: 0px; margin: 0px; padding: 0px; letter-spacing: 0px; font-weight: 300; font-size: 5px;">
                                        <polygon points="186 13,164 17,150 19,118 27,92 36,78 44,59 57,39 78,26 98,18 118,14 133,12 143,9 159,9 174,12 191,15 207,18 219,22 231,28 244,38 267,50 290,65 313,82 337,97 356,109 369,126 385,138 397,156 411,176 422,192 427,211 431,226 433,244 431,258 428,272 423,286 417,298 409,315 397,336 374,349 357,363 335,380 306,394 277,405 250,414 224,423 196,427 178,429 162,429 140,426 122,420 100,413 86,404 72,391 57,373 42,355 32,333 24,307 18,278 13,249 11,207 11,182 14" style="transition: none 0s ease 0s; text-align: inherit; line-height: 6px; border-width: 0px; margin: 0px; padding: 0px; letter-spacing: 0px; font-weight: 300; font-size: 4px;">
                                        </polygon>
                                    </clipPath>
                                </g>

                            </svg>