<svg xmlns:dc="http://purl.org/dc/elements/1.1/" xmlns:cc="http://creativecommons.org/ns#" xmlns:rdf="http://www.w3.org/1999/02/22-rdf-syntax-ns#" xmlns:svg="http://www.w3.org/2000/svg" xmlns="http://www.w3.org/2000/svg" xmlns:xlink="http://www.w3.org/1999/xlink" id="svg76361" viewBox="247 310 532 145" version="1.1">
  <metadata id="metadata76367">
    <rdf:rdf>
      <cc:work rdf:about="">
        <dc:format>image/svg+xml</dc:format>
        <dc:type rdf:resource="http://purl.org/dc/dcmitype/StillImage"></dc:type>
      </cc:work>
    </rdf:rdf>
  </metadata>
  <defs id="defs76365"></defs>
  <g id="logo-group">
    <image xlink:href="../nounpreview/676600.png" id="icon" width="200" height="200" x="412" y="0" style="display: none;"></image>
    <g id="title" style="font-style:normal;font-weight:700;font-size:72px;line-height:1;font-family:'Comfortaa Bold Alt1';font-variant-ligatures:none;text-align:center;text-anchor:middle">
      <path id="path76369" style="font-style: normal; font-weight: 700; font-size: 72px; line-height: 1; font-family: &quot;Comfortaa Bold Alt1&quot;; font-variant-ligatures: none; text-align: center; text-anchor: middle; fill: rgb(255, 255, 255);" d="m 389.79687,-33.046875 h -7.3125 v 28.125 q 0,1.125 1.05469,1.96875 1.05469,0.84375 2.46094,0.84375 V 0 h -16.17188 v -2.109375 q 1.40625,0 2.46094,-0.7734375 1.05469,-0.8085938 1.05469,-2.0390625 V -8.4375 q -1.6875,2.0390625 -4.53516,3.1289063 -2.8125,1.0898437 -6.01172,1.0898437 -5.76562,0 -9.91406,-3.7265625 -4.14844,-3.7265625 -4.14844,-8.9296875 0,-5.238281 4.07813,-8.929687 4.11328,-3.726563 9.98437,-3.726563 7.06641,0 10.54688,4.21875 v -7.734375 H 346.69531 V -36.5625 h 43.10156 z M 373.34375,-11.25 V -22.5 q -2.77734,-2.8125 -6.32813,-2.8125 -3.76171,0 -6.46875,2.425781 -2.67187,2.390625 -2.67187,6.011719 0,3.621094 2.67187,6.046875 2.70704,2.390625 6.46875,2.390625 3.44532,0 6.32813,-2.8125 z" transform="translate(0 290.7828123601547) translate(252 49.23282983680782) scale(1.482520893352265) translate(-346.69531 36.5625)"></path>
      <path id="path76371" style="font-style: normal; font-weight: 700; font-size: 72px; line-height: 1; font-family: &quot;Comfortaa Bold Alt1&quot;; font-variant-ligatures: none; text-align: center; text-anchor: middle; fill: rgb(255, 255, 255);" d="m 382.48437,-37.96875 h -8.4375 q -1.96875,0 -4.21875,-2.109375 l -9.84375,-9.140625 Q 358.47266,-50.625 355.0625,-50.625 H 352.25 v -2.8125 h 9.84375 q 2.56641,0 4.92187,2.109375 l 10.19532,9.140625 q 2.35547,2.109375 3.86718,2.109375 h 1.40625 z" transform="translate(0 290.7828123601547) translate(263.19998576779943 24.21528976148835) scale(1.482520893352265) translate(-352.25 53.4375)"></path>
      <path id="path76373" style="font-style: normal; font-weight: 700; font-size: 72px; line-height: 1; font-family: &quot;Comfortaa Bold Alt1&quot;; font-variant-ligatures: none; text-align: center; text-anchor: middle; fill: rgb(255, 255, 255);" d="m 430.29687,-33.046875 h -7.3125 v 28.125 q 0,1.125 1.05469,1.96875 1.05469,0.84375 2.46094,0.84375 V 0 h -16.17188 v -2.109375 q 1.40625,0 2.46094,-0.7734375 1.05469,-0.8085938 1.05469,-2.0390625 V -8.4375 q -1.6875,2.0390625 -4.53516,3.1289063 -2.8125,1.0898437 -6.01172,1.0898437 -5.76562,0 -9.91406,-3.7265625 -4.14844,-3.7265625 -4.14844,-8.9296875 0,-5.238281 4.07813,-8.929687 4.11328,-3.726563 9.98437,-3.726563 6.25782,0 10.54688,3.515625 v -7.03125 H 387.19531 V -36.5625 h 43.10156 z m -16.45312,19.6875 V -22.5 q -2.77734,-2.8125 -6.32813,-2.8125 -3.90234,0 -5.625,1.40625 z m -1.40625,2.8125 -12.65625,-11.25 q -1.40625,1.898438 -1.40625,4.921875 0,3.621094 2.67187,6.046875 2.70704,2.390625 6.46875,2.390625 2.8125,0 4.92188,-2.109375 z" transform="translate(0 290.7828123601547) translate(317.9721797541758 49.23282983680782) scale(1.482520893352265) translate(-387.19531 36.5625)"></path>
      <path id="path76375" style="font-style: normal; font-weight: 700; font-size: 72px; line-height: 1; font-family: &quot;Comfortaa Bold Alt1&quot;; font-variant-ligatures: none; text-align: center; text-anchor: middle; fill: rgb(255, 255, 255);" d="m 463.69531,-33.046875 h -7.3125 v 27.3515625 q 0,3.5859375 3.51563,3.5859375 V 0 h -16.17188 v -2.109375 q 3.51563,0 3.51563,-3.5859375 V -33.046875 h -5.0625 V -36.5625 h 21.51562 z m 26.01563,-4.21875 h -9.14063 q -2.07422,-5.765625 -6.67969,-9.210937 -4.60546,-3.445313 -10.19531,-3.445313 -3.90234,0 -6.71484,2.285156 -2.77735,2.25 -2.77735,5.449219 0,2.460938 2.10938,4.921875 h -9.14063 q -2.10937,-2.460937 -2.10937,-4.921875 0,-4.851562 5.97656,-7.699219 5.97656,-2.847656 13.00781,-2.847656 9.07032,0 16.06641,4.21875 7.03125,4.21875 9.59766,11.25 z" transform="translate(0 290.7828123601547) translate(402.4527136989007 25.257687264626654) scale(1.482520893352265) translate(-442.17969 52.734375)"></path>
      <path id="path76377" style="font-style: normal; font-weight: 700; font-size: 72px; line-height: 1; font-family: &quot;Comfortaa Bold Alt1&quot;; font-variant-ligatures: none; text-align: center; text-anchor: middle; fill: rgb(255, 255, 255);" d="m 501.38281,-33.046875 h -7.66406 v 7.734375 h -11.25 q -1.79297,0 -3.02344,1.054688 -1.19531,1.019531 -1.19531,2.460937 0,1.160156 1.47656,2.003906 1.51172,0.808594 3.44531,0.808594 h 5.625 q 3.48047,0 5.94141,2.214844 2.49609,2.214843 2.49609,5.519531 0,4.9921875 -4.85156,8.1210937 Q 487.53125,0 481.41406,0 474.875,0 469.46094,-4.640625 464.04687,-9.28125 462.07812,-16.523437 l 2.46094,-1.054688 q 1.58203,5.835937 5.76563,9.5976563 4.21875,3.7617187 9.35156,3.7617187 3.44531,0 5.94141,-1.8632812 2.49609,-1.8632813 2.49609,-4.4648438 0,-2.390625 -2.03906,-4.007813 -2.00391,-1.617187 -4.99219,-1.617187 h -4.21875 q -3.19922,0 -5.48438,-1.863281 -2.25,-1.898438 -2.25,-4.464844 0,-2.355469 2.8125,-3.972656 2.84766,-1.652344 7.03125,-1.652344 h 5.625 v -4.921875 H 461.02344 V -36.5625 h 40.35937 z" transform="translate(0 290.7828123601547) translate(433.354008569712 49.23282983680782) scale(1.482520893352265) translate(-461.02344 36.5625)"></path>
      <path id="path76379" style="font-style: normal; font-weight: 700; font-size: 72px; line-height: 1; font-family: &quot;Comfortaa Bold Alt1&quot;; font-variant-ligatures: none; text-align: center; text-anchor: middle; fill: rgb(255, 255, 255);" d="m 549.89844,-33.046875 h -7.3125 v 28.125 q 0,1.125 1.05468,1.96875 1.05469,0.84375 2.46094,0.84375 V 0 h -16.17187 v -2.109375 q 1.40625,0 2.46093,-0.7734375 1.05469,-0.8085938 1.05469,-2.0390625 V -22.5 h -10.54687 v 0.210938 q 7.03125,2.8125 7.03125,9.984374 0,4.2539067 -3.65625,7.242188 -3.6211,2.953125 -8.64844,2.953125 -7.06641,0 -12.16406,-6.5742188 -5.0625,-6.6093752 -5.0625,-15.9257812 h 2.10937 q 0.63281,6.996094 4.14844,11.777344 3.55078,4.7460935 8.15625,4.7460935 2.56641,0 4.25391,-2.0390625 1.72265,-2.039063 1.72265,-4.992188 0,-3.023437 -2.14453,-5.203124 Q 516.53516,-22.5 513.54687,-22.5 h -1.89843 v -2.8125 h 21.79687 v -7.734375 H 498.71094 V -36.5625 h 51.1875 z" transform="translate(0 290.7828123601547) translate(492.19155652462996 49.23282983680782) scale(1.482520893352265) translate(-498.71094 36.5625)"></path>
      <path id="path76381" style="font-style: normal; font-weight: 700; font-size: 72px; line-height: 1; font-family: &quot;Comfortaa Bold Alt1&quot;; font-variant-ligatures: none; text-align: center; text-anchor: middle; fill: rgb(255, 255, 255);" d="m 568.74219,-33.046875 h -7.3125 v 27.3515625 q 0,3.5859375 3.51562,3.5859375 V 0 h -16.17187 v -2.109375 q 3.51562,0 3.51562,-3.5859375 V -33.046875 h -5.0625 V -36.5625 h 21.51563 z" transform="translate(0 290.7828123601547) translate(567.0820186152735 49.23282983680782) scale(1.482520893352265) translate(-547.22656 36.5625)"></path>
      <path id="path76383" style="font-style: normal; font-weight: 700; font-size: 72px; line-height: 1; font-family: &quot;Comfortaa Bold Alt1&quot;; font-variant-ligatures: none; text-align: center; text-anchor: middle; fill: rgb(255, 255, 255);" d="m 601.85937,-33.046875 h -9.28125 v 7.3125 h -9.14062 q -2.42578,0 -4.04297,1.019531 -1.58203,0.984375 -1.58203,2.777344 0,1.511719 1.26562,2.425781 1.26563,0.878907 3.09375,0.878907 1.08985,0 3.16407,-0.175782 2.10937,-0.175781 3.02343,-0.175781 7.59375,0 7.59375,5.625 0,4.1835937 -3.05859,6.6445313 -3.02344,2.4257812 -8.33203,2.4257812 h -3.09375 q 1.26562,1.4765625 3.51562,2.8125 2.28516,1.3359375 3.79688,1.3359375 1.54687,0 3.375,-0.984375 l 1.05469,1.40625 q -4.1836,3.796875 -8.4375,3.796875 -4.71094,0 -9,-4.4296875 -3.76172,-3.9375 -5.27344,-5.3789062 -1.47656,-1.4414063 -2.88281,-1.6523438 v -2.109375 h 10.05468 q 0.70313,1.3007812 2.03907,3.09375 2.95312,0 5.09765,-1.40625 2.14453,-1.4414063 2.14453,-3.7968755 0,-2.109375 -1.58203,-3.339843 -1.58203,-1.230469 -4.04297,-1.230469 h -5.625 q -2.74218,0 -4.88671,-1.828125 -2.14454,-1.863281 -2.14454,-4.5 0,-2.671875 2.07422,-4.394531 2.07422,-1.722656 4.95703,-1.722656 h 7.73438 v -4.429688 H 566.07031 V -36.5625 h 35.78906 z" transform="translate(0 290.7828123601547) translate(597.9833134860847 49.23282983680782) scale(1.482520893352265) translate(-566.07031 36.5625)"></path>
      <path id="path76385" style="font-style: normal; font-weight: 700; font-size: 72px; line-height: 1; font-family: &quot;Comfortaa Bold Alt1&quot;; font-variant-ligatures: none; text-align: center; text-anchor: middle; fill: rgb(255, 255, 255);" d="m 650.09375,-33.046875 h -7.3125 v 28.125 q 0,1.125 1.05469,1.96875 1.05468,0.84375 2.46093,0.84375 V 0 H 630.125 v -2.109375 q 1.40625,0 2.46094,-0.7734375 1.05468,-0.8085938 1.05468,-2.0390625 V -18.28125 q -3.02343,-2.460937 -10.89843,-3.867187 2.53125,1.441406 3.90234,3.796875 1.37109,2.320312 1.37109,4.992187 0,4.9570312 -3.90234,8.4726563 -3.86719,3.4804687 -9.45703,3.4804687 -5.51953,0 -9.45703,-3.515625 -3.90235,-3.5507813 -3.90235,-8.4375 0,-5.238281 3.86719,-8.929687 3.90235,-3.726563 9.49219,-3.726563 11.10937,0 18.98437,4.570313 V -33.046875 H 599.25781 V -36.5625 h 50.83594 z m -35.4375,9.84375 q -2.28516,0 -3.97266,2.707031 -1.65234,2.707032 -1.65234,6.433594 0,4.042969 1.65234,6.9609375 1.6875,2.8828125 3.97266,2.8828125 2.35547,0 3.97266,-2.8125 1.65234,-2.8476563 1.65234,-7.03125 0,-3.867187 -1.65234,-6.503906 -1.61719,-2.636719 -3.97266,-2.636719 z" transform="translate(0 290.7828123601547) translate(650.1495174209177 49.23282983680782) scale(1.482520893352265) translate(-599.25781 36.5625)"></path>
      <path id="path76387" style="font-style: normal; font-weight: 700; font-size: 72px; line-height: 1; font-family: &quot;Comfortaa Bold Alt1&quot;; font-variant-ligatures: none; text-align: center; text-anchor: middle; fill: rgb(255, 255, 255);" d="m 679.44922,-33.046875 h -17.96485 v 0.351563 q 5.41407,0.492187 9.03516,3.621093 3.62109,3.09375 3.62109,7.277344 0,3.9375 -3.41015,7.136719 -3.41016,3.199218 -8.54297,4.113281 5.27344,5.2734375 7.38281,5.2734375 2.56641,0 4.57031,-2.4609375 l 1.40625,1.7578125 q -1.93359,2.7773437 -4.60546,4.3945313 Q 668.30469,0 665.70312,0 q -3.51562,0 -8.4375,-4.921875 -7.03125,-7.03125 -9.14062,-7.03125 l 0.70312,-2.109375 q 2.14454,0.703125 6.32813,0.703125 4.04297,0 6.92578,-2.636719 Q 665,-18.632812 665,-22.5 q 0,-4.5 -3.58594,-7.523437 -3.55078,-3.023438 -8.36719,-3.023438 h -5.55468 V -36.5625 h 31.95703 z" transform="translate(0 290.7828123601547) translate(724.623035335515 49.23282983680782) scale(1.482520893352265) translate(-647.49219 36.5625)"></path>
    </g>
    <g id="tagline" style="font-style:normal;font-weight:500;font-size:32px;line-height:1;font-family:Raleway;font-variant-ligatures:none;text-align:center;text-anchor:middle">
      <path id="path76390" style="font-style: normal; font-weight: 500; font-size: 32px; line-height: 1; font-family: Raleway; font-variant-ligatures: none; text-align: center; text-anchor: middle; fill: rgb(255, 255, 255);" d="m 298.3475,-5.856 q 0,1.312 -0.544,2.4 -0.512,1.088 -1.44,1.856 -0.896,0.768 -2.112,1.184 Q 293.0675,0 291.6915,0 h -10.784 v -22.72 h 11.296 q 1.184,0 2.144,0.512 0.96,0.512 1.632,1.344 0.672,0.8 1.024,1.856 0.384,1.024 0.384,2.08 0,1.696 -0.864,3.136 -0.832,1.44 -2.4,2.144 1.952,0.576 3.072,2.144 1.152,1.536 1.152,3.648 z m -2.912,-0.512 q 0,-0.768 -0.288,-1.472 -0.256,-0.736 -0.736,-1.28 -0.448,-0.544 -1.088,-0.864 -0.64,-0.32 -1.408,-0.32 h -8.128 v 7.808 h 7.904 q 0.8,0 1.472,-0.32 0.672,-0.32 1.184,-0.832 0.512,-0.544 0.8,-1.248 0.288,-0.704 0.288,-1.472 z m -11.648,-13.856 v 7.584 h 7.232 q 0.768,0 1.408,-0.288 0.64,-0.32 1.088,-0.832 0.48,-0.512 0.736,-1.184 0.288,-0.704 0.288,-1.472 0,-0.8 -0.256,-1.504 -0.256,-0.704 -0.704,-1.216 -0.416,-0.512 -1.056,-0.8 -0.608,-0.288 -1.312,-0.288 z" transform="translate(0 371.9350178783569) translate(261.5239700000001 48.8224) scale(1.08) translate(-280.9075 22.72)"></path>
      <path id="path76392" style="font-style: normal; font-weight: 500; font-size: 32px; line-height: 1; font-family: Raleway; font-variant-ligatures: none; text-align: center; text-anchor: middle; fill: rgb(255, 255, 255);" d="m 307.1115,0.32 q -2.624,0 -3.968,-1.76 -1.344,-1.76 -1.344,-5.248 v -10.016 h 2.816 v 9.472 q 0,5.12 3.552,5.12 1.728,0 3.232,-1.088 1.536,-1.12 2.272,-3.04 v -10.464 h 2.816 v 13.248 q 0,0.992 0.896,1.024 V 0 q -0.48,0.064 -0.768,0.064 -0.256,0.032 -0.512,0.032 -0.832,0 -1.408,-0.48 -0.544,-0.512 -0.576,-1.248 l -0.064,-1.952 q -1.12,1.888 -2.944,2.912 -1.824,0.992 -4,0.992 z" transform="translate(0 371.9350178783569) translate(284.08733000000007 55.31968) scale(1.08) translate(-301.7995 16.704)"></path>
      <path id="path76394" style="font-style: normal; font-weight: 500; font-size: 32px; line-height: 1; font-family: Raleway; font-variant-ligatures: none; text-align: center; text-anchor: middle; fill: rgb(255, 255, 255);" d="m 321.2095,0 v -16.704 h 2.816 V 0 Z m 0,-19.84 v -3.52 h 2.816 v 3.52 z" transform="translate(0 371.9350178783569) translate(305.05013 48.1312) scale(1.08) translate(-321.2095 23.36)"></path>
      <path id="path76396" style="font-style: normal; font-weight: 500; font-size: 32px; line-height: 1; font-family: Raleway; font-variant-ligatures: none; text-align: center; text-anchor: middle; fill: rgb(255, 255, 255);" d="m 328.6485,-23.36 h 2.816 v 19.04 q 0,0.928 0.48,1.472 0.512,0.512 1.408,0.512 0.352,0 0.832,-0.096 0.48,-0.128 0.896,-0.288 l 0.448,2.272 q -0.704,0.288 -1.664,0.48 -0.96,0.192 -1.696,0.192 -1.632,0 -2.592,-0.928 -0.928,-0.928 -0.928,-2.592 z" transform="translate(0 371.9350178783569) translate(313.08425000000005 48.1312) scale(1.08) translate(-328.6485 23.36)"></path>
      <path id="path76398" style="font-style: normal; font-weight: 500; font-size: 32px; line-height: 1; font-family: Raleway; font-variant-ligatures: none; text-align: center; text-anchor: middle; fill: rgb(255, 255, 255);" d="m 344.5895,0.32 q -1.728,0 -3.2,-0.704 -1.472,-0.704 -2.528,-1.888 -1.056,-1.184 -1.664,-2.752 -0.576,-1.568 -0.576,-3.296 0,-1.76 0.544,-3.328 0.576,-1.6 1.568,-2.784 1.024,-1.184 2.4,-1.856 1.408,-0.704 3.072,-0.704 2.016,0 3.584,1.056 1.6,1.056 2.528,2.56 v -9.984 h 2.816 v 19.904 q 0,0.992 0.896,1.024 V 0 q -0.448,0.064 -0.736,0.096 -0.256,0.032 -0.512,0.032 -0.832,0 -1.472,-0.544 -0.608,-0.576 -0.608,-1.312 v -1.408 q -0.992,1.632 -2.656,2.56 -1.632,0.896 -3.456,0.896 z m 0.672,-2.432 q 0.768,0 1.568,-0.288 0.832,-0.288 1.536,-0.8 0.736,-0.512 1.248,-1.184 0.544,-0.704 0.704,-1.472 v -4.8 q -0.288,-0.8 -0.864,-1.504 -0.576,-0.736 -1.312,-1.248 -0.704,-0.544 -1.536,-0.832 -0.8,-0.32 -1.6,-0.32 -1.248,0 -2.272,0.544 -0.992,0.512 -1.728,1.408 -0.704,0.864 -1.088,2.016 -0.384,1.12 -0.384,2.304 0,1.248 0.448,2.4 0.448,1.12 1.216,1.952 0.768,0.832 1.792,1.344 1.056,0.48 2.272,0.48 z" transform="translate(0 371.9350178783569) translate(321.6950900000001 48.1312) scale(1.08) translate(-336.6215 23.36)"></path>
      <path id="path76400" style="font-style: normal; font-weight: 500; font-size: 32px; line-height: 1; font-family: Raleway; font-variant-ligatures: none; text-align: center; text-anchor: middle; fill: rgb(255, 255, 255);" d="m 357.8345,0 v -16.704 h 2.816 V 0 Z m 0,-19.84 v -3.52 h 2.816 v 3.52 z" transform="translate(0 371.9350178783569) translate(344.60513000000003 48.1312) scale(1.08) translate(-357.8345 23.36)"></path>
      <path id="path76402" style="font-style: normal; font-weight: 500; font-size: 32px; line-height: 1; font-family: Raleway; font-variant-ligatures: none; text-align: center; text-anchor: middle; fill: rgb(255, 255, 255);" d="m 379.7055,0 h -2.816 v -9.344 q 0,-2.688 -0.832,-3.904 -0.8,-1.216 -2.464,-1.216 -0.864,0 -1.728,0.352 -0.864,0.32 -1.632,0.896 -0.768,0.576 -1.344,1.376 -0.576,0.8 -0.864,1.76 V 0 h -2.816 v -16.704 h 2.56 v 3.584 q 0.992,-1.76 2.848,-2.816 1.888,-1.056 4.096,-1.056 1.44,0 2.4,0.544 0.96,0.512 1.536,1.472 0.576,0.928 0.8,2.208 0.256,1.28 0.256,2.784 z" transform="translate(0 371.9350178783569) translate(352.57013 55.00864) scale(1.08) translate(-365.2095 16.992)"></path>
      <path id="path76404" style="font-style: normal; font-weight: 500; font-size: 32px; line-height: 1; font-family: Raleway; font-variant-ligatures: none; text-align: center; text-anchor: middle; fill: rgb(255, 255, 255);" d="m 390.7405,0.192 q -1.696,0 -3.136,-0.704 -1.408,-0.704 -2.432,-1.888 -1.024,-1.184 -1.6,-2.72 -0.544,-1.536 -0.544,-3.2 0,-1.76 0.544,-3.328 0.576,-1.6 1.6,-2.784 1.024,-1.184 2.432,-1.856 1.44,-0.704 3.168,-0.704 2.112,0 3.648,1.024 1.536,1.024 2.592,2.592 v -3.328 h 2.496 v 16.512 q 0,1.792 -0.672,3.136 -0.672,1.376 -1.824,2.304 -1.152,0.928 -2.72,1.408 -1.536,0.48 -3.296,0.48 -2.848,0 -4.64,-0.992 -1.76,-0.96 -2.944,-2.688 l 1.632,-1.44 q 0.992,1.472 2.56,2.208 1.568,0.736 3.392,0.736 1.152,0 2.176,-0.32 1.056,-0.32 1.824,-0.96 0.768,-0.64 1.216,-1.6 0.48,-0.96 0.48,-2.272 v -2.944 q -0.48,0.768 -1.152,1.408 -0.64,0.608 -1.408,1.056 -0.768,0.416 -1.632,0.64 -0.864,0.224 -1.76,0.224 z m 0.864,-2.304 q 0.896,0 1.728,-0.32 0.832,-0.32 1.536,-0.832 0.704,-0.544 1.184,-1.216 0.48,-0.672 0.64,-1.376 v -4.8 q -0.352,-0.864 -0.928,-1.568 -0.544,-0.704 -1.248,-1.216 -0.704,-0.544 -1.536,-0.832 -0.8,-0.288 -1.632,-0.288 -1.28,0 -2.304,0.544 -0.992,0.544 -1.696,1.44 -0.704,0.896 -1.088,2.048 -0.384,1.12 -0.384,2.272 0,1.248 0.448,2.368 0.448,1.12 1.216,1.952 0.768,0.832 1.792,1.344 1.056,0.48 2.272,0.48 z" transform="translate(0 371.9350178783569) translate(371.8146500000001 55.00864) scale(1.08) translate(-383.0285 16.992)"></path>
      <path id="path76406" style="font-style: normal; font-weight: 500; font-size: 32px; line-height: 1; font-family: Raleway; font-variant-ligatures: none; text-align: center; text-anchor: middle; fill: rgb(255, 255, 255);" d="m 430.035,-5.856 q 0,1.312 -0.544,2.4 -0.512,1.088 -1.44,1.856 -0.896,0.768 -2.112,1.184 Q 424.755,0 423.379,0 h -10.784 v -22.72 h 11.296 q 1.184,0 2.144,0.512 0.96,0.512 1.632,1.344 0.672,0.8 1.024,1.856 0.384,1.024 0.384,2.08 0,1.696 -0.864,3.136 -0.832,1.44 -2.4,2.144 1.952,0.576 3.072,2.144 1.152,1.536 1.152,3.648 z m -2.912,-0.512 q 0,-0.768 -0.288,-1.472 -0.256,-0.736 -0.736,-1.28 -0.448,-0.544 -1.088,-0.864 -0.64,-0.32 -1.408,-0.32 h -8.128 v 7.808 h 7.904 q 0.8,0 1.472,-0.32 0.672,-0.32 1.184,-0.832 0.512,-0.544 0.8,-1.248 0.288,-0.704 0.288,-1.472 z m -11.648,-13.856 v 7.584 h 7.232 q 0.768,0 1.408,-0.288 0.64,-0.32 1.088,-0.832 0.48,-0.512 0.736,-1.184 0.288,-0.704 0.288,-1.472 0,-0.8 -0.256,-1.504 -0.256,-0.704 -0.704,-1.216 -0.416,-0.512 -1.056,-0.8 -0.608,-0.288 -1.312,-0.288 z" transform="translate(0 371.9350178783569) translate(403.7464700000001 48.8224) scale(1.08) translate(-412.595 22.72)"></path>
      <path id="path76408" style="font-style: normal; font-weight: 500; font-size: 32px; line-height: 1; font-family: Raleway; font-variant-ligatures: none; text-align: center; text-anchor: middle; fill: rgb(255, 255, 255);" d="m 442.479,-14.24 q -2.112,0.064 -3.744,1.088 -1.6,1.024 -2.272,2.848 V 0 h -2.816 v -16.704 h 2.624 v 3.872 q 0.864,-1.728 2.272,-2.784 1.408,-1.088 3.008,-1.216 0.32,0 0.544,0 0.224,0 0.384,0.032 z" transform="translate(0 371.9350178783569) translate(426.48263000000003 55.181439999999995) scale(1.08) translate(-433.647 16.832)"></path>
      <path id="path76410" style="font-style: normal; font-weight: 500; font-size: 32px; line-height: 1; font-family: Raleway; font-variant-ligatures: none; text-align: center; text-anchor: middle; fill: rgb(255, 255, 255);" d="m 449.56,0.32 q -1.184,0 -2.208,-0.384 -1.024,-0.416 -1.792,-1.12 -0.736,-0.704 -1.184,-1.632 -0.416,-0.96 -0.416,-2.08 0,-1.152 0.512,-2.08 0.512,-0.96 1.44,-1.632 0.96,-0.672 2.24,-1.056 1.312,-0.384 2.848,-0.384 1.216,0 2.464,0.224 1.248,0.224 2.208,0.608 v -1.344 q 0,-2.048 -1.152,-3.2 -1.152,-1.184 -3.264,-1.184 -2.528,0 -5.312,1.952 l -0.928,-1.824 q 3.232,-2.176 6.496,-2.176 3.296,0 5.12,1.76 1.856,1.76 1.856,4.96 v 6.816 q 0,0.992 0.896,1.024 V 0 q -0.448,0.064 -0.736,0.096 -0.288,0.032 -0.608,0.032 -0.832,0 -1.344,-0.48 -0.48,-0.512 -0.576,-1.216 l -0.064,-1.184 q -1.12,1.504 -2.848,2.304 -1.696,0.768 -3.648,0.768 z m 0.736,-2.112 q 1.504,0 2.784,-0.544 1.312,-0.576 1.984,-1.504 0.608,-0.608 0.608,-1.248 v -2.464 q -2.048,-0.8 -4.256,-0.8 -2.112,0 -3.456,0.896 -1.312,0.896 -1.312,2.336 0,0.704 0.256,1.312 0.288,0.608 0.768,1.056 0.512,0.448 1.184,0.704 0.672,0.256 1.44,0.256 z" transform="translate(0 371.9350178783569) translate(437.62067 55.00864) scale(1.08) translate(-443.96 16.992)"></path>
      <path id="path76412" style="font-style: normal; font-weight: 500; font-size: 32px; line-height: 1; font-family: Raleway; font-variant-ligatures: none; text-align: center; text-anchor: middle; fill: rgb(255, 255, 255);" d="m 477.518,0 h -2.816 v -9.344 q 0,-2.688 -0.832,-3.904 -0.8,-1.216 -2.464,-1.216 -0.864,0 -1.728,0.352 -0.864,0.32 -1.632,0.896 -0.768,0.576 -1.344,1.376 -0.576,0.8 -0.864,1.76 V 0 h -2.816 v -16.704 h 2.56 v 3.584 q 0.992,-1.76 2.848,-2.816 1.888,-1.056 4.096,-1.056 1.44,0 2.4,0.544 0.96,0.512 1.536,1.472 0.576,0.928 0.8,2.208 0.256,1.28 0.256,2.784 z" transform="translate(0 371.9350178783569) translate(458.20763000000005 55.00864) scale(1.08) translate(-463.022 16.992)"></path>
      <path id="path76414" style="font-style: normal; font-weight: 500; font-size: 32px; line-height: 1; font-family: Raleway; font-variant-ligatures: none; text-align: center; text-anchor: middle; fill: rgb(255, 255, 255);" d="m 488.777,0.32 q -1.728,0 -3.2,-0.704 -1.472,-0.704 -2.528,-1.888 -1.056,-1.184 -1.664,-2.752 -0.576,-1.568 -0.576,-3.296 0,-1.76 0.544,-3.328 0.576,-1.6 1.568,-2.784 1.024,-1.184 2.4,-1.856 1.408,-0.704 3.072,-0.704 2.016,0 3.584,1.056 1.6,1.056 2.528,2.56 v -9.984 h 2.816 v 19.904 q 0,0.992 0.896,1.024 V 0 q -0.448,0.064 -0.736,0.096 -0.256,0.032 -0.512,0.032 -0.832,0 -1.472,-0.544 -0.608,-0.576 -0.608,-1.312 v -1.408 q -0.992,1.632 -2.656,2.56 -1.632,0.896 -3.456,0.896 z m 0.672,-2.432 q 0.768,0 1.568,-0.288 0.832,-0.288 1.536,-0.8 0.736,-0.512 1.248,-1.184 0.544,-0.704 0.704,-1.472 v -4.8 q -0.288,-0.8 -0.864,-1.504 -0.576,-0.736 -1.312,-1.248 -0.704,-0.544 -1.536,-0.832 -0.8,-0.32 -1.6,-0.32 -1.248,0 -2.272,0.544 -0.992,0.512 -1.728,1.408 -0.704,0.864 -1.088,2.016 -0.384,1.12 -0.384,2.304 0,1.248 0.448,2.4 0.448,1.12 1.216,1.952 0.768,0.832 1.792,1.344 1.056,0.48 2.272,0.48 z" transform="translate(0 371.9350178783569) translate(477.41759000000013 48.1312) scale(1.08) translate(-480.809 23.36)"></path>
      <path id="path76416" style="font-style: normal; font-weight: 500; font-size: 32px; line-height: 1; font-family: Raleway; font-variant-ligatures: none; text-align: center; text-anchor: middle; fill: rgb(255, 255, 255);" d="m 507.878,0.32 q -2.016,0 -3.968,-0.608 -1.952,-0.64 -3.36,-1.824 L 501.766,-4 q 1.472,1.12 2.944,1.696 1.472,0.544 3.104,0.544 1.824,0 2.88,-0.704 1.088,-0.736 1.088,-2.048 0,-0.608 -0.288,-1.024 -0.288,-0.448 -0.864,-0.768 -0.576,-0.32 -1.472,-0.576 -0.896,-0.256 -2.08,-0.544 -1.504,-0.384 -2.592,-0.736 -1.088,-0.352 -1.792,-0.832 -0.704,-0.48 -1.024,-1.152 -0.32,-0.672 -0.32,-1.664 0,-1.248 0.48,-2.208 0.512,-0.992 1.376,-1.632 0.864,-0.672 2.016,-0.992 1.184,-0.352 2.528,-0.352 1.888,0 3.52,0.608 1.632,0.608 2.752,1.6 l -1.28,1.696 q -1.056,-0.928 -2.368,-1.376 -1.312,-0.48 -2.688,-0.48 -1.536,0 -2.624,0.672 -1.056,0.64 -1.056,2.08 0,0.576 0.192,0.96 0.224,0.384 0.704,0.672 0.48,0.288 1.216,0.512 0.768,0.224 1.824,0.48 1.664,0.384 2.88,0.8 1.248,0.384 2.048,0.928 0.832,0.544 1.216,1.28 0.416,0.736 0.416,1.792 0,2.336 -1.792,3.712 -1.792,1.376 -4.832,1.376 z" transform="translate(0 371.9350178783569) translate(498.7378700000001 55.00864) scale(1.08) translate(-500.55 16.992)"></path>
      <path id="path76418" style="font-style: normal; font-weight: 500; font-size: 32px; line-height: 1; font-family: Raleway; font-variant-ligatures: none; text-align: center; text-anchor: middle; fill: rgb(255, 255, 255);" d="m 525.9595,0 v -16.704 h 2.816 V 0 Z m 0,-19.84 v -3.52 h 2.816 v 3.52 z" transform="translate(0 371.9350178783569) translate(526.1801300000001 48.1312) scale(1.08) translate(-525.9595 23.36)"></path>
      <path id="path76420" style="font-style: normal; font-weight: 500; font-size: 32px; line-height: 1; font-family: Raleway; font-variant-ligatures: none; text-align: center; text-anchor: middle; fill: rgb(255, 255, 255);" d="m 539.1905,0.32 q -2.016,0 -3.968,-0.608 -1.952,-0.64 -3.36,-1.824 L 533.0785,-4 q 1.472,1.12 2.944,1.696 1.472,0.544 3.104,0.544 1.824,0 2.88,-0.704 1.088,-0.736 1.088,-2.048 0,-0.608 -0.288,-1.024 -0.288,-0.448 -0.864,-0.768 -0.576,-0.32 -1.472,-0.576 -0.896,-0.256 -2.08,-0.544 -1.504,-0.384 -2.592,-0.736 -1.088,-0.352 -1.792,-0.832 -0.704,-0.48 -1.024,-1.152 -0.32,-0.672 -0.32,-1.664 0,-1.248 0.48,-2.208 0.512,-0.992 1.376,-1.632 0.864,-0.672 2.016,-0.992 1.184,-0.352 2.528,-0.352 1.888,0 3.52,0.608 1.632,0.608 2.752,1.6 l -1.28,1.696 q -1.056,-0.928 -2.368,-1.376 -1.312,-0.48 -2.688,-0.48 -1.536,0 -2.624,0.672 -1.056,0.64 -1.056,2.08 0,0.576 0.192,0.96 0.224,0.384 0.704,0.672 0.48,0.288 1.216,0.512 0.768,0.224 1.824,0.48 1.664,0.384 2.88,0.8 1.248,0.384 2.048,0.928 0.832,0.544 1.216,1.28 0.416,0.736 0.416,1.792 0,2.336 -1.792,3.712 -1.792,1.376 -4.832,1.376 z" transform="translate(0 371.9350178783569) translate(532.5553699999999 55.00864) scale(1.08) translate(-531.8625 16.992)"></path>
      <path id="path76422" style="font-style: normal; font-weight: 500; font-size: 32px; line-height: 1; font-family: Raleway; font-variant-ligatures: none; text-align: center; text-anchor: middle; fill: rgb(255, 255, 255);" d="m 564.568,0.32 q -1.888,0 -3.456,-0.704 -1.536,-0.704 -2.656,-1.888 -1.088,-1.184 -1.696,-2.752 -0.608,-1.568 -0.608,-3.296 0,-1.76 0.608,-3.328 0.64,-1.568 1.728,-2.752 1.12,-1.184 2.656,-1.888 1.568,-0.704 3.424,-0.704 1.856,0 3.424,0.704 1.568,0.704 2.656,1.888 1.12,1.184 1.728,2.752 0.64,1.568 0.64,3.328 0,1.728 -0.608,3.296 -0.608,1.568 -1.728,2.752 -1.12,1.184 -2.688,1.888 -1.536,0.704 -3.424,0.704 z m -5.536,-8.608 q 0,1.312 0.416,2.432 0.448,1.12 1.184,1.952 0.768,0.832 1.76,1.312 1.024,0.48 2.176,0.48 1.152,0 2.144,-0.48 1.024,-0.48 1.792,-1.312 0.768,-0.864 1.184,-1.984 0.448,-1.152 0.448,-2.464 0,-1.28 -0.448,-2.4 -0.416,-1.152 -1.184,-1.984 -0.768,-0.864 -1.792,-1.344 -0.992,-0.48 -2.144,-0.48 -1.152,0 -2.176,0.512 -0.992,0.48 -1.76,1.344 -0.736,0.832 -1.184,1.984 -0.416,1.12 -0.416,2.432 z" transform="translate(0 371.9350178783569) translate(558.78803 55.00864) scale(1.08) translate(-556.152 16.992)"></path>
      <path id="path76424" style="font-style: normal; font-weight: 500; font-size: 32px; line-height: 1; font-family: Raleway; font-variant-ligatures: none; text-align: center; text-anchor: middle; fill: rgb(255, 255, 255);" d="m 581.6115,0.32 q -2.624,0 -3.968,-1.76 -1.344,-1.76 -1.344,-5.248 v -10.016 h 2.816 v 9.472 q 0,5.12 3.552,5.12 1.728,0 3.232,-1.088 1.536,-1.12 2.272,-3.04 v -10.464 h 2.816 v 13.248 q 0,0.992 0.896,1.024 V 0 q -0.48,0.064 -0.768,0.064 -0.256,0.032 -0.512,0.032 -0.832,0 -1.408,-0.48 -0.544,-0.512 -0.576,-1.248 l -0.064,-1.952 q -1.12,1.888 -2.944,2.912 -1.824,0.992 -4,0.992 z" transform="translate(0 371.9350178783569) translate(580.54733 55.31968) scale(1.08) translate(-576.2995 16.704)"></path>
      <path id="path76426" style="font-style: normal; font-weight: 500; font-size: 32px; line-height: 1; font-family: Raleway; font-variant-ligatures: none; text-align: center; text-anchor: middle; fill: rgb(255, 255, 255);" d="m 604.5415,-14.24 q -2.112,0.064 -3.744,1.088 -1.6,1.024 -2.272,2.848 V 0 h -2.816 v -16.704 h 2.624 v 3.872 q 0.864,-1.728 2.272,-2.784 1.408,-1.088 3.008,-1.216 0.32,0 0.544,0 0.224,0 0.384,0.032 z" transform="translate(0 371.9350178783569) translate(601.5101300000002 55.181439999999995) scale(1.08) translate(-595.7095 16.832)"></path>
      <path id="path76428" style="font-style: normal; font-weight: 500; font-size: 32px; line-height: 1; font-family: Raleway; font-variant-ligatures: none; text-align: center; text-anchor: middle; fill: rgb(255, 255, 255);" d="m 632.5975,-5.856 q 0,1.312 -0.544,2.4 -0.512,1.088 -1.44,1.856 -0.896,0.768 -2.112,1.184 Q 627.3175,0 625.9415,0 h -10.784 v -22.72 h 11.296 q 1.184,0 2.144,0.512 0.96,0.512 1.632,1.344 0.672,0.8 1.024,1.856 0.384,1.024 0.384,2.08 0,1.696 -0.864,3.136 -0.832,1.44 -2.4,2.144 1.952,0.576 3.072,2.144 1.152,1.536 1.152,3.648 z m -2.912,-0.512 q 0,-0.768 -0.288,-1.472 -0.256,-0.736 -0.736,-1.28 -0.448,-0.544 -1.088,-0.864 -0.64,-0.32 -1.408,-0.32 h -8.128 v 7.808 h 7.904 q 0.8,0 1.472,-0.32 0.672,-0.32 1.184,-0.832 0.512,-0.544 0.8,-1.248 0.288,-0.704 0.288,-1.472 z m -11.648,-13.856 v 7.584 h 7.232 q 0.768,0 1.408,-0.288 0.64,-0.32 1.088,-0.832 0.48,-0.512 0.736,-1.184 0.288,-0.704 0.288,-1.472 0,-0.8 -0.256,-1.504 -0.256,-0.704 -0.704,-1.216 -0.416,-0.512 -1.056,-0.8 -0.608,-0.288 -1.312,-0.288 z" transform="translate(0 371.9350178783569) translate(622.5139700000002 48.8224) scale(1.08) translate(-615.1575 22.72)"></path>
      <path id="path76430" style="font-style: normal; font-weight: 500; font-size: 32px; line-height: 1; font-family: Raleway; font-variant-ligatures: none; text-align: center; text-anchor: middle; fill: rgb(255, 255, 255);" d="m 641.3615,0.32 q -2.624,0 -3.968,-1.76 -1.344,-1.76 -1.344,-5.248 v -10.016 h 2.816 v 9.472 q 0,5.12 3.552,5.12 1.728,0 3.232,-1.088 1.536,-1.12 2.272,-3.04 v -10.464 h 2.816 v 13.248 q 0,0.992 0.896,1.024 V 0 q -0.48,0.064 -0.768,0.064 -0.256,0.032 -0.512,0.032 -0.832,0 -1.408,-0.48 -0.544,-0.512 -0.576,-1.248 l -0.064,-1.952 q -1.12,1.888 -2.944,2.912 -1.824,0.992 -4,0.992 z" transform="translate(0 371.9350178783569) translate(645.0773300000001 55.31968) scale(1.08) translate(-636.0495 16.704)"></path>
      <path id="path76432" style="font-style: normal; font-weight: 500; font-size: 32px; line-height: 1; font-family: Raleway; font-variant-ligatures: none; text-align: center; text-anchor: middle; fill: rgb(255, 255, 255);" d="m 661.3155,0.32 q -2.016,0 -3.968,-0.608 -1.952,-0.64 -3.36,-1.824 L 655.2035,-4 q 1.472,1.12 2.944,1.696 1.472,0.544 3.104,0.544 1.824,0 2.88,-0.704 1.088,-0.736 1.088,-2.048 0,-0.608 -0.288,-1.024 -0.288,-0.448 -0.864,-0.768 -0.576,-0.32 -1.472,-0.576 -0.896,-0.256 -2.08,-0.544 -1.504,-0.384 -2.592,-0.736 -1.088,-0.352 -1.792,-0.832 -0.704,-0.48 -1.024,-1.152 -0.32,-0.672 -0.32,-1.664 0,-1.248 0.48,-2.208 0.512,-0.992 1.376,-1.632 0.864,-0.672 2.016,-0.992 1.184,-0.352 2.528,-0.352 1.888,0 3.52,0.608 1.632,0.608 2.752,1.6 l -1.28,1.696 q -1.056,-0.928 -2.368,-1.376 -1.312,-0.48 -2.688,-0.48 -1.536,0 -2.624,0.672 -1.056,0.64 -1.056,2.08 0,0.576 0.192,0.96 0.224,0.384 0.704,0.672 0.48,0.288 1.216,0.512 0.768,0.224 1.824,0.48 1.664,0.384 2.88,0.8 1.248,0.384 2.048,0.928 0.832,0.544 1.216,1.28 0.416,0.736 0.416,1.792 0,2.336 -1.792,3.712 -1.792,1.376 -4.832,1.376 z" transform="translate(0 371.9350178783569) translate(664.4503700000001 55.00864) scale(1.08) translate(-653.9875 16.992)"></path>
      <path id="path76434" style="font-style: normal; font-weight: 500; font-size: 32px; line-height: 1; font-family: Raleway; font-variant-ligatures: none; text-align: center; text-anchor: middle; fill: rgb(255, 255, 255);" d="m 671.272,0 v -16.704 h 2.816 V 0 Z m 0,-19.84 v -3.52 h 2.816 v 3.52 z" transform="translate(0 371.9350178783569) translate(683.1176300000003 48.1312) scale(1.08) translate(-671.272 23.36)"></path>
      <path id="path76436" style="font-style: normal; font-weight: 500; font-size: 32px; line-height: 1; font-family: Raleway; font-variant-ligatures: none; text-align: center; text-anchor: middle; fill: rgb(255, 255, 255);" d="m 693.143,0 h -2.816 v -9.344 q 0,-2.688 -0.832,-3.904 -0.8,-1.216 -2.464,-1.216 -0.864,0 -1.728,0.352 -0.864,0.32 -1.632,0.896 -0.768,0.576 -1.344,1.376 -0.576,0.8 -0.864,1.76 V 0 h -2.816 v -16.704 h 2.56 v 3.584 q 0.992,-1.76 2.848,-2.816 1.888,-1.056 4.096,-1.056 1.44,0 2.4,0.544 0.96,0.512 1.536,1.472 0.576,0.928 0.8,2.208 0.256,1.28 0.256,2.784 z" transform="translate(0 371.9350178783569) translate(691.0826300000003 55.00864) scale(1.08) translate(-678.647 16.992)"></path>
      <path id="path76438" style="font-style: normal; font-weight: 500; font-size: 32px; line-height: 1; font-family: Raleway; font-variant-ligatures: none; text-align: center; text-anchor: middle; fill: rgb(255, 255, 255);" d="m 704.914,0.32 q -1.888,0 -3.456,-0.672 -1.568,-0.704 -2.688,-1.888 -1.12,-1.184 -1.76,-2.752 -0.608,-1.6 -0.608,-3.36 0,-1.76 0.608,-3.328 0.64,-1.568 1.76,-2.752 1.152,-1.184 2.72,-1.856 1.568,-0.704 3.456,-0.704 1.888,0 3.424,0.704 1.568,0.704 2.656,1.888 1.088,1.152 1.664,2.72 0.608,1.536 0.608,3.2 0,0.352 -0.032,0.64 0,0.288 -0.032,0.448 h -13.856 q 0.096,1.248 0.576,2.272 0.48,1.024 1.248,1.76 0.768,0.736 1.728,1.152 0.992,0.416 2.08,0.416 0.768,0 1.504,-0.192 0.736,-0.224 1.376,-0.576 0.64,-0.352 1.12,-0.864 0.512,-0.512 0.768,-1.152 l 2.432,0.672 q -0.416,0.928 -1.152,1.696 -0.704,0.768 -1.664,1.344 -0.928,0.544 -2.08,0.864 -1.152,0.32 -2.4,0.32 z m 5.728,-9.792 q -0.096,-1.184 -0.608,-2.176 -0.48,-1.024 -1.248,-1.728 -0.736,-0.704 -1.728,-1.088 -0.992,-0.416 -2.112,-0.416 -1.12,0 -2.112,0.416 -0.992,0.384 -1.76,1.12 -0.736,0.704 -1.216,1.696 -0.448,0.992 -0.544,2.176 z" transform="translate(0 371.9350178783569) translate(710.2580300000003 55.00864) scale(1.08) translate(-696.402 16.992)"></path>
      <path id="path76440" style="font-style: normal; font-weight: 500; font-size: 32px; line-height: 1; font-family: Raleway; font-variant-ligatures: none; text-align: center; text-anchor: middle; fill: rgb(255, 255, 255);" d="m 722.3155,0.32 q -2.016,0 -3.968,-0.608 -1.952,-0.64 -3.36,-1.824 L 716.2035,-4 q 1.472,1.12 2.944,1.696 1.472,0.544 3.104,0.544 1.824,0 2.88,-0.704 1.088,-0.736 1.088,-2.048 0,-0.608 -0.288,-1.024 -0.288,-0.448 -0.864,-0.768 -0.576,-0.32 -1.472,-0.576 -0.896,-0.256 -2.08,-0.544 -1.504,-0.384 -2.592,-0.736 -1.088,-0.352 -1.792,-0.832 -0.704,-0.48 -1.024,-1.152 -0.32,-0.672 -0.32,-1.664 0,-1.248 0.48,-2.208 0.512,-0.992 1.376,-1.632 0.864,-0.672 2.016,-0.992 1.184,-0.352 2.528,-0.352 1.888,0 3.52,0.608 1.632,0.608 2.752,1.6 l -1.28,1.696 q -1.056,-0.928 -2.368,-1.376 -1.312,-0.48 -2.688,-0.48 -1.536,0 -2.624,0.672 -1.056,0.64 -1.056,2.08 0,0.576 0.192,0.96 0.224,0.384 0.704,0.672 0.48,0.288 1.216,0.512 0.768,0.224 1.824,0.48 1.664,0.384 2.88,0.8 1.248,0.384 2.048,0.928 0.832,0.544 1.216,1.28 0.416,0.736 0.416,1.792 0,2.336 -1.792,3.712 -1.792,1.376 -4.832,1.376 z" transform="translate(0 371.9350178783569) translate(730.3303700000004 55.00864) scale(1.08) translate(-714.9875 16.992)"></path>
      <path id="path76442" style="font-style: normal; font-weight: 500; font-size: 32px; line-height: 1; font-family: Raleway; font-variant-ligatures: none; text-align: center; text-anchor: middle; fill: rgb(255, 255, 255);" d="m 738.128,0.32 q -2.016,0 -3.968,-0.608 -1.952,-0.64 -3.36,-1.824 L 732.016,-4 q 1.472,1.12 2.944,1.696 1.472,0.544 3.104,0.544 1.824,0 2.88,-0.704 1.088,-0.736 1.088,-2.048 0,-0.608 -0.288,-1.024 -0.288,-0.448 -0.864,-0.768 -0.576,-0.32 -1.472,-0.576 -0.896,-0.256 -2.08,-0.544 -1.504,-0.384 -2.592,-0.736 -1.088,-0.352 -1.792,-0.832 -0.704,-0.48 -1.024,-1.152 -0.32,-0.672 -0.32,-1.664 0,-1.248 0.48,-2.208 0.512,-0.992 1.376,-1.632 0.864,-0.672 2.016,-0.992 1.184,-0.352 2.528,-0.352 1.888,0 3.52,0.608 1.632,0.608 2.752,1.6 l -1.28,1.696 q -1.056,-0.928 -2.368,-1.376 -1.312,-0.48 -2.688,-0.48 -1.536,0 -2.624,0.672 -1.056,0.64 -1.056,2.08 0,0.576 0.192,0.96 0.224,0.384 0.704,0.672 0.48,0.288 1.216,0.512 0.768,0.224 1.824,0.48 1.664,0.384 2.88,0.8 1.248,0.384 2.048,0.928 0.832,0.544 1.216,1.28 0.416,0.736 0.416,1.792 0,2.336 -1.792,3.712 -1.792,1.376 -4.832,1.376 z" transform="translate(0 371.9350178783569) translate(747.4078700000003 55.00864) scale(1.08) translate(-730.8 16.992)"></path>
    </g>
  </g>
</svg>