<svg id="_x33_0" enable-background="new 0 0 64 64" viewBox="0 0 64 64" xmlns="http://www.w3.org/2000/svg"><g><g><g><path d="m39 56-.01.08c-.29 1.71-1.17 3.19-2.41 4.24-1.24 1.06-2.85 1.68-4.58 1.68-3.46 0-6.42-2.5-6.99-5.92l-.01-.08z" fill="#aab2bd"/></g><g><path d="m39 52c1.1 0 2 .9 2 2 0 .55-.22 1.05-.59 1.41-.36.37-.86.59-1.41.59h-14c-1.1 0-2-.9-2-2 0-.55.22-1.05.59-1.41.36-.37.86-.59 1.41-.59z" fill="#ccd1d9"/></g><g><path d="m40.41 48.59c.37.36.59.86.59 1.41s-.22 1.05-.59 1.41c-.36.37-.86.59-1.41.59h-14c-1.1 0-2-.9-2-2 0-.55.22-1.05.59-1.41.36-.37.86-.59 1.41-.59h1 6 6 1c.55 0 1.05.22 1.41.59z" fill="#ccd1d9"/></g><g><circle cx="53" cy="33" fill="#e6e9ed" r="9"/></g><g><circle cx="11" cy="33" fill="#e6e9ed" r="9"/></g><g><path d="m32 2c-9.94 0-18 8.06-18 18 0 1.69.23 3.27.62 4.76 1.58.69 2.92 1.83 3.87 3.25.95 1.43 1.51 3.15 1.51 4.99 0 .76-.1 1.5-.27 2.21.3.5.58.98.84 1.46 1.14 2.08 1.36 4.54.61 6.8-.12.35-.18.72-.18 1.09 0 .92.37 1.81 1.02 2.46l1.57 1.57c.36-.37.86-.59 1.41-.59h14c.55 0 1.05.22 1.41.59l1.57-1.57c.65-.65 1.02-1.54 1.02-2.46 0-.37-.06-.74-.18-1.09-.29-.88-.44-1.8-.44-2.7 0-1.42.36-2.83 1.05-4.1.26-.48.54-.96.84-1.46-.17-.71-.27-1.45-.27-2.21 0-1.84.56-3.56 1.51-4.99.95-1.42 2.29-2.56 3.87-3.25.39-1.49.62-3.07.62-4.76 0-9.94-8.06-18-18-18z" fill="#ffeaa7"/></g><g><circle cx="32" cy="19" fill="#e6e9ed" r="11"/></g><g><path d="m36 41.39v-12.14c-1.24.48-2.59.75-4 .75s-2.76-.27-4-.75v12.14c0 2.36-.7 4.65-2 6.61h6 6c-1.3-1.96-2-4.25-2-6.61z" fill="#fcd770"/></g><g><path d="m15.57 37.96.36 2.56v.01c-1.41.93-3.11 1.47-4.93 1.47s-3.52-.54-4.93-1.47v-.01l.36-2.56c.33-2.27 2.27-3.96 4.57-3.96 1.15 0 2.21.42 3.02 1.13.82.71 1.38 1.69 1.55 2.83z" fill="#b4dd7f"/></g><g><path d="m57.57 37.96.36 2.56v.01c-1.41.93-3.11 1.47-4.93 1.47s-3.52-.54-4.93-1.47v-.01l.36-2.56c.33-2.27 2.27-3.96 4.57-3.96 1.15 0 2.21.42 3.02 1.13.82.71 1.38 1.69 1.55 2.83z" fill="#b4dd7f"/></g><g><path d="m38.21 24.85.68 2.72c-.86.7-1.84 1.27-2.89 1.68-1.24.48-2.59.75-4 .75s-2.76-.27-4-.75c-1.05-.41-2.03-.98-2.89-1.68l.68-2.72c.71-2.85 3.27-4.85 6.21-4.85 1.47 0 2.84.5 3.94 1.36 1.1.85 1.92 2.06 2.27 3.49z" fill="#ff826e"/></g><g><circle cx="53" cy="31" fill="#f0d0b4" r="3"/></g><g><circle cx="11" cy="31" fill="#f0d0b4" r="3"/></g><g><circle cx="32" cy="16" fill="#f0d0b4" r="4"/></g></g><path d="m53 23c-.788 0-1.552.101-2.288.274.185-1.092.288-2.187.288-3.274 0-10.477-8.523-19-19-19s-19 8.523-19 19c0 1.087.103 2.182.288 3.274-.736-.173-1.5-.274-2.288-.274-5.514 0-10 4.486-10 10s4.486 10 10 10c3.87 0 7.227-2.215 8.888-5.439.819 1.747.952 3.756.34 5.59-.151.457-.228.932-.228 1.412 0 1.194.465 2.316 1.31 3.161l.991.991c-.188.391-.301.823-.301 1.285 0 .771.301 1.468.78 2-.48.532-.78 1.229-.78 2 0 1.36.916 2.499 2.159 2.865.886 3.59 4.086 6.135 7.841 6.135 3.731 0 6.917-2.512 7.837-6.134 1.246-.365 2.163-1.504 2.163-2.866 0-.771-.301-1.468-.78-2 .48-.532.78-1.229.78-2 0-.462-.113-.894-.301-1.285l.991-.991c.845-.845 1.31-1.967 1.31-3.161 0-.479-.077-.954-.229-1.413-.611-1.833-.478-3.841.341-5.589 1.661 3.224 5.018 5.439 8.888 5.439 5.514 0 10-4.486 10-10s-4.486-10-10-10zm-38-3c0-9.374 7.626-17 17-17s17 7.626 17 17c0 1.371-.166 2.709-.487 4.076-1.248.63-2.351 1.506-3.233 2.575l-2.781-1.853c.954-1.72 1.501-3.696 1.501-5.798 0-6.617-5.383-12-12-12s-12 5.383-12 12c0 2.102.547 4.078 1.501 5.798l-2.781 1.853c-.881-1.07-1.985-1.945-3.233-2.575-.321-1.367-.487-2.705-.487-4.076zm25 30c0 .552-.448 1-1 1h-14c-.552 0-1-.448-1-1s.448-1 1-1h14c.552 0 1 .448 1 1zm-11-19.395c.648.168 1.315.287 2 .344v16.051h-3.284c.841-1.742 1.284-3.649 1.284-5.605zm4 16.395v-16.051c.685-.057 1.352-.176 2-.344v10.789c0 1.956.443 3.864 1.284 5.605h-3.284zm-1-18c-2.145 0-4.13-.685-5.76-1.84l.517-2.067c.603-2.409 2.759-4.093 5.243-4.093s4.64 1.684 5.243 4.093l.517 2.068c-1.63 1.154-3.615 1.839-5.76 1.839zm-3-13c0-1.654 1.346-3 3-3s3 1.346 3 3-1.346 3-3 3-3-1.346-3-3zm10.444 9.654-.261-1.045c-.544-2.177-2.022-3.903-3.934-4.839 1.063-.918 1.751-2.259 1.751-3.77 0-2.757-2.243-5-5-5s-5 2.243-5 5c0 1.511.688 2.852 1.752 3.77-1.913.936-3.391 2.662-3.934 4.839l-.261 1.045c-1.585-1.77-2.557-4.098-2.557-6.654 0-5.514 4.486-10 10-10s10 4.486 10 10c0 2.556-.972 4.884-2.556 6.654zm-32.292 14.356.273-1.908c.252-1.769 1.789-3.102 3.575-3.102s3.323 1.333 3.575 3.102l.273 1.908c-1.143.63-2.454.99-3.848.99s-2.705-.36-3.848-.99zm1.848-9.01c0-1.103.897-2 2-2s2 .897 2 2-.897 2-2 2-2-.897-2-2zm7.672 7.634-.117-.816c-.246-1.724-1.279-3.18-2.699-4.027.706-.721 1.144-1.705 1.144-2.791 0-2.206-1.794-4-4-4s-4 1.794-4 4c0 1.086.438 2.07 1.143 2.792-1.42.847-2.453 2.303-2.699 4.027l-.117.816c-1.437-1.448-2.327-3.439-2.327-5.635 0-4.411 3.589-8 8-8s8 3.589 8 8c0 2.196-.89 4.187-2.328 5.634zm4.773-2.446c-.202-.371-.43-.756-.657-1.142.138-.661.212-1.345.212-2.046 0-1.692-.426-3.286-1.171-4.684l2.787-1.858c1.166 1.464 2.666 2.645 4.384 3.437v11.5c0 1.985-.541 3.911-1.558 5.605h-.442c-.462 0-.894.113-1.285.301l-.991-.991c-.467-.467-.724-1.087-.724-1.747 0-.265.043-.528.126-.78.836-2.504.587-5.272-.681-7.595zm10.555 24.812c-2.605 0-4.857-1.629-5.715-4h11.43c-.858 2.371-3.11 4-5.715 4zm7-6h-14c-.552 0-1-.448-1-1s.448-1 1-1h14c.552 0 1 .448 1 1s-.448 1-1 1zm3.555-18.812c-1.268 2.323-1.517 5.092-.682 7.593.084.253.127.517.127.782 0 .66-.257 1.28-.724 1.747l-.991.991c-.391-.188-.823-.301-1.285-.301h-.442c-1.017-1.695-1.558-3.62-1.558-5.605v-11.5c1.718-.792 3.218-1.973 4.384-3.437l2.787 1.858c-.745 1.398-1.171 2.992-1.171 4.684 0 .701.074 1.385.212 2.046-.228.386-.456.772-.657 1.142zm6.597 3.822.273-1.908c.252-1.769 1.789-3.102 3.575-3.102s3.323 1.333 3.575 3.102l.273 1.908c-1.143.63-2.454.99-3.848.99s-2.705-.36-3.848-.99zm1.848-9.01c0-1.103.897-2 2-2s2 .897 2 2-.897 2-2 2-2-.897-2-2zm7.672 7.634-.117-.816c-.246-1.724-1.279-3.18-2.699-4.027.706-.721 1.144-1.705 1.144-2.791 0-2.206-1.794-4-4-4s-4 1.794-4 4c0 1.086.438 2.07 1.143 2.792-1.42.847-2.453 2.303-2.699 4.027l-.117.816c-1.437-1.448-2.327-3.439-2.327-5.635 0-4.411 3.589-8 8-8s8 3.589 8 8c0 2.196-.89 4.187-2.328 5.634z"/></g></svg>