<?xml version="1.0" encoding="utf-8"?>
<!-- Generator: Adobe Illustrator 21.1.0, SVG Export Plug-In . SVG Version: 6.00 Build 0)  -->
<svg version="1.1" xmlns="http://www.w3.org/2000/svg" xmlns:xlink="http://www.w3.org/1999/xlink" x="0px" y="0px"
	 viewBox="0 0 960 280" style="enable-background:new 0 0 960 280;" xml:space="preserve">
<style type="text/css">
	.st0{fill:none;stroke:#EDEDED;stroke-width:3.5;stroke-linecap:round;stroke-linejoin:round;stroke-miterlimit:10;}
	.st1{fill:#F7F7F7;}
	.st2{fill:#F2F2F2;}
	.st3{fill:#EDEDED;}
	.st4{fill:#EAEAEA;}
	.st5{fill:url(#SVGID_1_);}
	.st6{fill-rule:evenodd;clip-rule:evenodd;fill:#EAEAEA;}
	.st7{fill-rule:evenodd;clip-rule:evenodd;fill:#E9FAFF;}
	.st8{fill-rule:evenodd;clip-rule:evenodd;fill:#005EB8;}
	.st9{fill-rule:evenodd;clip-rule:evenodd;fill:#F4F6F8;}
	.st10{fill-rule:evenodd;clip-rule:evenodd;fill:#B5E5F7;}
	.st11{fill-rule:evenodd;clip-rule:evenodd;fill:#9AD9FC;}
	.st12{fill-rule:evenodd;clip-rule:evenodd;fill:#ED8B00;}
	.st13{fill-rule:evenodd;clip-rule:evenodd;fill:#0A84F2;}
	.st14{fill-rule:evenodd;clip-rule:evenodd;fill:#FBB040;}
	.st15{fill:#9AD9FC;}
	.st16{fill:#FFFFFF;}
	.st17{fill-rule:evenodd;clip-rule:evenodd;fill:#FFFFFF;}
	.st18{opacity:0.5;fill-rule:evenodd;clip-rule:evenodd;fill:#02355E;}
	.st19{fill-rule:evenodd;clip-rule:evenodd;fill:#70BEF2;}
	.st20{fill-rule:evenodd;clip-rule:evenodd;fill:#494B51;}
	.st21{fill-rule:evenodd;clip-rule:evenodd;fill:#FFBE58;}
	.st22{fill-rule:evenodd;clip-rule:evenodd;fill:#02355E;}
	.st23{fill:#494B51;}
	.st24{fill:#B5E5F7;}
	.st25{fill:#ED8B00;}
	.st26{fill:#FCC659;}
	.st27{fill:#005EB8;}
	.st28{fill:#0A84F2;}
	.st29{fill:#FBB040;}
</style>
<g id="color_palette">
	<g>
		<line class="st0" x1="798.4" y1="4.2" x2="798.4" y2="16.8"/>
		<line class="st0" x1="792.1" y1="10.5" x2="804.7" y2="10.5"/>
	</g>
	<g>
		<line class="st0" x1="942.7" y1="154.3" x2="942.7" y2="166.9"/>
		<line class="st0" x1="936.4" y1="160.6" x2="949" y2="160.6"/>
	</g>
	<g>
		<line class="st0" x1="951.7" y1="180.4" x2="951.7" y2="193"/>
		<line class="st0" x1="945.4" y1="186.7" x2="958" y2="186.7"/>
	</g>
	<g>
		<line class="st0" x1="950.8" y1="28.4" x2="950.8" y2="41"/>
		<line class="st0" x1="944.5" y1="34.7" x2="957.1" y2="34.7"/>
	</g>
	<g>
		<line class="st0" x1="527.4" y1="71.5" x2="527.4" y2="84.1"/>
		<line class="st0" x1="521.1" y1="77.8" x2="533.7" y2="77.8"/>
	</g>
	<g>
		<line class="st0" x1="658.7" y1="119.2" x2="658.7" y2="131.8"/>
		<line class="st0" x1="652.4" y1="125.5" x2="665" y2="125.5"/>
	</g>
</g>
<g id="design">
	<g>
		<path class="st1" d="M600.6,243.6h-50.1v-64.5c0-4.6,3.7-8.3,8.3-8.3h33.5c4.6,0,8.3,3.7,8.3,8.3V243.6z"/>
		<g>
			<path class="st2" d="M667.8,243.6h-50.1V153c0-4.6,3.7-8.3,8.3-8.3h33.5c4.6,0,8.3,3.7,8.3,8.3V243.6z"/>
			<g id="XMLID_4_">
				<g>
					<path class="st2" d="M725.4,111.6c4.6,0,8.3,3.7,8.3,8.3v123.7h-50.1V119.9c0-4.6,3.7-8.3,8.3-8.3H725.4z"/>
				</g>
				<g>
				</g>
			</g>
			<g id="XMLID_3_">
				<g>
					<path class="st3" d="M791.4,65.1c4.6,0,8.3,3.7,8.3,8.3v170.2h-50.1V73.4c0-4.6,3.7-8.3,8.3-8.3H791.4z"/>
				</g>
				<g>
				</g>
			</g>
			<g id="XMLID_2_">
				<g>
					<path class="st3" d="M815.2,34.7c0-4.6,3.7-8.3,8.3-8.3H857c4.6,0,8.3,3.7,8.3,8.3v208.9h-50.1V34.7z"/>
				</g>
				<g>
				</g>
			</g>
			<g id="XMLID_1_">
				<g>
					<path class="st4" d="M922.9,0c4.6,0,8.3,3.7,8.3,8.3v235.3h-50.1V8.3c0-4.6,3.7-8.3,8.3-8.3H922.9z"/>
				</g>
				<g>
				</g>
			</g>
		</g>
	</g>
	<g>
		<linearGradient id="SVGID_1_" gradientUnits="userSpaceOnUse" x1="693.239" y1="211.3166" x2="920.5063" y2="-15.9508">
			<stop  offset="0" style="stop-color:#0A84F2"/>
			<stop  offset="0.3459" style="stop-color:#005EB8"/>
			<stop  offset="0.4819" style="stop-color:#01529F"/>
			<stop  offset="0.7024" style="stop-color:#01427C"/>
			<stop  offset="0.883" style="stop-color:#023966"/>
			<stop  offset="1" style="stop-color:#02355E"/>
		</linearGradient>
		<path class="st5" d="M923.1,73.3l-60.2-4.5l17.5,22.6c-94.3,75.7-204.9,109.2-321.7,111.1c116.9,6.7,235.9-15.2,337.5-90.6
			l17.3,22.5L923.1,73.3z"/>
	</g>
	<path class="st6" d="M419.9,18.7h-10.7c-8.2,0-14.8-10.3-14.8-2.2c0,8.2,6.7,14.8,14.8,14.8c52.4,0-25.6,0,26.8,0
		c6.7,0,12.3,5.5,12.3,12.3c0,6.7-5.5,12.3-12.3,12.3h-67.6c-11.4,0-20.6,9.3-20.6,20.6c0,11.4-19.7,37.6-8.4,37.6
		c25.1,0,13,0,38.1,0c5.8,0,10.6,4.8,10.6,10.6c0,5.8-4.8,10.6-10.6,10.6h-11.5c-12.6,0-49.9,10.3-49.9,22.9
		c0,12.6,113,22.9,125.6,22.9h73c5.8,0,10.6,4.8,10.6,10.6s-4.8,10.6-10.6,10.6h-85.2c-11.3,0-20.6,9.3-20.6,20.6
		c0,11.3,9.3,20.6,20.6,20.6h36.7c6.7,0,12.3,5.5,12.3,12.3c0,6.7-5.5,12.3-12.3,12.3H38.7c-6.7,0-12.3-5.5-12.3-12.3
		c0-6.7,5.5-12.3,12.3-12.3h42.6c11.4,0,20.6-9.3,20.6-20.6c0-11.4-9.3-20.6-20.6-20.6h-11c-5.8,0-10.6-4.8-10.6-10.6
		s4.8-10.6,10.6-10.6c5.7,0,11.3,0,17,0c12.6,0,22.9-10.3,22.9-22.9c0-12.6-10.3-22.9-22.9-22.9H10.6c-5.8,0-10.6-4.8-10.6-10.6
		c0-5.8,4.8-10.6,10.6-10.6h54.5c11.3,0,20.6-9.3,20.6-20.6s-9.3-20.6-20.6-20.6h-9.3c-6.7,0-12.3-5.5-12.3-12.3
		c0-6.7,5.5-12.3,12.3-12.3H167c8.1,0,14.8-6.7,14.8-14.8c0-8.2-6.7-14.8-14.8-14.8h-27c-4.8,0-8.8-4-8.8-8.8c0-4.8,4-8.8,8.8-8.8
		h279.9c4.8,0,8.8,4,8.8,8.8C428.7,14.7,424.7,18.7,419.9,18.7L419.9,18.7z M407.8,135.3h6.7c5.8,0,10.6-4.8,10.6-10.6
		c0-5.8-4.8-10.6-10.6-10.6h-6.7c-5.8,0-10.6,4.8-10.6,10.6C397.3,130.5,402,135.3,407.8,135.3L407.8,135.3z M20.6,181.1
		c-5.8,0-10.6,4.8-10.6,10.6s4.8,10.6,10.6,10.6h6.7c5.8,0,10.6-4.8,10.6-10.6c0-5.8-4.8-10.6-10.6-10.6H20.6z"/>
	<g>
		<rect x="77.5" y="201.5" class="st7" width="138.8" height="78.5"/>
		<path class="st8" d="M77.5,201.5h138.8v-9.3c0-2.7-2.2-4.9-4.9-4.9H82.4c-2.7,0-4.9,2.2-4.9,4.9V201.5z"/>
		<path class="st9" d="M86.5,191.6c1.6,0,2.8,1.3,2.8,2.8c0,1.6-1.3,2.8-2.8,2.8c-1.6,0-2.8-1.3-2.8-2.8
			C83.6,192.9,84.9,191.6,86.5,191.6L86.5,191.6z M104.3,191.6c1.6,0,2.8,1.3,2.8,2.8c0,1.6-1.3,2.8-2.8,2.8c-1.6,0-2.8-1.3-2.8-2.8
			C101.5,192.9,102.7,191.6,104.3,191.6L104.3,191.6z M95.4,191.6c1.6,0,2.8,1.3,2.8,2.8c0,1.6-1.3,2.8-2.8,2.8
			c-1.6,0-2.8-1.3-2.8-2.8C92.5,192.9,93.8,191.6,95.4,191.6z"/>
		<g>
			<g>
				<g>
					<rect x="99" y="213.4" class="st10" width="23.2" height="3.9"/>
					<rect x="129.2" y="213.4" class="st10" width="23.2" height="3.9"/>
				</g>
				<g>
					<rect x="109.6" y="224.1" class="st10" width="23.2" height="3.9"/>
					<rect x="139.7" y="224.1" class="st10" width="23.2" height="3.9"/>
				</g>
				<g>
					<rect x="124.9" y="234.7" class="st10" width="23.2" height="3.9"/>
					<rect x="155" y="234.7" class="st10" width="23.2" height="3.9"/>
				</g>
				<g>
					<rect x="99" y="256" class="st10" width="23.2" height="3.9"/>
					<rect x="129.2" y="256" class="st10" width="23.2" height="3.9"/>
				</g>
				<g>
					<rect x="109.6" y="245.4" class="st10" width="23.2" height="3.9"/>
					<rect x="139.7" y="245.4" class="st10" width="23.2" height="3.9"/>
				</g>
			</g>
			<rect x="86.9" y="207.8" class="st11" width="3" height="61.8"/>
		</g>
	</g>
	<g>
		<g>
			<path class="st10" d="M457.8,260.2v-145c0-4.6-3.8-8.4-8.4-8.4H218.6c-4.6,0-8.4,3.8-8.4,8.4v145l-21.7,8.1
				c0,6.4,5.3,11.7,11.7,11.7h267.5c6.4,0,11.7-5.3,11.7-11.7L457.8,260.2z"/>
			<g>
				<defs>
					<rect id="SVGID_2_" x="222.1" y="118.1" width="225" height="130.8"/>
				</defs>
				<use xlink:href="#SVGID_2_"  style="overflow:visible;fill-rule:evenodd;clip-rule:evenodd;fill:#02355E;"/>
				<clipPath id="SVGID_3_">
					<use xlink:href="#SVGID_2_"  style="overflow:visible;"/>
				</clipPath>
			</g>
		</g>
		<g>
			<rect x="252.8" y="21" class="st7" width="161.7" height="228.6"/>
			<path class="st12" d="M252.8,21h161.7V9c0-4.2-3.4-7.6-7.6-7.6H260.4c-4.2,0-7.6,3.4-7.6,7.6V21z"/>
			<rect x="263.1" y="33.3" class="st8" width="141.2" height="31.3"/>
			<g>
				<rect x="337.8" y="72.6" class="st13" width="66.4" height="31.3"/>
			</g>
			<rect x="263.1" y="72.6" class="st14" width="66.4" height="31.3"/>
			<path class="st10" d="M275.6,185.2h116.1v7.5H275.6V185.2L275.6,185.2z M275.6,168.7h116.1v7.5H275.6V168.7L275.6,168.7z
				 M275.6,152.3h116.1v7.5H275.6V152.3L275.6,152.3z M275.6,135.8h116.1v7.5H275.6V135.8z"/>
			<g id="XMLID_5_">
				<g>
					<rect x="305.5" y="119.4" class="st15" width="56.4" height="7.5"/>
				</g>
				<g>
				</g>
			</g>
			<rect x="263.1" y="208.2" class="st11" width="29.5" height="29.5"/>
			<rect x="374.7" y="208.2" class="st11" width="29.5" height="29.5"/>
			<rect x="300.3" y="208.2" class="st11" width="29.5" height="29.5"/>
			<rect x="337.5" y="208.2" class="st11" width="29.5" height="29.5"/>
			<g>
				<g>
					<path class="st16" d="M288.7,234.9c-0.3,0-0.5-0.1-0.7-0.3l-21.8-21.8c-0.4-0.4-0.4-1,0-1.4c0.4-0.4,1-0.4,1.4,0l21.8,21.8
						c0.4,0.4,0.4,1,0,1.4C289.2,234.8,289,234.9,288.7,234.9z"/>
				</g>
				<g>
					<path class="st16" d="M266.9,234.9c-0.3,0-0.5-0.1-0.7-0.3c-0.4-0.4-0.4-1,0-1.4l21.8-21.8c0.4-0.4,1-0.4,1.4,0
						c0.4,0.4,0.4,1,0,1.4l-21.8,21.8C267.4,234.8,267.2,234.9,266.9,234.9z"/>
				</g>
			</g>
			<g>
				<g>
					<path class="st16" d="M326.5,234.9c-0.3,0-0.5-0.1-0.7-0.3L304,212.8c-0.4-0.4-0.4-1,0-1.4c0.4-0.4,1-0.4,1.4,0l21.8,21.8
						c0.4,0.4,0.4,1,0,1.4C327,234.8,326.7,234.9,326.5,234.9z"/>
				</g>
				<g>
					<path class="st16" d="M304.7,234.9c-0.3,0-0.5-0.1-0.7-0.3c-0.4-0.4-0.4-1,0-1.4l21.8-21.8c0.4-0.4,1-0.4,1.4,0
						c0.4,0.4,0.4,1,0,1.4l-21.8,21.8C305.2,234.8,304.9,234.9,304.7,234.9z"/>
				</g>
			</g>
			<g>
				<g>
					<path class="st16" d="M364.2,234.9c-0.3,0-0.5-0.1-0.7-0.3l-21.8-21.8c-0.4-0.4-0.4-1,0-1.4c0.4-0.4,1-0.4,1.4,0l21.8,21.8
						c0.4,0.4,0.4,1,0,1.4C364.7,234.8,364.5,234.9,364.2,234.9z"/>
				</g>
				<g>
					<path class="st16" d="M342.4,234.9c-0.3,0-0.5-0.1-0.7-0.3c-0.4-0.4-0.4-1,0-1.4l21.8-21.8c0.4-0.4,1-0.4,1.4,0
						c0.4,0.4,0.4,1,0,1.4l-21.8,21.8C343,234.8,342.7,234.9,342.4,234.9z"/>
				</g>
			</g>
			<g>
				<g>
					<path class="st16" d="M402,234.9c-0.3,0-0.5-0.1-0.7-0.3l-21.8-21.8c-0.4-0.4-0.4-1,0-1.4c0.4-0.4,1-0.4,1.4,0l21.8,21.8
						c0.4,0.4,0.4,1,0,1.4C402.5,234.8,402.2,234.9,402,234.9z"/>
				</g>
				<g>
					<path class="st16" d="M380.2,234.9c-0.3,0-0.5-0.1-0.7-0.3c-0.4-0.4-0.4-1,0-1.4l21.8-21.8c0.4-0.4,1-0.4,1.4,0
						c0.4,0.4,0.4,1,0,1.4l-21.8,21.8C380.7,234.8,380.5,234.9,380.2,234.9z"/>
				</g>
			</g>
			<path class="st17" d="M404.1,7c2.3,0,4.2,1.9,4.2,4.2c0,2.3-1.9,4.2-4.2,4.2c-2.3,0-4.2-1.9-4.2-4.2C399.9,8.9,401.8,7,404.1,7
				L404.1,7z M379.3,7c2.3,0,4.2,1.9,4.2,4.2c0,2.3-1.9,4.2-4.2,4.2c-2.3,0-4.2-1.9-4.2-4.2C375.1,8.9,377,7,379.3,7L379.3,7z
				 M391.7,7c2.3,0,4.2,1.9,4.2,4.2c0,2.3-1.9,4.2-4.2,4.2c-2.3,0-4.2-1.9-4.2-4.2C387.5,8.9,389.4,7,391.7,7z"/>
		</g>
		<polygon class="st18" points="252.8,118.1 244.9,118.1 252.8,248.9 		"/>
		<polygon class="st18" points="414.5,118.1 422.3,118.1 414.5,248.9 		"/>
		<rect x="283.2" y="260.2" class="st19" width="96" height="4"/>
		<path class="st11" d="M479.5,260.2H355.9v0c0,2.1-1.7,3.8-3.8,3.8H313c-2.1,0-3.8-1.7-3.8-3.8v0H188.5v8.1h291V260.2L479.5,260.2z
			 M446.1,261.8c1.4,0,2.5,1.1,2.5,2.5c0,1.4-1.1,2.5-2.5,2.5c-1.4,0-2.5-1.1-2.5-2.5C443.6,262.9,444.8,261.8,446.1,261.8
			L446.1,261.8z M434.7,261.8c1.4,0,2.5,1.1,2.5,2.5c0,1.4-1.1,2.5-2.5,2.5c-1.4,0-2.5-1.1-2.5-2.5
			C432.3,262.9,433.4,261.8,434.7,261.8L434.7,261.8z M415,262.7h9.3c0.9,0,1.6,0.7,1.6,1.6l0,0c0,0.9-0.7,1.6-1.6,1.6H415
			c-0.9,0-1.6-0.7-1.6-1.6l0,0C413.5,263.4,414.2,262.7,415,262.7L415,262.7z M396.2,262.7h9.3c0.9,0,1.6,0.7,1.6,1.6l0,0
			c0,0.9-0.7,1.6-1.6,1.6h-9.3c-0.9,0-1.6-0.7-1.6-1.6l0,0C394.7,263.4,395.4,262.7,396.2,262.7z"/>
	</g>
	<g>
		<path class="st7" d="M514.6,144.7h-81c-6.1,0-11.1,5-11.1,11.1v0c0,6.1,5,11.1,11.1,11.1h81c6.1,0,11.1-5,11.1-11.1v0
			C525.7,149.7,520.7,144.7,514.6,144.7z"/>
		<path class="st12" d="M514.6,144.7h-16.3v22.3h16.3c6.1,0,11.1-5,11.1-11.1v0C525.7,149.7,520.7,144.7,514.6,144.7z"/>
		<path class="st9" d="M515.3,158l3.5,3.5c0.4,0.4,0.4,1.2,0,1.6c-0.4,0.4-1.2,0.4-1.6,0l-3.5-3.5c-1.1,0.7-2.3,1.1-3.5,1.1
			c-1.6,0-3.2-0.6-4.4-1.8l0,0c-1.2-1.2-1.8-2.8-1.8-4.4c0-1.6,0.6-3.2,1.8-4.4c1.2-1.2,2.8-1.8,4.4-1.8c1.6,0,3.2,0.6,4.4,1.8l0,0
			l0,0c1.2,1.2,1.8,2.8,1.8,4.4C516.4,155.7,516.1,156.9,515.3,158L515.3,158z M510.2,150.5c-1,0-2,0.4-2.8,1.2
			c-0.8,0.8-1.2,1.8-1.2,2.8c0,1,0.4,2,1.2,2.8c0.8,0.8,1.8,1.2,2.8,1.2c1,0,2-0.4,2.8-1.2c0.8-0.8,1.2-1.8,1.2-2.8
			c0-1-0.4-2-1.2-2.8l0,0C512.2,150.9,511.2,150.5,510.2,150.5z"/>
	</g>
	<path class="st20" d="M472.3,109c-0.5,0-0.8,0.4-0.8,0.8v13c0,0.5,0.4,0.8,0.8,0.8h21.8c0.5,0,0.8-0.4,0.8-0.8v-13
		c0-0.5-0.4-0.8-0.8-0.8H472.3L472.3,109z M473.5,122l5.8-9.6l5.1,9.6H473.5L473.5,122z M486.3,122l-3.2-6.9l3.5-4.5l6.3,11.4H486.3
		L486.3,122z M472.3,106.2h21.8c2,0,3.7,1.6,3.7,3.7v13c0,2-1.6,3.7-3.7,3.7h-21.8c-2,0-3.7-1.6-3.7-3.7v-13
		C468.7,107.8,470.3,106.2,472.3,106.2z"/>
	<g>
		<g>
			<path class="st21" d="M518,231.6l-30.8-29.9c-3.7-3.6-9.5-3.6-13.2,0l-30.8,29.9l37.3,33.7L518,231.6z"/>
			<rect x="451.1" y="212.2" class="st17" width="59" height="57.4"/>
			<path class="st14" d="M518,231.6v43c0,2.9-2.4,5.3-5.3,5.3h-64c-2.9,0-5.3-2.4-5.3-5.3v-43l35.8,27.3c1,0.7,2.3,0.7,3.2,0
				L518,231.6z"/>
			<path class="st10" d="M476.2,233.4h-18.5v3.7h18.5V233.4L476.2,233.4z M457.8,225.7h45.7v3.7h-45.7V225.7L457.8,225.7z
				 M457.8,218.5h45.7v3.7h-45.7V218.5z"/>
		</g>
		<path class="st21" d="M483.3,258.1l28.3,21.7l-30.5-20.4c0.4-0.1,0.9-0.2,1.2-0.5L483.3,258.1L483.3,258.1z M480.2,259.4
			l-30.5,20.4l28.3-21.7l1.1,0.8C479.4,259.2,479.8,259.3,480.2,259.4z"/>
	</g>
	<g>
		<g>
			<path class="st19" d="M227.6,151.7h-51.4c-5.3,0-9.6,4.5-9.6,10.1v108.1c0,5.6,4.3,10.1,9.6,10.1h51.4c5.3,0,9.6-4.5,9.6-10.1
				V161.8C237.2,156.3,232.9,151.7,227.6,151.7z"/>
			<rect x="173.6" y="162.9" class="st22" width="56.6" height="99.1"/>
		</g>
		<path class="st10" d="M201.9,266.2c2.4,0,4.3,1.9,4.3,4.3c0,2.4-1.9,4.3-4.3,4.3c-2.4,0-4.3-1.9-4.3-4.3
			C197.6,268.1,199.5,266.2,201.9,266.2L201.9,266.2z"/>
		<path class="st10" d="M196.7,155.8H207c1,0,1.7,0.8,1.7,1.7l0,0c0,1-0.8,1.7-1.7,1.7h-10.3c-1,0-1.7-0.8-1.7-1.7l0,0
			C195,156.6,195.8,155.8,196.7,155.8L196.7,155.8z"/>
	</g>
	<g>
		<g>
			<rect x="180.2" y="179" class="st12" width="19" height="19"/>
			<rect x="204.6" y="179" class="st8" width="19" height="19"/>
		</g>
		<g>
			<rect x="180.2" y="204.1" class="st8" width="19" height="19"/>
			<rect x="204.6" y="204.1" class="st8" width="19" height="19"/>
		</g>
		<g>
			<rect x="180.2" y="229.2" class="st8" width="19" height="19"/>
			<rect x="204.6" y="229.2" class="st8" width="19" height="19"/>
		</g>
	</g>
	<g>
		<g>
			<path class="st23" d="M201.9,99.4c-8.9,0-16.1-7.2-16.1-16.1s7.2-16.1,16.1-16.1c8.9,0,16.1,7.2,16.1,16.1S210.8,99.4,201.9,99.4
				z M201.9,69.8c-7.4,0-13.5,6-13.5,13.5s6,13.5,13.5,13.5s13.5-6,13.5-13.5S209.3,69.8,201.9,69.8z"/>
		</g>
		<g>
			<path class="st23" d="M191.4,95.1c-0.3,0-0.7-0.1-1-0.4c-0.5-0.5-0.5-1.4,0-1.9l20.9-20.9c0.5-0.5,1.4-0.5,1.9,0
				c0.5,0.5,0.5,1.4,0,1.9l-20.9,20.9C192.1,95,191.8,95.1,191.4,95.1z"/>
		</g>
		<g>
			<path class="st23" d="M203.5,85.5l-4.4,4.4c0.6,1,1.6,1.7,2.8,1.7c1.8,0,3.2-1.4,3.2-3.2C205.1,87.1,204.4,86.1,203.5,85.5
				L203.5,85.5z"/>
		</g>
		<g>
			<path class="st23" d="M196.2,85.1c0.1-0.1,0.3-0.3,0.4-0.4l4.6-4.6c-2.6,0.1-5.1,1.2-7,3.1c-0.5,0.5-0.5,1.4,0,1.9
				C194.8,85.6,195.7,85.6,196.2,85.1L196.2,85.1z"/>
		</g>
		<g>
			<path class="st23" d="M207.4,81.6l-2,2c0.8,0.4,1.5,0.9,2.2,1.5c0.3,0.3,0.6,0.4,1,0.4c0.3,0,0.7-0.1,0.9-0.4
				c0.5-0.5,0.5-1.4,0-1.9C208.8,82.6,208.1,82.1,207.4,81.6L207.4,81.6z"/>
		</g>
		<g>
			<path class="st23" d="M211,78l-1.9,1.9c0.7,0.5,1.4,1,2,1.7c0.3,0.3,0.6,0.4,1,0.4c0.3,0,0.7-0.1,0.9-0.4c0.5-0.5,0.5-1.4,0-1.9
				C212.4,79,211.7,78.5,211,78L211,78z"/>
		</g>
		<g>
			<path class="st23" d="M192.7,81.6c2.5-2.5,5.7-3.8,9.2-3.8c0.6,0,1.1,0,1.6,0.1l2.3-2.3c-1.3-0.3-2.6-0.5-3.9-0.5
				c-4.2,0-8.1,1.6-11.1,4.6c-0.5,0.5-0.5,1.4,0,1.9C191.3,82.1,192.2,82.1,192.7,81.6L192.7,81.6z"/>
		</g>
	</g>
	<g>
		<g>
			<polygon class="st17" points="122.4,164.5 161.7,164.5 184,173.3 184.6,164.5 189.3,164.5 189.3,119.4 122.4,119.4 			"/>
			<g>
				<rect x="129.7" y="128.6" class="st8" width="52.3" height="11.6"/>
				<g>
					<rect x="157.4" y="143.1" class="st13" width="24.6" height="11.6"/>
				</g>
				<rect x="129.7" y="143.1" class="st14" width="24.6" height="11.6"/>
			</g>
		</g>
		<g>
			<path class="st12" d="M189.3,120.4H122v-10.3c0-3,2.4-5.4,5.4-5.4h56.6c3,0,5.4,2.4,5.4,5.4V120.4z"/>
			<path class="st9" d="M179.4,109.5c1.7,0,3.1,1.4,3.1,3.1c0,1.7-1.4,3.1-3.1,3.1c-1.7,0-3.1-1.4-3.1-3.1
				C176.3,110.9,177.7,109.5,179.4,109.5L179.4,109.5z M159.7,109.5c1.7,0,3.1,1.4,3.1,3.1c0,1.7-1.4,3.1-3.1,3.1
				c-1.7,0-3.1-1.4-3.1-3.1C156.6,110.9,158,109.5,159.7,109.5L159.7,109.5z M172.7,112.6c0,1.7-1.4,3.1-3.1,3.1
				c-1.7,0-3.1-1.4-3.1-3.1c0-1.7,1.4-3.1,3.1-3.1C171.3,109.5,172.7,110.9,172.7,112.6z"/>
		</g>
	</g>
	<path class="st13" d="M438.8,77.5c2.5,0,4.6,1.8,5.2,4.1c0.6-2.4,2.7-4.1,5.2-4.1c2.9,0,5.3,2.4,5.3,5.3c0,2.3-1.4,4.2-3.4,5
		c0.8,0.5,1.4,1.4,1.4,2.4v1l5.6-2.7v10.1l-5.6-2.7v1c0,1.5-1.2,2.7-2.7,2.7h-11.7c-1.5,0-2.7-1.2-2.7-2.7v-6.6c0-1,0.6-1.9,1.4-2.4
		c-2-0.8-3.4-2.7-3.4-5C433.5,79.8,435.9,77.5,438.8,77.5L438.8,77.5z M446.6,87.4c-1.3-0.7-2.2-2-2.6-3.4c-0.3,1.5-1.3,2.7-2.6,3.4
		H446.6z"/>
	<g>
		<path class="st24" d="M463.4,30.4V0.5h8.1v29.9H463.4z"/>
		<path class="st24" d="M491,30.4l-6.1-21.6h-0.2c0.3,3.7,0.4,6.5,0.4,8.6v13H478V0.5h10.8l6.2,21.3h0.2l6.1-21.3h10.8v29.9h-7.4
			V17.3c0-0.7,0-1.4,0-2.3c0-0.8,0.1-2.9,0.3-6.1h-0.2l-6,21.5H491z"/>
		<path class="st24" d="M540.2,10c0,3.3-1,5.9-3,7.8c-2,1.8-4.8,2.7-8.4,2.7h-2.3v9.9h-8.1V0.5h10.4c3.8,0,6.6,0.8,8.5,2.5
			C539.3,4.6,540.2,6.9,540.2,10z M526.6,13.9h1.5c1.2,0,2.2-0.3,2.9-1c0.7-0.7,1.1-1.6,1.1-2.8c0-2-1.1-3-3.4-3h-2.1V13.9z"/>
		<path class="st24" d="M553.1,19.5v10.9H545V0.5h9.8c8.1,0,12.2,2.9,12.2,8.8c0,3.5-1.7,6.2-5.1,8l8.7,13h-9.2l-6.3-10.9H553.1z
			 M553.1,13.4h1.5c2.8,0,4.2-1.2,4.2-3.7c0-2.1-1.4-3.1-4.2-3.1h-1.6V13.4z"/>
		<path class="st24" d="M601.4,15.4c0,5-1.2,8.9-3.7,11.5c-2.5,2.6-6.1,3.9-10.9,3.9c-4.7,0-8.3-1.3-10.8-4
			c-2.5-2.6-3.8-6.5-3.8-11.5c0-5,1.2-8.8,3.7-11.4c2.5-2.6,6.1-3.9,10.9-3.9c4.8,0,8.4,1.3,10.8,3.9
			C600.2,6.5,601.4,10.3,601.4,15.4z M580.8,15.4c0,5.8,2,8.7,6,8.7c2,0,3.6-0.7,4.6-2.1c1-1.4,1.5-3.6,1.5-6.6c0-3-0.5-5.2-1.5-6.6
			c-1-1.4-2.5-2.1-4.5-2.1C582.8,6.6,580.8,9.6,580.8,15.4z"/>
		<path class="st24" d="M623.6,0.5h9.1l-9.8,29.9h-9.5l-9.8-29.9h9.1l4.1,15.2c0.8,3.4,1.3,5.7,1.4,7c0.1-1,0.3-2.2,0.6-3.6
			s0.5-2.6,0.8-3.4L623.6,0.5z"/>
		<path class="st24" d="M653.7,30.4h-17.8V0.5h17.8V7H644v4.7h9v6.5h-9v5.7h9.7V30.4z"/>
		<path class="st24" d="M657.5,10.8c0-1.2,0.4-2.2,1.1-2.9c0.8-0.7,1.8-1,3.2-1c1.4,0,2.4,0.3,3.1,1c0.7,0.7,1.1,1.6,1.1,2.9
			c0,1.2-0.4,2.2-1.1,2.9c-0.7,0.7-1.8,1-3.1,1c-1.4,0-2.5-0.3-3.2-1S657.5,12.1,657.5,10.8z M657.5,27c0-1.3,0.4-2.2,1.1-2.9
			c0.7-0.7,1.8-1,3.2-1c1.4,0,2.4,0.3,3.1,1c0.7,0.7,1.1,1.7,1.1,2.9c0,1.2-0.4,2.2-1.1,2.9c-0.7,0.7-1.8,1-3.1,1
			c-1.4,0-2.4-0.3-3.2-1C657.8,29.2,657.5,28.3,657.5,27z"/>
	</g>
	<g>
		<path class="st24" d="M569.3,269.5c0,3.5-0.8,6.1-2.5,7.9s-4.2,2.7-7.5,2.7c-3.2,0-5.7-0.9-7.4-2.7c-1.7-1.8-2.6-4.4-2.6-7.9
			c0-3.4,0.9-6,2.6-7.8c1.7-1.8,4.2-2.7,7.5-2.7c3.3,0,5.8,0.9,7.4,2.7C568.4,263.4,569.3,266.1,569.3,269.5z M555.1,269.5
			c0,4,1.4,6,4.2,6c1.4,0,2.5-0.5,3.1-1.4c0.7-1,1-2.5,1-4.5c0-2.1-0.3-3.6-1-4.6c-0.7-1-1.7-1.5-3.1-1.5
			C556.5,263.5,555.1,265.5,555.1,269.5z"/>
		<path class="st24" d="M578.5,279.8H573v-20.6h12.2v4.5h-6.7v3.9h6.2v4.5h-6.2V279.8z"/>
		<path class="st24" d="M596,259.3h7.2c2.8,0,4.9,0.4,6.2,1.2s2,2.1,2,3.9c0,1.2-0.3,2.1-0.9,3c-0.6,0.8-1.4,1.3-2.3,1.6v0.1
			c1.3,0.3,2.2,0.9,2.8,1.7c0.6,0.8,0.9,1.8,0.9,3.1c0,1.9-0.7,3.3-2.1,4.4c-1.4,1.1-3.3,1.6-5.7,1.6h-8V259.3z M601.6,267.2h1.7
			c0.8,0,1.4-0.2,1.9-0.5c0.4-0.3,0.7-0.8,0.7-1.5c0-1.2-0.9-1.7-2.6-1.7h-1.6V267.2z M601.6,271.2v4.3h2c1.7,0,2.6-0.7,2.6-2.2
			c0-0.7-0.2-1.2-0.7-1.6c-0.5-0.4-1.1-0.5-2-0.5H601.6z"/>
		<path class="st24" d="M632.9,259.3v12.4c0,2.7-0.8,4.8-2.3,6.3s-3.7,2.2-6.6,2.2c-2.8,0-5-0.7-6.5-2.2c-1.5-1.4-2.3-3.5-2.3-6.2
			v-12.5h5.6v12.1c0,1.5,0.3,2.5,0.8,3.2c0.5,0.7,1.3,1,2.4,1c1.1,0,2-0.3,2.5-1c0.5-0.7,0.8-1.7,0.8-3.2v-12H632.9z"/>
		<path class="st24" d="M650.7,273.6c0,1.3-0.3,2.4-1,3.4c-0.6,1-1.6,1.8-2.8,2.3c-1.2,0.5-2.7,0.8-4.3,0.8c-1.4,0-2.5-0.1-3.4-0.3
			c-0.9-0.2-1.9-0.5-2.9-1v-5c1.1,0.5,2.2,1,3.3,1.3s2.2,0.5,3.2,0.5c0.8,0,1.4-0.1,1.8-0.4s0.6-0.7,0.6-1.1c0-0.3-0.1-0.5-0.2-0.7
			c-0.2-0.2-0.4-0.4-0.7-0.6c-0.3-0.2-1.3-0.7-2.7-1.3c-1.3-0.6-2.3-1.2-3-1.8c-0.7-0.6-1.2-1.2-1.5-2c-0.3-0.7-0.5-1.6-0.5-2.6
			c0-1.9,0.7-3.4,2.1-4.4c1.4-1.1,3.3-1.6,5.7-1.6c2.1,0,4.3,0.5,6.5,1.5l-1.7,4.3c-1.9-0.9-3.6-1.3-5-1.3c-0.7,0-1.2,0.1-1.6,0.4
			c-0.3,0.3-0.5,0.6-0.5,0.9c0,0.4,0.2,0.8,0.6,1.1c0.4,0.3,1.5,0.9,3.4,1.7c1.8,0.8,3,1.7,3.7,2.6
			C650.3,271,650.7,272.2,650.7,273.6z"/>
		<path class="st24" d="M653.9,279.8v-20.6h5.6v20.6H653.9z"/>
		<path class="st24" d="M683.5,279.8h-7.3l-7.5-14.5h-0.1c0.2,2.3,0.3,4,0.3,5.2v9.3h-4.9v-20.6h7.3l7.5,14.3h0.1
			c-0.1-2.1-0.2-3.7-0.2-5v-9.3h5V279.8z"/>
		<path class="st24" d="M700.1,279.8h-12.2v-20.6h12.2v4.5h-6.7v3.2h6.2v4.5h-6.2v3.9h6.7V279.8z"/>
		<path class="st24" d="M717.2,273.6c0,1.3-0.3,2.4-1,3.4c-0.6,1-1.6,1.8-2.8,2.3c-1.2,0.5-2.7,0.8-4.3,0.8c-1.4,0-2.5-0.1-3.4-0.3
			c-0.9-0.2-1.9-0.5-2.9-1v-5c1.1,0.5,2.2,1,3.3,1.3s2.2,0.5,3.2,0.5c0.8,0,1.4-0.1,1.8-0.4s0.6-0.7,0.6-1.1c0-0.3-0.1-0.5-0.2-0.7
			c-0.2-0.2-0.4-0.4-0.7-0.6c-0.3-0.2-1.3-0.7-2.7-1.3c-1.3-0.6-2.3-1.2-3-1.8c-0.7-0.6-1.2-1.2-1.5-2c-0.3-0.7-0.5-1.6-0.5-2.6
			c0-1.9,0.7-3.4,2.1-4.4s3.3-1.6,5.7-1.6c2.1,0,4.3,0.5,6.5,1.5l-1.7,4.3c-1.9-0.9-3.6-1.3-5-1.3c-0.7,0-1.2,0.1-1.6,0.4
			c-0.3,0.3-0.5,0.6-0.5,0.9c0,0.4,0.2,0.8,0.6,1.1c0.4,0.3,1.5,0.9,3.4,1.7c1.8,0.8,3,1.7,3.7,2.6
			C716.8,271,717.2,272.2,717.2,273.6z"/>
		<path class="st24" d="M733.8,273.6c0,1.3-0.3,2.4-1,3.4c-0.6,1-1.6,1.8-2.8,2.3c-1.2,0.5-2.7,0.8-4.3,0.8c-1.4,0-2.5-0.1-3.4-0.3
			c-0.9-0.2-1.9-0.5-2.9-1v-5c1.1,0.5,2.2,1,3.3,1.3s2.2,0.5,3.2,0.5c0.8,0,1.4-0.1,1.8-0.4s0.6-0.7,0.6-1.1c0-0.3-0.1-0.5-0.2-0.7
			c-0.2-0.2-0.4-0.4-0.7-0.6c-0.3-0.2-1.3-0.7-2.7-1.3c-1.3-0.6-2.3-1.2-3-1.8c-0.7-0.6-1.2-1.2-1.5-2c-0.3-0.7-0.5-1.6-0.5-2.6
			c0-1.9,0.7-3.4,2.1-4.4s3.3-1.6,5.7-1.6c2.1,0,4.3,0.5,6.5,1.5l-1.7,4.3c-1.9-0.9-3.6-1.3-5-1.3c-0.7,0-1.2,0.1-1.6,0.4
			c-0.3,0.3-0.5,0.6-0.5,0.9c0,0.4,0.2,0.8,0.6,1.1c0.4,0.3,1.5,0.9,3.4,1.7c1.8,0.8,3,1.7,3.7,2.6
			C733.5,271,733.8,272.2,733.8,273.6z"/>
		<path class="st24" d="M763.7,269.5c0,3.5-0.8,6.1-2.5,7.9c-1.7,1.8-4.2,2.7-7.5,2.7c-3.2,0-5.7-0.9-7.4-2.7
			c-1.7-1.8-2.6-4.4-2.6-7.9c0-3.4,0.9-6,2.6-7.8c1.7-1.8,4.2-2.7,7.5-2.7c3.3,0,5.8,0.9,7.4,2.7S763.7,266.1,763.7,269.5z
			 M749.6,269.5c0,4,1.4,6,4.2,6c1.4,0,2.5-0.5,3.1-1.4c0.7-1,1-2.5,1-4.5c0-2.1-0.3-3.6-1-4.6c-0.7-1-1.7-1.5-3.1-1.5
			C751,263.5,749.6,265.5,749.6,269.5z"/>
		<path class="st24" d="M782.4,265.8c0,2.3-0.7,4.1-2,5.3s-3.3,1.9-5.8,1.9H773v6.8h-5.6v-20.6h7.1c2.6,0,4.5,0.6,5.9,1.7
			S782.4,263.7,782.4,265.8z M773,268.5h1c0.8,0,1.5-0.2,2-0.7c0.5-0.5,0.7-1.1,0.7-1.9c0-1.4-0.8-2.1-2.3-2.1H773V268.5z"/>
		<path class="st24" d="M797.9,279.8h-12.2v-20.6h12.2v4.5h-6.7v3.2h6.2v4.5h-6.2v3.9h6.7V279.8z"/>
		<path class="st24" d="M807,272.3v7.5h-5.6v-20.6h6.7c5.6,0,8.4,2,8.4,6.1c0,2.4-1.2,4.2-3.5,5.5l6,9h-6.3l-4.4-7.5H807z
			 M807,268.2h1c1.9,0,2.9-0.9,2.9-2.6c0-1.4-1-2.1-2.9-2.1H807V268.2z"/>
		<path class="st24" d="M833.6,279.8l-1-3.9h-6.7l-1,3.9h-6.1l6.7-20.7h7.4l6.8,20.7H833.6z M831.4,271.4l-0.9-3.4
			c-0.2-0.8-0.5-1.7-0.8-2.9c-0.3-1.2-0.5-2-0.6-2.6c-0.1,0.5-0.3,1.3-0.5,2.4c-0.2,1.1-0.8,3.3-1.7,6.5H831.4z"/>
		<path class="st24" d="M851,279.8h-5.6v-16h-5v-4.5H856v4.5h-5V279.8z"/>
		<path class="st24" d="M858.9,279.8v-20.6h5.6v20.6H858.9z"/>
		<path class="st24" d="M888.2,269.5c0,3.5-0.8,6.1-2.5,7.9c-1.7,1.8-4.2,2.7-7.5,2.7c-3.2,0-5.7-0.9-7.4-2.7
			c-1.7-1.8-2.6-4.4-2.6-7.9c0-3.4,0.9-6,2.6-7.8c1.7-1.8,4.2-2.7,7.5-2.7c3.3,0,5.8,0.9,7.4,2.7S888.2,266.1,888.2,269.5z
			 M874,269.5c0,4,1.4,6,4.2,6c1.4,0,2.5-0.5,3.1-1.4c0.7-1,1-2.5,1-4.5c0-2.1-0.3-3.6-1-4.6c-0.7-1-1.7-1.5-3.1-1.5
			C875.4,263.5,874,265.5,874,269.5z"/>
		<path class="st24" d="M911.5,279.8h-7.3l-7.5-14.5h-0.1c0.2,2.3,0.3,4,0.3,5.2v9.3h-4.9v-20.6h7.3l7.5,14.3h0.1
			c-0.1-2.1-0.2-3.7-0.2-5v-9.3h5V279.8z"/>
		<path class="st24" d="M929.4,273.6c0,1.3-0.3,2.4-1,3.4c-0.6,1-1.6,1.8-2.8,2.3c-1.2,0.5-2.7,0.8-4.3,0.8c-1.4,0-2.5-0.1-3.4-0.3
			c-0.9-0.2-1.9-0.5-2.9-1v-5c1.1,0.5,2.2,1,3.3,1.3s2.2,0.5,3.2,0.5c0.8,0,1.4-0.1,1.8-0.4s0.6-0.7,0.6-1.1c0-0.3-0.1-0.5-0.2-0.7
			c-0.2-0.2-0.4-0.4-0.7-0.6c-0.3-0.2-1.3-0.7-2.7-1.3c-1.3-0.6-2.3-1.2-3-1.8c-0.7-0.6-1.2-1.2-1.5-2c-0.3-0.7-0.5-1.6-0.5-2.6
			c0-1.9,0.7-3.4,2.1-4.4s3.3-1.6,5.7-1.6c2.1,0,4.3,0.5,6.5,1.5l-1.7,4.3c-1.9-0.9-3.6-1.3-5-1.3c-0.7,0-1.2,0.1-1.6,0.4
			c-0.3,0.3-0.5,0.6-0.5,0.9c0,0.4,0.2,0.8,0.6,1.1c0.4,0.3,1.5,0.9,3.4,1.7c1.8,0.8,3,1.7,3.7,2.6C929,271,929.4,272.2,929.4,273.6
			z"/>
	</g>
	<g>
		<path class="st3" d="M116.2,44.2h-3.9v-5.8h-4.5v5.8H104V29.9h3.9v5.3h4.5v-5.3h3.9V44.2z"/>
		<path class="st3" d="M125.6,44.2h-3.9V33.1h-3.5v-3.2h10.8v3.2h-3.5V44.2z"/>
		<path class="st3" d="M137.3,44.2l-2.9-10.3h-0.1c0.1,1.8,0.2,3.1,0.2,4.1v6.2h-3.4V29.9h5.1l3,10.1h0.1l2.9-10.1h5.1v14.3h-3.5V38
			c0-0.3,0-0.7,0-1.1s0.1-1.4,0.1-2.9h-0.1L141,44.2H137.3z"/>
		<path class="st3" d="M150.4,44.2V29.9h3.9v11.2h5.5v3.1H150.4z"/>
	</g>
	<g>
		<path class="st16" d="M213,25.4c0,1.6-0.5,2.8-1.4,3.7s-2.3,1.3-4,1.3h-1.1v4.7h-3.9V20.8h4.9c1.8,0,3.2,0.4,4.1,1.2
			S213,23.9,213,25.4z M206.5,27.2h0.7c0.6,0,1-0.2,1.4-0.5s0.5-0.8,0.5-1.3c0-1-0.5-1.4-1.6-1.4h-1V27.2z"/>
		<path class="st16" d="M227.5,35.1h-3.9v-5.8h-4.5v5.8h-3.9V20.8h3.9v5.3h4.5v-5.3h3.9V35.1z"/>
		<path class="st16" d="M240.9,25.4c0,1.6-0.5,2.8-1.4,3.7s-2.3,1.3-4,1.3h-1.1v4.7h-3.9V20.8h4.9c1.8,0,3.2,0.4,4.1,1.2
			S240.9,23.9,240.9,25.4z M234.4,27.2h0.7c0.6,0,1-0.2,1.4-0.5s0.5-0.8,0.5-1.3c0-1-0.5-1.4-1.6-1.4h-1V27.2z"/>
	</g>
	<g>
		<path class="st16" d="M125.3,92.7c-0.7,0-1.4-0.1-2-0.2v-3c0.2,0,0.4,0.1,0.7,0.1s0.5,0.1,0.8,0.1c0.6,0,1.1-0.2,1.4-0.6
			s0.4-1,0.4-2V74h3.9v12.9c0,1.9-0.4,3.4-1.3,4.4S127,92.7,125.3,92.7z"/>
		<path class="st16" d="M142.8,83.9c0,0.9-0.2,1.7-0.7,2.4s-1.1,1.2-1.9,1.6s-1.8,0.6-3,0.6c-1,0-1.7-0.1-2.4-0.2s-1.3-0.4-2-0.7
			v-3.4c0.7,0.4,1.5,0.7,2.3,0.9s1.5,0.3,2.2,0.3c0.6,0,1-0.1,1.3-0.3s0.4-0.5,0.4-0.8c0-0.2-0.1-0.4-0.2-0.5s-0.3-0.3-0.5-0.4
			s-0.9-0.5-1.9-0.9c-0.9-0.4-1.6-0.8-2.1-1.2s-0.8-0.9-1-1.4s-0.3-1.1-0.3-1.8c0-1.3,0.5-2.3,1.4-3.1s2.3-1.1,3.9-1.1
			c1.5,0,3,0.3,4.5,1l-1.2,3c-1.3-0.6-2.5-0.9-3.5-0.9c-0.5,0-0.9,0.1-1.1,0.3s-0.3,0.4-0.3,0.7c0,0.3,0.1,0.5,0.4,0.8
			s1.1,0.6,2.4,1.2c1.2,0.6,2.1,1.1,2.6,1.8S142.8,83,142.8,83.9z"/>
	</g>
	<g>
		<path class="st3" d="M14.6,98.6c-0.9,0-1.6,0.4-2.1,1.1s-0.8,1.8-0.8,3.1c0,2.7,1,4.1,3.1,4.1c0.6,0,1.2-0.1,1.8-0.3
			s1.2-0.4,1.8-0.6v3.3c-1.2,0.5-2.5,0.8-4,0.8c-2.2,0-3.8-0.6-5-1.9s-1.7-3.1-1.7-5.4c0-1.5,0.3-2.8,0.8-3.9s1.4-2,2.4-2.6
			s2.3-0.9,3.7-0.9c1.5,0,3,0.3,4.4,1l-1.2,3c-0.5-0.2-1.1-0.5-1.6-0.6S15.2,98.6,14.6,98.6z"/>
		<path class="st3" d="M30.6,105.5c0,0.9-0.2,1.7-0.7,2.4s-1.1,1.2-1.9,1.6s-1.8,0.6-3,0.6c-1,0-1.7-0.1-2.4-0.2s-1.3-0.4-2-0.7
			v-3.4c0.7,0.4,1.5,0.7,2.3,0.9s1.5,0.3,2.2,0.3c0.6,0,1-0.1,1.3-0.3s0.4-0.5,0.4-0.8c0-0.2-0.1-0.4-0.2-0.5s-0.3-0.3-0.5-0.4
			s-0.9-0.5-1.9-0.9c-0.9-0.4-1.6-0.8-2.1-1.2s-0.8-0.9-1-1.4s-0.3-1.1-0.3-1.8c0-1.3,0.5-2.3,1.4-3.1s2.3-1.1,3.9-1.1
			c1.5,0,3,0.3,4.5,1l-1.2,3c-1.3-0.6-2.5-0.9-3.5-0.9c-0.5,0-0.9,0.1-1.1,0.3s-0.3,0.4-0.3,0.7c0,0.3,0.1,0.5,0.4,0.8
			s1.1,0.6,2.4,1.2c1.2,0.6,2.1,1.1,2.6,1.8S30.6,104.6,30.6,105.5z"/>
		<path class="st3" d="M42.1,105.5c0,0.9-0.2,1.7-0.7,2.4s-1.1,1.2-1.9,1.6s-1.8,0.6-3,0.6c-1,0-1.7-0.1-2.4-0.2s-1.3-0.4-2-0.7
			v-3.4c0.7,0.4,1.5,0.7,2.3,0.9s1.5,0.3,2.2,0.3c0.6,0,1-0.1,1.3-0.3s0.4-0.5,0.4-0.8c0-0.2-0.1-0.4-0.2-0.5s-0.3-0.3-0.5-0.4
			s-0.9-0.5-1.9-0.9c-0.9-0.4-1.6-0.8-2.1-1.2s-0.8-0.9-1-1.4s-0.3-1.1-0.3-1.8c0-1.3,0.5-2.3,1.4-3.1s2.3-1.1,3.9-1.1
			c1.5,0,3,0.3,4.5,1l-1.2,3c-1.3-0.6-2.5-0.9-3.5-0.9c-0.5,0-0.9,0.1-1.1,0.3s-0.3,0.4-0.3,0.7c0,0.3,0.1,0.5,0.4,0.8
			s1.1,0.6,2.4,1.2c1.2,0.6,2.1,1.1,2.6,1.8S42.1,104.6,42.1,105.5z"/>
	</g>
	<g>
		<path class="st4" d="M44.6,227.9c-0.9,0-1.6,0.4-2.1,1.1s-0.8,1.8-0.8,3.1c0,2.7,1,4.1,3.1,4.1c0.6,0,1.2-0.1,1.8-0.3
			s1.2-0.4,1.8-0.6v3.3c-1.2,0.5-2.5,0.8-4,0.8c-2.2,0-3.8-0.6-5-1.9s-1.7-3.1-1.7-5.4c0-1.5,0.3-2.8,0.8-3.9c0.6-1.1,1.4-2,2.4-2.6
			c1-0.6,2.3-0.9,3.7-0.9c1.5,0,3,0.3,4.4,1l-1.2,3c-0.5-0.2-1.1-0.5-1.6-0.6C45.8,228,45.2,227.9,44.6,227.9z"/>
		<path class="st4" d="M54,233.5h-3.6v-2.6H54v-3.6h2.6v3.6h3.6v2.6h-3.6v3.5H54V233.5z"/>
		<path class="st4" d="M65.4,233.5h-3.6v-2.6h3.6v-3.6H68v3.6h3.6v2.6H68v3.5h-2.6V233.5z"/>
	</g>
	<path class="st23" d="M664.6,233.4h-8.5v-14.3h8.5v3.1H660v2.2h4.3v3.1H660v2.7h4.6V233.4z"/>
	<path class="st23" d="M670.9,233.4h-3.8v-14.3h8.4v3.1h-4.6v2.7h4.3v3.1h-4.3V233.4z"/>
	<path class="st23" d="M681.7,233.4h-3.8v-14.3h8.4v3.1h-4.6v2.7h4.3v3.1h-4.3V233.4z"/>
	<path class="st23" d="M688.6,233.4v-14.3h3.9v14.3H688.6z"/>
	<path class="st23" d="M702,222.1c-0.9,0-1.6,0.4-2.1,1.1c-0.5,0.8-0.8,1.8-0.8,3.1c0,2.7,1,4.1,3.1,4.1c0.6,0,1.2-0.1,1.8-0.3
		c0.6-0.2,1.2-0.4,1.8-0.6v3.3c-1.2,0.5-2.5,0.8-4,0.8c-2.2,0-3.8-0.6-5-1.9c-1.1-1.3-1.7-3.1-1.7-5.4c0-1.5,0.3-2.8,0.8-3.9
		c0.6-1.1,1.4-2,2.4-2.6c1-0.6,2.3-0.9,3.7-0.9c1.5,0,3,0.3,4.4,1l-1.2,3c-0.5-0.2-1.1-0.5-1.6-0.6
		C703.1,222.2,702.6,222.1,702,222.1z"/>
	<path class="st23" d="M708.6,233.4v-14.3h3.9v14.3H708.6z"/>
	<path class="st23" d="M724,233.4h-8.5v-14.3h8.5v3.1h-4.6v2.2h4.3v3.1h-4.3v2.7h4.6V233.4z"/>
	<path class="st23" d="M740.1,233.4H735l-5.2-10.1h-0.1c0.1,1.6,0.2,2.8,0.2,3.6v6.4h-3.4v-14.3h5l5.2,9.9h0.1
		c-0.1-1.4-0.1-2.6-0.1-3.5v-6.5h3.4V233.4z"/>
	<path class="st23" d="M749.6,222.1c-0.9,0-1.6,0.4-2.1,1.1c-0.5,0.8-0.8,1.8-0.8,3.1c0,2.7,1,4.1,3.1,4.1c0.6,0,1.2-0.1,1.8-0.3
		c0.6-0.2,1.2-0.4,1.8-0.6v3.3c-1.2,0.5-2.5,0.8-4,0.8c-2.2,0-3.8-0.6-5-1.9c-1.1-1.3-1.7-3.1-1.7-5.4c0-1.5,0.3-2.8,0.8-3.9
		c0.6-1.1,1.4-2,2.4-2.6c1-0.6,2.3-0.9,3.7-0.9c1.5,0,3,0.3,4.4,1l-1.2,3c-0.5-0.2-1.1-0.5-1.6-0.6
		C750.7,222.2,750.2,222.1,749.6,222.1z"/>
	<path class="st23" d="M761.3,224.4l2.5-5.3h4.2l-4.7,8.7v5.6h-3.9v-5.5l-4.7-8.8h4.2L761.3,224.4z"/>
	<g>
		<g>
			<path class="st10" d="M711.2,211.6c19.3,0,35-15.7,35-35c0-19.3-15.7-35-35-35c-19.3,0-35,15.7-35,35
				C676.2,195.9,692,211.6,711.2,211.6z"/>
		</g>
	</g>
	<g>
		<path class="st25" d="M711.2,155.6c-11.6,0-21,9.4-21,21c0,11.6,9.4,21,21,21s21-9.4,21-21C732.2,165,722.8,155.6,711.2,155.6z"/>
		<g id="XMLID_7_">
			<g>
				<path class="st16" d="M717.8,170.3c0.6-0.4,1.3,0.3,0.9,0.9l-4.2,6.1c-0.1,0.1-0.1,0.3-0.1,0.4c0.1,1-0.3,2-1,2.8
					c-1.9,1.9-5.6,1.1-6.1-2.4c0-0.1,0-0.2,0-0.3c0.4-2.4,2.2-3.5,4-3.4c0.1,0,0.3,0,0.4-0.1L717.8,170.3z"/>
			</g>
			<g>
			</g>
		</g>
		<g id="XMLID_6_">
			<g>
				<path class="st26" d="M728.1,173.4c0.1,0.7-0.4,1.4-1.1,1.4h-3.1c-0.5,0-0.9-0.3-1.1-0.8c-2-5.8-7.5-9.9-13.9-9.9
					c-6.8,0-12.4,4.6-14.2,10.7h-0.5c0.8-8.7,8.2-15.5,17.1-15.5C719.7,159.2,726.7,165.3,728.1,173.4z"/>
			</g>
			<g>
			</g>
		</g>
	</g>
	<g>
		<path class="st23" d="M591.9,157.6c0,0.9-0.2,1.7-0.7,2.4c-0.4,0.7-1.1,1.2-1.9,1.6s-1.8,0.6-3,0.6c-1,0-1.7-0.1-2.4-0.2
			c-0.6-0.1-1.3-0.4-2-0.7v-3.4c0.7,0.4,1.5,0.7,2.3,0.9c0.8,0.2,1.5,0.3,2.2,0.3c0.6,0,1-0.1,1.3-0.3c0.3-0.2,0.4-0.5,0.4-0.8
			c0-0.2-0.1-0.4-0.2-0.5s-0.3-0.3-0.5-0.4c-0.2-0.1-0.9-0.5-1.9-0.9c-0.9-0.4-1.6-0.8-2.1-1.2c-0.5-0.4-0.8-0.9-1-1.4
			c-0.2-0.5-0.3-1.1-0.3-1.8c0-1.3,0.5-2.3,1.4-3.1c1-0.7,2.3-1.1,3.9-1.1c1.5,0,3,0.3,4.5,1l-1.2,3c-1.3-0.6-2.5-0.9-3.5-0.9
			c-0.5,0-0.9,0.1-1.1,0.3s-0.3,0.4-0.3,0.7c0,0.3,0.1,0.5,0.4,0.8c0.3,0.2,1.1,0.6,2.4,1.2c1.2,0.6,2.1,1.1,2.6,1.8
			S591.9,156.7,591.9,157.6z"/>
		<path class="st23" d="M604.4,152.2c0,1.6-0.5,2.8-1.4,3.7s-2.3,1.3-4,1.3h-1.1v4.7h-3.9v-14.3h4.9c1.8,0,3.2,0.4,4.1,1.2
			C604,149.7,604.4,150.8,604.4,152.2z M597.9,154.1h0.7c0.6,0,1-0.2,1.4-0.5c0.3-0.3,0.5-0.8,0.5-1.3c0-1-0.5-1.4-1.6-1.4h-1V154.1
			z"/>
		<path class="st23" d="M615.2,162h-8.5v-14.3h8.5v3.1h-4.6v2.2h4.3v3.1h-4.3v2.7h4.6V162z"/>
		<path class="st23" d="M626.2,162h-8.5v-14.3h8.5v3.1h-4.6v2.2h4.3v3.1h-4.3v2.7h4.6V162z"/>
		<path class="st23" d="M640.8,154.5c0,2.4-0.7,4.2-2,5.5c-1.3,1.3-3.2,1.9-5.5,1.9h-4.6v-14.3h4.9c2.3,0,4.1,0.6,5.3,1.8
			C640.2,150.6,640.8,152.3,640.8,154.5z M636.8,154.7c0-1.3-0.3-2.3-0.8-2.9c-0.5-0.6-1.3-0.9-2.4-0.9h-1.1v8h0.9
			c1.2,0,2-0.3,2.6-1C636.5,157.1,636.8,156.1,636.8,154.7z"/>
	</g>
	<g>
		<path class="st10" d="M611.4,138.4c19.3,0,35-15.7,35-35c0-19.3-15.7-35-35-35c-19.3,0-35,15.7-35,35
			C576.4,122.7,592.1,138.4,611.4,138.4z"/>
	</g>
	<g>
		<path class="st27" d="M612.3,84.3c-4.1,0-7.9,1.3-11,3.5h-10.2c-1.6,0-2.9,1.3-2.9,2.9c0,1.6,1.3,2.9,2.9,2.9h4.9
			c-0.9,1.6-1.6,3.4-2.1,5.3h-6.1c-1.6,0-2.9,1.3-2.9,2.9c0,1.6,1.3,2.9,2.9,2.9h5.8c0.2,1.9,0.6,3.6,1.3,5.3h-2.1
			c-1.6,0-2.9,1.3-2.9,2.9c0,1.6,1.3,2.9,2.9,2.9h5.8c3.4,3.6,8.2,5.8,13.6,5.8c10.3,0,18.7-8.4,18.7-18.7
			C630.9,92.7,622.6,84.4,612.3,84.3L612.3,84.3z"/>
		<g id="XMLID_8_">
			<g>
				<path class="st16" d="M612.2,88.8c7.8,0,14.2,6.4,14.2,14.2c0,7.8-6.4,14.2-14.2,14.2c-7.9,0-14.2-6.4-14.2-14.2
					C598,95.2,604.4,88.8,612.2,88.8z"/>
			</g>
			<g>
			</g>
		</g>
		<g>
			<path class="st28" d="M612.2,92.5c-5.8,0-10.5,4.7-10.5,10.5s4.7,10.5,10.5,10.5c5.8,0,10.5-4.7,10.5-10.5S618,92.5,612.2,92.5
				L612.2,92.5z M617.2,104.3H611v-8.6h2.5v6.2h3.7V104.3z"/>
		</g>
	</g>
	<g>
		<path class="st23" d="M839.9,214.5c0,0.9-0.2,1.7-0.7,2.4c-0.4,0.7-1.1,1.2-1.9,1.6c-0.8,0.4-1.8,0.6-3,0.6c-1,0-1.7-0.1-2.4-0.2
			c-0.6-0.1-1.3-0.4-2-0.7v-3.4c0.7,0.4,1.5,0.7,2.3,0.9c0.8,0.2,1.5,0.3,2.2,0.3c0.6,0,1-0.1,1.3-0.3c0.3-0.2,0.4-0.5,0.4-0.8
			c0-0.2-0.1-0.4-0.2-0.5s-0.3-0.3-0.5-0.4c-0.2-0.1-0.9-0.5-1.9-0.9c-0.9-0.4-1.6-0.8-2.1-1.2c-0.5-0.4-0.8-0.9-1-1.4
			c-0.2-0.5-0.3-1.1-0.3-1.8c0-1.3,0.5-2.3,1.4-3.1c1-0.7,2.3-1.1,3.9-1.1c1.5,0,3,0.3,4.5,1l-1.2,3c-1.3-0.6-2.5-0.9-3.5-0.9
			c-0.5,0-0.9,0.1-1.1,0.3c-0.2,0.2-0.3,0.4-0.3,0.7c0,0.3,0.1,0.5,0.4,0.8c0.3,0.2,1.1,0.6,2.4,1.2c1.2,0.6,2.1,1.1,2.6,1.8
			S839.9,213.5,839.9,214.5z"/>
		<path class="st23" d="M848.4,207.5c-0.9,0-1.6,0.4-2.1,1.1c-0.5,0.8-0.8,1.8-0.8,3.1c0,2.7,1,4.1,3.1,4.1c0.6,0,1.2-0.1,1.8-0.3
			c0.6-0.2,1.2-0.4,1.8-0.6v3.3c-1.2,0.5-2.5,0.8-4,0.8c-2.2,0-3.8-0.6-5-1.9c-1.1-1.3-1.7-3.1-1.7-5.4c0-1.5,0.3-2.8,0.8-3.9
			c0.6-1.1,1.4-2,2.4-2.6c1-0.6,2.3-0.9,3.7-0.9c1.5,0,3,0.3,4.4,1l-1.2,3c-0.5-0.2-1.1-0.5-1.6-0.6
			C849.6,207.6,849,207.5,848.4,207.5z"/>
		<path class="st23" d="M863.8,218.8l-0.7-2.7h-4.6l-0.7,2.7h-4.2l4.7-14.3h5.1l4.7,14.3H863.8z M862.3,213l-0.6-2.3
			c-0.1-0.5-0.3-1.2-0.5-2c-0.2-0.8-0.3-1.4-0.4-1.8c-0.1,0.3-0.2,0.9-0.3,1.6c-0.2,0.8-0.6,2.3-1.1,4.5H862.3z"/>
		<path class="st23" d="M869.6,218.8v-14.3h3.9v11.2h5.5v3.1H869.6z"/>
		<path class="st23" d="M889.7,218.8h-8.5v-14.3h8.5v3.1h-4.6v2.2h4.3v3.1h-4.3v2.7h4.6V218.8z"/>
	</g>
	<g>
		<g>
			<path class="st10" d="M859.8,196.8c19.3,0,35-15.7,35-35c0-19.3-15.7-35-35-35c-19.3,0-35,15.7-35,35
				C824.8,181.1,840.5,196.8,859.8,196.8z"/>
		</g>
	</g>
	<g>
		<g>
			<g>
				<path class="st28" d="M848.5,175h27.4c1,0,1.9-0.8,1.9-1.9v-27.4c0-1-0.8-1.9-1.9-1.9h-27.4c-1,0-1.9,0.8-1.9,1.9v27.4
					C846.6,174.2,847.5,175,848.5,175z M855.2,176.8h-10.4v-10.4h10.4V176.8z"/>
			</g>
			<g id="XMLID_9_">
				<g>
					<polygon class="st16" points="873.8,147.8 873.8,158.6 871,158.6 871,152.6 862.1,161.5 860.1,159.5 869,150.6 863.1,150.6 
						863.1,147.8 					"/>
				</g>
				<g>
				</g>
			</g>
		</g>
	</g>
	<g>
		<path class="st23" d="M724.6,104.5l-0.7-2.7h-4.6l-0.7,2.7h-4.2l4.7-14.3h5.1l4.7,14.3H724.6z M723.1,98.6l-0.6-2.3
			c-0.1-0.5-0.3-1.2-0.5-2s-0.3-1.4-0.4-1.8c-0.1,0.3-0.2,0.9-0.3,1.6c-0.2,0.8-0.6,2.3-1.1,4.5H723.1z"/>
		<path class="st23" d="M736.1,96.1h6.2v7.7c-1.7,0.6-3.5,0.9-5.5,0.9c-2.2,0-3.9-0.6-5.1-1.9s-1.8-3.1-1.8-5.5c0-2.3,0.7-4.1,2-5.4
			c1.3-1.3,3.2-1.9,5.5-1.9c0.9,0,1.7,0.1,2.5,0.3c0.8,0.2,1.5,0.4,2.1,0.6l-1.2,3c-1-0.5-2.2-0.8-3.4-0.8c-1.1,0-2,0.4-2.6,1.1
			s-0.9,1.8-0.9,3.1c0,1.3,0.3,2.4,0.8,3.1s1.4,1,2.4,1c0.6,0,1.1-0.1,1.6-0.2v-2.2h-2.5V96.1z"/>
		<path class="st23" d="M745.2,104.5V90.2h3.9v14.3H745.2z"/>
		<path class="st23" d="M752.2,104.5V90.2h3.9v11.2h5.5v3.1H752.2z"/>
		<path class="st23" d="M763.8,104.5V90.2h3.9v14.3H763.8z"/>
		<path class="st23" d="M777.1,104.5h-3.9V93.3h-3.5v-3.2h10.8v3.2h-3.5V104.5z"/>
		<path class="st23" d="M787.7,95.5l2.5-5.3h4.2l-4.7,8.7v5.6h-3.9V99l-4.7-8.8h4.2L787.7,95.5z"/>
	</g>
	<g>
		<g>
			<path class="st10" d="M753.7,82.8c19.3,0,35-15.7,35-35c0-19.3-15.7-35-35-35c-19.3,0-35,15.7-35,35
				C718.7,67,734.4,82.8,753.7,82.8z"/>
		</g>
	</g>
	<g id="Page-1">
		<g id="_x30_29---Lane-Split" transform="translate(0 -1)">
			<path id="Shape" class="st25" d="M742.1,29l-8.3,11.7c-0.1,0.2-0.2,0.5-0.1,0.7c0.1,0.2,0.4,0.4,0.6,0.4h4.1v2.1
				c0,5.1,2.2,10,6.1,13.4l1.7,1.5c2.1,1.8,3.3,4.4,3.3,7.2v2.1c0,0.4,0.3,0.7,0.7,0.7h6.9c0.4,0,0.7-0.3,0.7-0.7V66
				c0-5.1-2.2-10-6.1-13.4l-1.7-1.5c-2.1-1.8-3.3-4.4-3.3-7.2v-2.1h4.1c0.3,0,0.5-0.1,0.6-0.4c0.1-0.2,0.1-0.5-0.1-0.7L743.2,29
				c-0.1-0.2-0.3-0.3-0.6-0.3C742.4,28.8,742.2,28.9,742.1,29L742.1,29z"/>
			<g>
				<path class="st29" d="M773.6,40.8L765.3,29c-0.1-0.2-0.3-0.3-0.6-0.3c-0.2,0-0.4,0.1-0.6,0.3l-8.3,11.7
					c-0.1,0.1-0.1,0.3-0.1,0.4c0,0.2,0.1,0.4,0.2,0.5c0.1,0.1,0.3,0.2,0.5,0.2h4.1v2.1c0,2.8-1.2,5.4-3.3,7.2l-1.3,1.1
					c1.9,2.2,3.3,4.7,4.2,7.5c0.3-0.3,0.6-0.6,0.9-0.9l1.7-1.5c3.9-3.4,6.1-8.3,6.1-13.4v-2.1h4.1c0.3,0,0.5-0.1,0.6-0.4
					C773.7,41.3,773.7,41,773.6,40.8z"/>
			</g>
		</g>
	</g>
	<g>
		<rect x="842.8" y="165.8" class="st16" width="13" height="13"/>
		<path class="st27" d="M853.3,168.3v8h-8v-8H853.3 M856.3,163.3h-14c-1.1,0-2,0.9-2,2v14c0,1.1,0.9,2,2,2h14c1.1,0,2-0.9,2-2v-14
			C858.3,164.2,857.4,163.3,856.3,163.3L856.3,163.3z"/>
	</g>
</g>
</svg>
