<?xml version="1.0" standalone="no"?>
<!DOCTYPE svg PUBLIC "-//W3C//DTD SVG 20010904//EN"
 "http://www.w3.org/TR/2001/REC-SVG-20010904/DTD/svg10.dtd">
<svg version="1.0" xmlns="http://www.w3.org/2000/svg"
 width="739.000000pt" height="254.000000pt" viewBox="0 0 739.000000 254.000000"
 preserveAspectRatio="xMidYMid meet">

<g transform="translate(0.000000,254.000000) scale(0.100000,-0.100000)"
fill="#000000" stroke="none">
<path d="M1125 2533 c-281 -36 -530 -155 -734 -348 -402 -383 -505 -989 -253
-1490 82 -164 223 -331 376 -447 93 -70 291 -169 396 -198 250 -69 519 -66
728 8 112 40 184 85 268 168 129 127 176 259 209 584 8 85 29 227 45 315 54
288 64 485 35 665 -65 398 -331 665 -734 735 -76 14 -260 18 -336 8z m485
-828 c9 -11 12 -54 11 -150 l-2 -134 43 19 c135 61 305 -17 354 -163 20 -61
15 -187 -9 -234 -27 -51 -75 -101 -126 -131 -49 -29 -81 -31 -290 -21 -114 6
-108 -19 -101 420 5 343 6 368 24 388 23 25 78 28 96 6z m-298 -287 c69 -41
93 -120 51 -176 -28 -38 -82 -71 -208 -127 -60 -27 -114 -52 -118 -56 -5 -3 9
-15 30 -25 54 -26 153 -24 217 4 82 37 126 26 126 -30 0 -42 -46 -85 -115
-109 -82 -29 -219 -24 -285 10 -99 51 -135 110 -135 221 0 136 58 244 157 295
48 24 61 26 143 23 77 -3 98 -8 137 -30z m-1047 2 c12 -13 23 -60 36 -151 11
-73 21 -134 23 -136 2 -3 25 59 51 136 49 147 65 171 115 171 61 0 76 -29 110
-219 11 -63 21 -116 23 -117 2 -2 20 66 41 151 23 94 44 160 55 169 27 24 78
20 106 -9 14 -13 25 -28 25 -34 0 -21 -113 -389 -131 -427 -31 -65 -63 -94
-103 -94 -61 0 -105 75 -129 219 l-12 75 -45 -115 c-51 -129 -87 -179 -131
-179 -21 0 -34 9 -54 37 -35 52 -51 106 -80 273 -32 185 -33 234 -3 254 31 22
81 20 103 -4z"/>
<path d="M1683 1300 l-63 -32 0 -113 0 -113 33 -11 c72 -23 104 -23 150 -3
127 56 110 273 -23 297 -28 5 -48 -1 -97 -25z"/>
<path d="M1100 1302 c-30 -15 -86 -89 -75 -100 5 -6 205 90 205 98 0 6 -57 20
-85 20 -5 0 -26 -8 -45 -18z"/>
<path d="M5600 1272 l0 -168 74 -73 74 -73 87 3 87 4 1 -58 2 -57 -162 0 c-90
0 -163 -3 -163 -8 0 -4 31 -38 68 -75 l68 -68 165 3 164 3 3 295 2 294 -72 73
-72 73 -163 0 -163 0 0 -168z m325 -69 l0 -93 -92 0 -93 0 0 95 0 96 93 -3 92
-3 0 -92z"/>
</g>
</svg>
