<svg xmlns:dc="http://purl.org/dc/elements/1.1/" xmlns:cc="http://creativecommons.org/ns#" xmlns:rdf="http://www.w3.org/1999/02/22-rdf-syntax-ns#" xmlns:svg="http://www.w3.org/2000/svg" xmlns="http://www.w3.org/2000/svg" xmlns:xlink="http://www.w3.org/1999/xlink" id="svg1336277" viewBox="224 330 575 103" version="1.1">
  <metadata id="metadata1336283">
    <rdf:rdf>
      <cc:work rdf:about="">
        <dc:format>image/svg+xml</dc:format>
        <dc:type rdf:resource="http://purl.org/dc/dcmitype/StillImage"></dc:type>
      </cc:work>
    </rdf:rdf>
  </metadata>
  <defs id="defs1336281"></defs>
  <g id="logo-group">
    <image xlink:href="../nounpreview/781171.png" id="icon" width="200" height="200" x="412" y="0" style="display: none;"></image>
    <g id="title" style="font-style:normal;font-weight:800;font-size:72px;line-height:1;font-family:'Montserrat ExtraBold Alt1';font-variant-ligatures:none;text-align:center;text-anchor:middle">
      <path id="path1336285" style="font-style: normal; font-weight: 800; font-size: 72px; line-height: 1; font-family: &quot;Montserrat ExtraBold Alt1&quot;; font-variant-ligatures: none; text-align: center; text-anchor: middle; fill: rgb(54, 74, 81);" d="m 242.58219,-50.4 h -14.688 l 12.816,39.672 7.2,-22.608 z m 54.648,0 -10.584,32.472 -5.904,17.928 h 13.752 l 16.344,-50.4 z m -20.736,0 h -13.104 l -10.656,32.184 -5.616,18.216 h 12.384 l 10.08,-30.672 5.328,16.992 6.768,-20.016 z" transform="translate(0 281.5792727272727) translate(231.29693181818152 55.58981818181814) scale(0.90909090909091) translate(-227.89419 50.4)"></path>
      <path id="path1336287" style="font-style: normal; font-weight: 800; font-size: 72px; line-height: 1; font-family: &quot;Montserrat ExtraBold Alt1&quot;; font-variant-ligatures: none; text-align: center; text-anchor: middle; fill: rgb(54, 74, 81);" d="m 355.83594,-50.4 h -39.96 v 11.016 h 39.96 z m 0,19.512 h -39.96 v 10.656 h 39.96 z m -39.96,19.872 V 0 h 39.96 v -11.016 z" transform="translate(0 281.5792727272727) translate(315.82579545454524 55.58981818181814) scale(0.90909090909091) translate(-315.87594 50.4)"></path>
      <path id="path1336289" style="font-style: normal; font-weight: 800; font-size: 72px; line-height: 1; font-family: &quot;Montserrat ExtraBold Alt1&quot;; font-variant-ligatures: none; text-align: center; text-anchor: middle; fill: rgb(54, 74, 81);" d="m 409.75494,-21.528 c -1.656,-2.16 -3.96,-3.744 -6.768,-4.752 2.088,-1.08 3.816,-2.592 4.968,-4.464 1.152,-1.872 1.8,-4.032 1.8,-6.48 0,-4.032 -1.728,-7.2 -5.04,-9.576 -3.384,-2.376 -8.28,-3.6 -14.688,-3.6 h -25.776 v 10.296 h 23.904 c 4.752,0 7.2,1.656 7.2,4.824 0,3.312 -2.448,4.896 -7.2,4.896 h -23.904 v 9.864 h 26.064 c 4.968,0 7.488,1.728 7.488,5.112 0,3.456 -2.52,5.112 -7.488,5.112 h -26.064 V 0 h 27.216 c 6.696,0 11.808,-1.152 15.408,-3.6 3.528,-2.376 5.328,-5.76 5.328,-10.224 0,-3.024 -0.864,-5.544 -2.448,-7.704 z" transform="translate(0 281.5792727272727) translate(364.3485227272726 55.58981818181814) scale(0.90909090909091) translate(-364.25094 50.4)"></path>
      <path id="path1336291" style="font-style: normal; font-weight: 800; font-size: 72px; line-height: 1; font-family: &quot;Montserrat ExtraBold Alt1&quot;; font-variant-ligatures: none; text-align: center; text-anchor: middle; fill: rgb(54, 74, 81);" d="m 468.11319,-38.52 c -2.376,-3.744 -5.688,-6.696 -9.936,-8.784 -4.32,-2.016 -9.216,-3.096 -14.688,-3.096 h -23.832 v 11.376 h 23.256 c 4.32,0 7.776,1.224 10.368,3.672 2.592,2.52 3.96,5.904 3.96,10.152 0,4.32 -1.368,7.704 -3.96,10.152 -2.592,2.448 -6.048,3.672 -10.368,3.672 h -9 v -13.392 h -14.256 V 0 h 23.832 c 5.472,0 10.368,-1.008 14.688,-3.096 4.248,-2.016 7.56,-4.968 9.936,-8.784 2.304,-3.744 3.528,-8.208 3.528,-13.32 0,-5.04 -1.224,-9.504 -3.528,-13.32 z" transform="translate(0 281.5792727272727) translate(419.26329545454536 55.58981818181814) scale(0.90909090909091) translate(-419.65719 50.4)"></path>
      <path id="path1336293" style="font-style: normal; font-weight: 800; font-size: 72px; line-height: 1; font-family: &quot;Montserrat ExtraBold Alt1&quot;; font-variant-ligatures: none; text-align: center; text-anchor: middle; fill: rgb(54, 74, 81);" d="m 519.10156,-50.4 h -39.96 v 11.016 h 39.96 z m 0,19.512 h -39.96 v 10.656 h 39.96 z m -39.96,19.872 V 0 h 39.96 v -11.016 z" transform="translate(0 281.5792727272727) translate(477.88545 55.58981818181814) scale(0.90909090909091) translate(-479.14156 50.4)"></path>
      <path id="path1336295" style="font-style: normal; font-weight: 800; font-size: 72px; line-height: 1; font-family: &quot;Montserrat ExtraBold Alt1&quot;; font-variant-ligatures: none; text-align: center; text-anchor: middle; fill: rgb(54, 74, 81);" d="m 533.34856,-0.504 c 3.816,1.008 7.776,1.512 11.88,1.512 4.752,0 8.856,-0.72 12.24,-2.16 3.312,-1.44 5.832,-3.456 7.56,-5.904 1.656,-2.448 2.52,-5.184 2.52,-8.208 0,-3.456 -0.936,-6.264 -2.808,-8.28 -1.872,-2.016 -4.032,-3.528 -6.552,-4.464 -2.52,-0.936 -5.688,-1.8 -9.504,-2.664 -3.456,-0.72 -5.904,-1.368 -7.416,-2.088 -1.584,-0.648 -2.304,-1.656 -2.304,-3.024 0,-1.296 0.648,-2.376 1.944,-3.24 1.296,-0.864 3.312,-1.296 6.192,-1.296 4.464,0 9.144,1.296 13.968,3.888 l 4.392,-10.584 c -2.448,-1.44 -5.328,-2.52 -8.496,-3.24 -3.24,-0.72 -6.48,-1.152 -9.792,-1.152 -4.896,0 -9,0.72 -12.312,2.16 -3.312,1.44 -5.832,3.456 -7.488,5.904 -1.728,2.448 -2.52,5.256 -2.52,8.28 0,3.528 0.864,6.336 2.736,8.352 1.8,2.088 3.96,3.6 6.552,4.536 2.52,0.936 5.688,1.8 9.504,2.592 3.456,0.792 5.904,1.512 7.488,2.232 1.584,0.72 2.376,1.728 2.376,3.168 0,2.736 -2.736,4.104 -8.208,4.104 -2.88,0 -5.832,-0.432 -8.784,-1.368 -3.024,-0.864 -5.616,-2.088 -7.848,-3.6 l -4.68,10.512 c 2.376,1.728 5.472,3.024 9.36,4.032 z" transform="translate(0 281.5792727272727) translate(523.2009045454546 54.673454545454504) scale(0.90909090909091) translate(-523.98856 51.408)"></path>
      <path id="path1336297" style="font-style: normal; font-weight: 800; font-size: 72px; line-height: 1; font-family: &quot;Montserrat ExtraBold Alt1&quot;; font-variant-ligatures: none; text-align: center; text-anchor: middle; fill: rgb(54, 74, 81);" d="M 574.06344,-50.4 V 0 h 14.256 v -50.4 z" transform="translate(0 281.5792727272727) translate(573.2689772727274 55.58981818181814) scale(0.90909090909091) translate(-574.06344 50.4)"></path>
      <path id="path1336299" style="font-style: normal; font-weight: 800; font-size: 72px; line-height: 1; font-family: &quot;Montserrat ExtraBold Alt1&quot;; font-variant-ligatures: none; text-align: center; text-anchor: middle; fill: rgb(54, 74, 81);" d="m 632.30019,-26.28 v 13.824 c -2.448,1.152 -4.968,1.656 -7.704,1.656 -2.808,0 -5.256,-0.576 -7.416,-1.8 -2.16,-1.224 -3.888,-2.952 -5.04,-5.112 -1.224,-2.16 -1.8,-4.68 -1.8,-7.488 0,-4.32 1.296,-7.848 3.96,-10.44 2.592,-2.592 6.12,-3.96 10.44,-3.96 4.752,0 8.784,1.872 12.24,5.616 l 9.072,-8.208 c -2.52,-2.952 -5.616,-5.256 -9.36,-6.84 -3.744,-1.584 -7.992,-2.376 -12.672,-2.376 -5.4,0 -10.224,1.152 -14.472,3.384 -4.32,2.232 -7.632,5.328 -10.008,9.288 -2.448,4.032 -3.6,8.496 -3.6,13.536 0,5.04 1.152,9.576 3.6,13.536 2.376,4.032 5.688,7.128 9.936,9.36 4.176,2.232 8.928,3.312 14.256,3.312 3.744,0 7.488,-0.504 11.232,-1.656 3.744,-1.08 7.056,-2.664 9.936,-4.752 v -20.88 z" transform="translate(0 281.5792727272727) translate(597.7023863636366 54.673454545454504) scale(0.90909090909091) translate(-595.94019 51.408)"></path>
      <path id="path1336301" style="font-style: normal; font-weight: 800; font-size: 72px; line-height: 1; font-family: &quot;Montserrat ExtraBold Alt1&quot;; font-variant-ligatures: none; text-align: center; text-anchor: middle; fill: rgb(54, 74, 81);" d="m 686.91444,-45 c -4.176,-4.248 -9.936,-6.408 -17.136,-6.408 -3.672,0 -6.984,0.72 -10.008,2.16 -3.024,1.44 -5.4,3.456 -7.128,6.048 -1.728,2.592 -2.592,5.616 -2.592,9 0,3.168 0.72,5.904 2.304,8.352 1.584,2.448 3.672,4.32 6.336,5.616 2.592,1.296 5.544,1.944 8.712,1.944 4.608,0 8.424,-1.224 11.304,-3.672 -0.432,3.816 -1.728,6.696 -3.96,8.712 -2.232,2.016 -5.112,2.952 -8.712,2.952 -3.744,0 -6.84,-0.864 -9.288,-2.592 l -5.184,10.224 c 1.8,1.152 4.032,2.088 6.624,2.736 2.592,0.648 5.256,0.936 8.136,0.936 5.328,0 10.008,-1.08 14.04,-3.24 4.032,-2.16 7.2,-5.256 9.432,-9.432 2.232,-4.176 3.384,-9.144 3.384,-14.904 0,-7.992 -2.088,-14.112 -6.264,-18.432 z m -11.088,14.76 c -1.296,1.152 -3.024,1.728 -5.04,1.728 -2.088,0 -3.744,-0.576 -5.04,-1.728 -1.296,-1.152 -1.872,-2.664 -1.872,-4.608 0,-1.944 0.576,-3.528 1.872,-4.68 1.296,-1.152 2.952,-1.728 4.968,-1.728 2.16,0 3.816,0.648 5.112,1.8 1.296,1.152 1.944,2.664 1.944,4.536 0,1.944 -0.648,3.528 -1.944,4.68 z" transform="translate(0 281.5792727272727) translate(651.4389772727276 54.673454545454504) scale(0.90909090909091) translate(-650.05044 51.408)"></path>
      <path id="path1336303" style="font-style: normal; font-weight: 800; font-size: 72px; line-height: 1; font-family: &quot;Montserrat ExtraBold Alt1&quot;; font-variant-ligatures: none; text-align: center; text-anchor: middle; fill: rgb(54, 74, 81);" d="m 740.58594,-50.4 h -39.96 v 11.016 h 39.96 z m 0,19.512 h -39.96 v 10.656 h 39.96 z m -39.96,19.872 V 0 h 39.96 v -11.016 z" transform="translate(0 281.5792727272727) translate(701.9621590909095 55.58981818181814) scale(0.90909090909091) translate(-700.62594 50.4)"></path>
      <path id="path1336305" style="font-style: normal; font-weight: 800; font-size: 72px; line-height: 1; font-family: &quot;Montserrat ExtraBold Alt1&quot;; font-variant-ligatures: none; text-align: center; text-anchor: middle; fill: rgb(54, 74, 81);" d="m 784.56894,-15.84 c 3.096,-1.512 5.544,-3.6 7.272,-6.336 1.728,-2.736 2.592,-5.904 2.592,-9.576 0,-3.744 -0.936,-7.056 -2.736,-9.864 -1.872,-2.808 -4.464,-4.968 -7.776,-6.48 -3.384,-1.512 -7.344,-2.304 -11.88,-2.304 h -23.04 v 11.232 h 22.176 c 2.88,0 5.112,0.648 6.624,1.944 1.44,1.296 2.232,3.168 2.232,5.472 0,2.376 -0.792,4.176 -2.232,5.472 -1.512,1.296 -3.744,1.872 -6.624,1.872 h -22.176 V 0 h 14.256 v -13.392 h 7.776 L 780.17694,0 h 15.264 z" transform="translate(0 281.5792727272727) translate(750.4848863636367 55.58981818181814) scale(0.90909090909091) translate(-749.00094 50.4)"></path>
    </g>
    <g id="tagline" style="font-style:normal;font-weight:500;font-size:32px;line-height:1;font-family:Montserrat;font-variant-ligatures:none;text-align:center;text-anchor:middle">
      <path id="path1336308" style="font-style: normal; font-weight: 500; font-size: 32px; line-height: 1; font-family: Montserrat; font-variant-ligatures: none; text-align: center; text-anchor: middle; fill: rgb(54, 74, 81);" d="m 303.186,-22.4 q 4.224,0 6.528,2.016 2.336,2.016 2.336,5.696 0,3.84 -2.336,5.984 -2.304,2.112 -6.528,2.112 H 298.29 V 0 h -4.288 v -22.4 z m -0.224,12.032 q 2.432,0 3.712,-1.056 1.312,-1.056 1.312,-3.136 0,-2.048 -1.312,-3.072 -1.28,-1.024 -3.712,-1.024 h -4.672 v 8.288 z" transform="translate(0 351.47818181818184) translate(313.0115909090907 54.116363636363616) scale(0.90909090909091) translate(-294.002 22.4)"></path>
      <path id="path1336310" style="font-style: normal; font-weight: 500; font-size: 32px; line-height: 1; font-family: Montserrat; font-variant-ligatures: none; text-align: center; text-anchor: middle; fill: rgb(54, 74, 81);" d="m 319.627,-13.824 q 0.864,-1.664 2.336,-2.528 1.504,-0.896 3.488,-0.928 v 4.032 q -2.656,-0.16 -4.256,1.248 -1.568,1.376 -1.568,3.744 V 0 h -4.16 v -17.12 h 4.16 z" transform="translate(0 351.47818181818184) translate(332.5252272727271 58.77090909090907) scale(0.90909090909091) translate(-315.467 17.28)"></path>
      <path id="path1336312" style="font-style: normal; font-weight: 500; font-size: 32px; line-height: 1; font-family: Montserrat; font-variant-ligatures: none; text-align: center; text-anchor: middle; fill: rgb(54, 74, 81);" d="m 335.83,-17.248 q 2.656,0 4.672,1.088 2.048,1.088 3.168,3.072 1.152,1.952 1.152,4.512 0,2.592 -1.152,4.576 -1.12,1.984 -3.168,3.072 -2.016,1.088 -4.672,1.088 -2.688,0 -4.736,-1.088 -2.048,-1.088 -3.2,-3.072 -1.12,-1.984 -1.12,-4.576 0,-2.56 1.12,-4.512 1.152,-1.984 3.2,-3.072 2.048,-1.088 4.736,-1.088 z m 0,3.552 q -2.176,0 -3.52,1.44 -1.344,1.44 -1.344,3.744 0,2.304 1.344,3.744 1.344,1.44 3.52,1.44 2.112,0 3.456,-1.44 1.344,-1.44 1.344,-3.744 0,-2.304 -1.344,-3.744 -1.344,-1.44 -3.456,-1.44 z" transform="translate(0 351.47818181818184) translate(342.804318181818 58.79999999999998) scale(0.90909090909091) translate(-326.774 17.248)"></path>
      <path id="path1336314" style="font-style: normal; font-weight: 500; font-size: 32px; line-height: 1; font-family: Montserrat; font-variant-ligatures: none; text-align: center; text-anchor: middle; fill: rgb(54, 74, 81);" d="m 355.4155,-20.352 q -0.96,0 -1.6,0.544 -0.608,0.544 -0.608,1.632 v 1.76 h 4.288 v 3.04 h -4.288 V 0 h -4.16 v -13.376 h -2.24 v -3.04 h 2.24 v -1.632 q 0,-1.888 0.832,-3.2 0.832,-1.344 2.208,-2.016 1.408,-0.672 3.04,-0.672 1.6,0 3.136,0.736 l -0.736,3.36 q -1.28,-0.512 -2.112,-0.512 z" transform="translate(0 351.47818181818184) translate(361.0165909090908 52.719999999999985) scale(0.90909090909091) translate(-346.8075 23.936)"></path>
      <path id="path1336316" style="font-style: normal; font-weight: 500; font-size: 32px; line-height: 1; font-family: Montserrat; font-variant-ligatures: none; text-align: center; text-anchor: middle; fill: rgb(54, 74, 81);" d="m 366.7905,-17.248 q 4.096,0 6.144,2.336 2.08,2.336 2.08,6.56 0,0.832 -0.032,1.248 h -12.64 q 0.416,1.824 1.696,2.88 1.312,1.024 3.2,1.024 1.312,0 2.496,-0.48 1.216,-0.512 2.112,-1.44 l 2.24,2.336 q -1.28,1.408 -3.136,2.176 -1.824,0.768 -4.064,0.768 -2.624,0 -4.64,-1.088 -1.984,-1.088 -3.072,-3.04 -1.088,-1.984 -1.088,-4.544 0,-2.56 1.088,-4.544 1.12,-1.984 3.104,-3.072 1.984,-1.12 4.512,-1.12 z m 4.416,7.36 q -0.064,-1.888 -1.248,-3.008 -1.184,-1.12 -3.136,-1.12 -1.824,0 -3.072,1.12 -1.216,1.088 -1.504,3.008 z" transform="translate(0 351.47818181818184) translate(371.27022727272714 58.79999999999998) scale(0.90909090909091) translate(-358.0865 17.248)"></path>
      <path id="path1336318" style="font-style: normal; font-weight: 500; font-size: 32px; line-height: 1; font-family: Montserrat; font-variant-ligatures: none; text-align: center; text-anchor: middle; fill: rgb(54, 74, 81);" d="m 388.736,-12.48 q -1.248,-0.736 -2.592,-1.152 -1.312,-0.416 -2.432,-0.416 -1.056,0 -1.696,0.384 -0.608,0.352 -0.608,1.12 0,0.8 0.768,1.248 0.8,0.416 2.496,0.896 1.792,0.544 2.944,1.088 1.152,0.512 1.984,1.568 0.864,1.024 0.864,2.72 0,2.496 -1.92,3.84 -1.92,1.344 -4.832,1.344 -1.984,0 -3.872,-0.608 -1.888,-0.64 -3.2,-1.792 l 1.44,-2.912 q 1.152,0.992 2.752,1.568 1.6,0.544 3.04,0.544 1.152,0 1.824,-0.384 0.704,-0.416 0.704,-1.216 0,-0.896 -0.8,-1.344 -0.8,-0.448 -2.592,-0.992 -1.728,-0.512 -2.816,-0.992 -1.088,-0.512 -1.888,-1.504 -0.8,-1.024 -0.8,-2.656 0,-2.528 1.824,-3.84 1.856,-1.344 4.64,-1.344 1.696,0 3.328,0.48 1.664,0.48 2.944,1.344 z" transform="translate(0 351.47818181818184) translate(388.13704545454533 58.74181818181816) scale(0.90909090909091) translate(-376.64 17.312)"></path>
      <path id="path1336320" style="font-style: normal; font-weight: 500; font-size: 32px; line-height: 1; font-family: Montserrat; font-variant-ligatures: none; text-align: center; text-anchor: middle; fill: rgb(54, 74, 81);" d="m 404.1735,-12.48 q -1.248,-0.736 -2.592,-1.152 -1.312,-0.416 -2.432,-0.416 -1.056,0 -1.696,0.384 -0.608,0.352 -0.608,1.12 0,0.8 0.768,1.248 0.8,0.416 2.496,0.896 1.792,0.544 2.944,1.088 1.152,0.512 1.984,1.568 0.864,1.024 0.864,2.72 0,2.496 -1.92,3.84 -1.92,1.344 -4.832,1.344 -1.984,0 -3.872,-0.608 -1.888,-0.64 -3.2,-1.792 l 1.44,-2.912 q 1.152,0.992 2.752,1.568 1.6,0.544 3.04,0.544 1.152,0 1.824,-0.384 0.704,-0.416 0.704,-1.216 0,-0.896 -0.8,-1.344 -0.8,-0.448 -2.592,-0.992 -1.728,-0.512 -2.816,-0.992 -1.088,-0.512 -1.888,-1.504 -0.8,-1.024 -0.8,-2.656 0,-2.528 1.824,-3.84 1.856,-1.344 4.64,-1.344 1.696,0 3.328,0.48 1.664,0.48 2.944,1.344 z" transform="translate(0 351.47818181818184) translate(402.1711363636362 58.74181818181816) scale(0.90909090909091) translate(-392.0775 17.312)"></path>
      <path id="path1336322" style="font-style: normal; font-weight: 500; font-size: 32px; line-height: 1; font-family: Montserrat; font-variant-ligatures: none; text-align: center; text-anchor: middle; fill: rgb(54, 74, 81);" d="m 409.467,-17.12 h 4.16 V 0 h -4.16 z m 2.048,-7.36 q 1.024,0 1.696,0.704 0.672,0.704 0.672,1.792 0,1.056 -0.672,1.76 -0.672,0.704 -1.696,0.704 -1.024,0 -1.696,-0.704 -0.672,-0.704 -0.672,-1.76 0,-1.088 0.672,-1.792 0.672,-0.704 1.696,-0.704 z" transform="translate(0 351.47818181818184) translate(417.68886363636346 52.225454545454525) scale(0.90909090909091) translate(-409.147 24.48)"></path>
      <path id="path1336324" style="font-style: normal; font-weight: 500; font-size: 32px; line-height: 1; font-family: Montserrat; font-variant-ligatures: none; text-align: center; text-anchor: middle; fill: rgb(54, 74, 81);" d="m 426.2675,-17.248 q 2.656,0 4.672,1.088 2.048,1.088 3.168,3.072 1.152,1.952 1.152,4.512 0,2.592 -1.152,4.576 -1.12,1.984 -3.168,3.072 -2.016,1.088 -4.672,1.088 -2.688,0 -4.736,-1.088 -2.048,-1.088 -3.2,-3.072 -1.12,-1.984 -1.12,-4.576 0,-2.56 1.12,-4.512 1.152,-1.984 3.2,-3.072 2.048,-1.088 4.736,-1.088 z m 0,3.552 q -2.176,0 -3.52,1.44 -1.344,1.44 -1.344,3.744 0,2.304 1.344,3.744 1.344,1.44 3.52,1.44 2.112,0 3.456,-1.44 1.344,-1.44 1.344,-3.744 0,-2.304 -1.344,-3.744 -1.344,-1.44 -3.456,-1.44 z" transform="translate(0 351.47818181818184) translate(425.02022727272714 58.79999999999998) scale(0.90909090909091) translate(-417.2115 17.248)"></path>
      <path id="path1336326" style="font-style: normal; font-weight: 500; font-size: 32px; line-height: 1; font-family: Montserrat; font-variant-ligatures: none; text-align: center; text-anchor: middle; fill: rgb(54, 74, 81);" d="m 449.2085,-17.28 q 2.944,0 4.64,1.792 1.696,1.76 1.696,4.8 V 0 h -4.192 v -9.472 q 0,-1.792 -1.024,-2.816 -1.024,-1.056 -2.784,-1.056 -2.08,0.032 -3.296,1.408 -1.184,1.376 -1.184,3.52 V 0 h -4.16 v -17.12 h 4.16 v 3.2 q 1.76,-3.296 6.144,-3.36 z" transform="translate(0 351.47818181818184) translate(444.74113636363626 58.77090909090907) scale(0.90909090909091) translate(-438.9045 17.28)"></path>
      <path id="path1336328" style="font-style: normal; font-weight: 500; font-size: 32px; line-height: 1; font-family: Montserrat; font-variant-ligatures: none; text-align: center; text-anchor: middle; fill: rgb(54, 74, 81);" d="m 470.329,0 v -2.08 q -0.896,1.12 -2.304,1.696 -1.408,0.576 -3.232,0.576 -1.792,0 -3.168,-0.672 -1.344,-0.704 -2.08,-1.92 -0.736,-1.216 -0.736,-2.72 0,-2.4 1.696,-3.744 1.696,-1.376 4.8,-1.408 h 4.992 v -0.448 q 0,-1.504 -0.992,-2.336 -0.992,-0.832 -2.88,-0.832 -2.432,0 -5.088,1.6 l -1.504,-2.88 q 2.016,-1.12 3.648,-1.6 1.664,-0.512 3.872,-0.512 3.328,0 5.152,1.6 1.856,1.6 1.888,4.48 L 474.425,0 Z m -4.544,-3.008 q 1.792,0 3.072,-0.832 1.28,-0.864 1.44,-2.112 v -1.536 h -4.32 q -1.664,0 -2.464,0.512 -0.768,0.48 -0.768,1.6 0,1.088 0.8,1.728 0.832,0.64 2.24,0.64 z" transform="translate(0 351.47818181818184) translate(462.8361363636363 58.77090909090907) scale(0.90909090909091) translate(-458.809 17.28)"></path>
      <path id="path1336330" style="font-style: normal; font-weight: 500; font-size: 32px; line-height: 1; font-family: Montserrat; font-variant-ligatures: none; text-align: center; text-anchor: middle; fill: rgb(54, 74, 81);" d="m 479.252,-23.744 h 4.16 V 0 h -4.16 z" transform="translate(0 351.47818181818184) translate(481.4206818181817 52.89454545454544) scale(0.90909090909091) translate(-479.252 23.744)"></path>
      <path id="path1336332" style="font-style: normal; font-weight: 500; font-size: 32px; line-height: 1; font-family: Montserrat; font-variant-ligatures: none; text-align: center; text-anchor: middle; fill: rgb(54, 74, 81);" d="m 523.92,-22.4 h 4.448 L 520.784,0 h -4.448 L 511.216,-16.992 506,0 h -4.384 l -7.552,-22.4 h 4.608 l 5.28,17.76 5.248,-17.76 h 4.224 l 5.28,17.824 z" transform="translate(0 351.47818181818184) translate(494.8861363636363 54.116363636363616) scale(0.90909090909091) translate(-494.064 22.4)"></path>
      <path id="path1336334" style="font-style: normal; font-weight: 500; font-size: 32px; line-height: 1; font-family: Montserrat; font-variant-ligatures: none; text-align: center; text-anchor: middle; fill: rgb(54, 74, 81);" d="m 536.353,-17.248 q 4.096,0 6.144,2.336 2.08,2.336 2.08,6.56 0,0.832 -0.032,1.248 h -12.64 q 0.416,1.824 1.696,2.88 1.312,1.024 3.2,1.024 1.312,0 2.496,-0.48 1.216,-0.512 2.112,-1.44 l 2.24,2.336 q -1.28,1.408 -3.136,2.176 -1.824,0.768 -4.064,0.768 -2.624,0 -4.64,-1.088 -1.984,-1.088 -3.072,-3.04 -1.088,-1.984 -1.088,-4.544 0,-2.56 1.088,-4.544 1.12,-1.984 3.104,-3.072 1.984,-1.12 4.512,-1.12 z m 4.416,7.36 q -0.064,-1.888 -1.248,-3.008 -1.184,-1.12 -3.136,-1.12 -1.824,0 -3.072,1.12 -1.216,1.088 -1.504,3.008 z" transform="translate(0 351.47818181818184) translate(525.4179545454544 58.79999999999998) scale(0.90909090909091) translate(-527.649 17.248)"></path>
      <path id="path1336336" style="font-style: normal; font-weight: 500; font-size: 32px; line-height: 1; font-family: Montserrat; font-variant-ligatures: none; text-align: center; text-anchor: middle; fill: rgb(54, 74, 81);" d="m 558.2345,-17.248 q 2.4,0 4.224,1.12 1.856,1.088 2.848,3.072 1.024,1.984 1.024,4.576 0,2.56 -0.992,4.512 -0.992,1.952 -2.816,3.04 -1.824,1.088 -4.224,1.088 -1.92,0 -3.392,-0.736 -1.472,-0.768 -2.432,-2.208 V 0 h -4.16 v -23.744 h 4.16 v 9.44 q 0.928,-1.44 2.368,-2.176 1.472,-0.768 3.392,-0.768 z m -0.928,13.824 q 2.112,0 3.456,-1.44 1.344,-1.472 1.344,-3.744 0,-2.272 -1.344,-3.712 -1.344,-1.44 -3.456,-1.44 -2.144,0 -3.488,1.44 -1.344,1.44 -1.344,3.712 0,2.304 1.344,3.744 1.344,1.44 3.488,1.44 z" transform="translate(0 351.47818181818184) translate(544.2047727272726 52.89454545454544) scale(0.90909090909091) translate(-548.3145 23.744)"></path>
      <path id="path1336338" style="font-style: normal; font-weight: 500; font-size: 32px; line-height: 1; font-family: Montserrat; font-variant-ligatures: none; text-align: center; text-anchor: middle; fill: rgb(54, 74, 81);" d="m 587.2515,-22.4 q 3.36,0 6.016,1.44 2.656,1.408 4.16,3.968 1.504,2.56 1.504,5.792 0,3.232 -1.536,5.792 -1.504,2.528 -4.192,3.968 -2.688,1.44 -6.112,1.44 h -9.152 v -22.4 z m 0.096,18.624 q 2.048,0 3.68,-0.928 1.664,-0.96 2.592,-2.624 0.928,-1.696 0.928,-3.84 0,-2.144 -0.96,-3.84 -0.96,-1.728 -2.656,-2.656 -1.664,-0.96 -3.744,-0.96 h -4.96 v 14.848 z" transform="translate(0 351.47818181818184) translate(571.1365909090908 54.116363636363616) scale(0.90909090909091) translate(-577.9395 22.4)"></path>
      <path id="path1336340" style="font-style: normal; font-weight: 500; font-size: 32px; line-height: 1; font-family: Montserrat; font-variant-ligatures: none; text-align: center; text-anchor: middle; fill: rgb(54, 74, 81);" d="m 609.6655,-17.248 q 4.096,0 6.144,2.336 2.08,2.336 2.08,6.56 0,0.832 -0.032,1.248 h -12.64 q 0.416,1.824 1.696,2.88 1.312,1.024 3.2,1.024 1.312,0 2.496,-0.48 1.216,-0.512 2.112,-1.44 l 2.24,2.336 q -1.28,1.408 -3.136,2.176 -1.824,0.768 -4.064,0.768 -2.624,0 -4.64,-1.088 -1.984,-1.088 -3.072,-3.04 -1.088,-1.984 -1.088,-4.544 0,-2.56 1.088,-4.544 1.12,-1.984 3.104,-3.072 1.984,-1.12 4.512,-1.12 z m 4.416,7.36 q -0.064,-1.888 -1.248,-3.008 -1.184,-1.12 -3.136,-1.12 -1.824,0 -3.072,1.12 -1.216,1.088 -1.504,3.008 z" transform="translate(0 351.47818181818184) translate(592.0656818181818 58.79999999999998) scale(0.90909090909091) translate(-600.9615 17.248)"></path>
      <path id="path1336342" style="font-style: normal; font-weight: 500; font-size: 32px; line-height: 1; font-family: Montserrat; font-variant-ligatures: none; text-align: center; text-anchor: middle; fill: rgb(54, 74, 81);" d="m 631.611,-12.48 q -1.248,-0.736 -2.592,-1.152 -1.312,-0.416 -2.432,-0.416 -1.056,0 -1.696,0.384 -0.608,0.352 -0.608,1.12 0,0.8 0.768,1.248 0.8,0.416 2.496,0.896 1.792,0.544 2.944,1.088 1.152,0.512 1.984,1.568 0.864,1.024 0.864,2.72 0,2.496 -1.92,3.84 -1.92,1.344 -4.832,1.344 -1.984,0 -3.872,-0.608 -1.888,-0.64 -3.2,-1.792 l 1.44,-2.912 q 1.152,0.992 2.752,1.568 1.6,0.544 3.04,0.544 1.152,0 1.824,-0.384 0.704,-0.416 0.704,-1.216 0,-0.896 -0.8,-1.344 -0.8,-0.448 -2.592,-0.992 -1.728,-0.512 -2.816,-0.992 -1.088,-0.512 -1.888,-1.504 -0.8,-1.024 -0.8,-2.656 0,-2.528 1.824,-3.84 1.856,-1.344 4.64,-1.344 1.696,0 3.328,0.48 1.664,0.48 2.944,1.344 z" transform="translate(0 351.47818181818184) translate(608.9325 58.74181818181816) scale(0.90909090909091) translate(-619.515 17.312)"></path>
      <path id="path1336344" style="font-style: normal; font-weight: 500; font-size: 32px; line-height: 1; font-family: Montserrat; font-variant-ligatures: none; text-align: center; text-anchor: middle; fill: rgb(54, 74, 81);" d="m 636.9045,-17.12 h 4.16 V 0 h -4.16 z m 2.048,-7.36 q 1.024,0 1.696,0.704 0.672,0.704 0.672,1.792 0,1.056 -0.672,1.76 -0.672,0.704 -1.696,0.704 -1.024,0 -1.696,-0.704 -0.672,-0.704 -0.672,-1.76 0,-1.088 0.672,-1.792 0.672,-0.704 1.696,-0.704 z" transform="translate(0 351.47818181818184) translate(624.4502272727274 52.225454545454525) scale(0.90909090909091) translate(-636.5845 24.48)"></path>
      <path id="path1336346" style="font-style: normal; font-weight: 500; font-size: 32px; line-height: 1; font-family: Montserrat; font-variant-ligatures: none; text-align: center; text-anchor: middle; fill: rgb(54, 74, 81);" d="m 661.865,-17.12 v 15.488 q 0,2.432 -1.12,4.224 -1.088,1.824 -3.136,2.784 -2.016,0.992 -4.704,0.992 -3.904,0 -7.232,-2.272 l 1.664,-3.008 q 2.432,1.792 5.344,1.792 2.304,0 3.648,-1.184 1.376,-1.184 1.376,-3.232 v -2.016 q -0.864,1.312 -2.24,2.016 -1.376,0.672 -3.2,0.672 -2.24,0 -3.968,-1.024 -1.728,-1.056 -2.688,-2.912 -0.96,-1.888 -0.96,-4.32 0,-2.4 0.96,-4.224 0.96,-1.856 2.688,-2.88 1.728,-1.024 3.968,-1.024 1.792,0 3.168,0.704 1.408,0.704 2.272,1.984 v -2.56 z m -8.704,12.992 q 2.016,0 3.264,-1.344 1.28,-1.376 1.28,-3.552 0,-2.176 -1.28,-3.52 -1.248,-1.376 -3.264,-1.376 -2.016,0 -3.296,1.376 -1.248,1.376 -1.28,3.52 0.032,2.176 1.28,3.552 1.28,1.344 3.296,1.344 z" transform="translate(0 351.47818181818184) translate(631.7815909090909 58.79999999999998) scale(0.90909090909091) translate(-644.649 17.248)"></path>
      <path id="path1336348" style="font-style: normal; font-weight: 500; font-size: 32px; line-height: 1; font-family: Montserrat; font-variant-ligatures: none; text-align: center; text-anchor: middle; fill: rgb(54, 74, 81);" d="m 677.0835,-17.28 q 2.944,0 4.64,1.792 1.696,1.76 1.696,4.8 V 0 h -4.192 v -9.472 q 0,-1.792 -1.024,-2.816 -1.024,-1.056 -2.784,-1.056 -2.08,0.032 -3.296,1.408 -1.184,1.376 -1.184,3.52 V 0 h -4.16 v -17.12 h 4.16 v 3.2 q 1.76,-3.296 6.144,-3.36 z" transform="translate(0 351.47818181818184) translate(651.9002272727273 58.77090909090907) scale(0.90909090909091) translate(-666.7795 17.28)"></path>
      <path id="path1336350" style="font-style: normal; font-weight: 500; font-size: 32px; line-height: 1; font-family: Montserrat; font-variant-ligatures: none; text-align: center; text-anchor: middle; fill: rgb(54, 74, 81);" d="m 695.228,-17.248 q 4.096,0 6.144,2.336 2.08,2.336 2.08,6.56 0,0.832 -0.032,1.248 h -12.64 q 0.416,1.824 1.696,2.88 1.312,1.024 3.2,1.024 1.312,0 2.496,-0.48 1.216,-0.512 2.112,-1.44 l 2.24,2.336 q -1.28,1.408 -3.136,2.176 -1.824,0.768 -4.064,0.768 -2.624,0 -4.64,-1.088 -1.984,-1.088 -3.072,-3.04 -1.088,-1.984 -1.088,-4.544 0,-2.56 1.088,-4.544 1.12,-1.984 3.104,-3.072 1.984,-1.12 4.512,-1.12 z m 4.416,7.36 q -0.064,-1.888 -1.248,-3.008 -1.184,-1.12 -3.136,-1.12 -1.824,0 -3.072,1.12 -1.216,1.088 -1.504,3.008 z" transform="translate(0 351.47818181818184) translate(669.8497727272728 58.79999999999998) scale(0.90909090909091) translate(-686.524 17.248)"></path>
      <path id="path1336352" style="font-style: normal; font-weight: 500; font-size: 32px; line-height: 1; font-family: Montserrat; font-variant-ligatures: none; text-align: center; text-anchor: middle; fill: rgb(54, 74, 81);" d="m 711.1895,-13.824 q 0.864,-1.664 2.336,-2.528 1.504,-0.896 3.488,-0.928 v 4.032 q -2.656,-0.16 -4.256,1.248 -1.568,1.376 -1.568,3.744 V 0 h -4.16 v -17.12 h 4.16 z" transform="translate(0 351.47818181818184) translate(688.4911363636364 58.77090909090907) scale(0.90909090909091) translate(-707.0295 17.28)"></path>
      <path id="path1336354" style="font-style: normal; font-weight: 500; font-size: 32px; line-height: 1; font-family: Montserrat; font-variant-ligatures: none; text-align: center; text-anchor: middle; fill: rgb(54, 74, 81);" d="m 730.0485,-12.48 q -1.248,-0.736 -2.592,-1.152 -1.312,-0.416 -2.432,-0.416 -1.056,0 -1.696,0.384 -0.608,0.352 -0.608,1.12 0,0.8 0.768,1.248 0.8,0.416 2.496,0.896 1.792,0.544 2.944,1.088 1.152,0.512 1.984,1.568 0.864,1.024 0.864,2.72 0,2.496 -1.92,3.84 -1.92,1.344 -4.832,1.344 -1.984,0 -3.872,-0.608 -1.888,-0.64 -3.2,-1.792 l 1.44,-2.912 q 1.152,0.992 2.752,1.568 1.6,0.544 3.04,0.544 1.152,0 1.824,-0.384 0.704,-0.416 0.704,-1.216 0,-0.896 -0.8,-1.344 -0.8,-0.448 -2.592,-0.992 -1.728,-0.512 -2.816,-0.992 -1.088,-0.512 -1.888,-1.504 -0.8,-1.024 -0.8,-2.656 0,-2.528 1.824,-3.84 1.856,-1.344 4.64,-1.344 1.696,0 3.328,0.48 1.664,0.48 2.944,1.344 z" transform="translate(0 351.47818181818184) translate(698.4211363636365 58.74181818181816) scale(0.90909090909091) translate(-717.9525 17.312)"></path>
    </g>
  </g>
</svg>