<?xml version="1.0" encoding="UTF-8"?>
<svg width="117px" height="16px" viewBox="0 0 117 16" version="1.1" xmlns="http://www.w3.org/2000/svg" xmlns:xlink="http://www.w3.org/1999/xlink">
    <!-- Generator: Sketch 43.1 (39012) - http://www.bohemiancoding.com/sketch -->
    <title>Group 24 Copy 2</title>
    <desc>Created with Sketch.</desc>
    <defs></defs>
    <g id="Page-1" stroke="none" stroke-width="1" fill="none" fill-rule="evenodd">
        <g id="场景-01-02" transform="translate(-1337.000000, -3918.000000)" fill="#00B67A">
            <g id="Group-28" transform="translate(-101.000000, 3427.000000)">
                <g id="Group-24-Copy-2" transform="translate(1438.000000, 491.000000)">
                    <path d="M13.7755134,16 L8.81358074,13.2136396 C8.62762473,13.1084774 8.39918585,13.1084774 8.21322983,13.2136396 L3.25129715,16 L4.40136462,10.473747 C4.4442233,10.2677628 4.37415166,10.0547026 4.21691904,9.9129208 L0,6.11206919 L5.6743978,5.48335727 C5.88521839,5.45932025 6.06781042,5.32778489 6.15540016,5.13685354 L8.51340379,0 L10.8714074,5.13685354 C10.9589977,5.32778573 11.1415911,5.45932124 11.3524128,5.48335727 L17.0268106,6.11206919 L12.8098885,9.9129208 C12.6526559,10.0547026 12.5825843,10.2677628 12.625443,10.473747 L13.7755134,16 L13.7755134,16 Z" id="Path"></path>
                    <path d="M38.5755134,16 L33.6135807,13.2136396 C33.4276247,13.1084774 33.1991858,13.1084774 33.0132298,13.2136396 L28.0512972,16 L29.2013646,10.473747 C29.2442233,10.2677628 29.1741517,10.0547026 29.016919,9.9129208 L24.8,6.11206919 L30.4743978,5.48335727 C30.6852184,5.45932025 30.8678104,5.32778489 30.9554002,5.13685354 L33.3134038,0 L35.6714074,5.13685354 C35.7589977,5.32778573 35.9415911,5.45932124 36.1524128,5.48335727 L41.8268106,6.11206919 L37.6098885,9.9129208 C37.4526559,10.0547026 37.3825843,10.2677628 37.425443,10.473747 L38.5755134,16 L38.5755134,16 Z" id="Path-Copy"></path>
                    <path d="M63.3755134,16 L58.4135807,13.2136396 C58.2276247,13.1084774 57.9991858,13.1084774 57.8132298,13.2136396 L52.8512972,16 L54.0013646,10.473747 C54.0442233,10.2677628 53.9741517,10.0547026 53.816919,9.9129208 L49.6,6.11206919 L55.2743978,5.48335727 C55.4852184,5.45932025 55.6678104,5.32778489 55.7554002,5.13685354 L58.1134038,0 L60.4714074,5.13685354 C60.5589977,5.32778573 60.7415911,5.45932124 60.9524128,5.48335727 L66.6268106,6.11206919 L62.4098885,9.9129208 C62.2526559,10.0547026 62.1825843,10.2677628 62.225443,10.473747 L63.3755134,16 L63.3755134,16 Z" id="Path-Copy-2"></path>
                    <path d="M88.1755134,16 L83.2135807,13.2136396 C83.0276247,13.1084774 82.7991858,13.1084774 82.6132298,13.2136396 L77.6512972,16 L78.8013646,10.473747 C78.8442233,10.2677628 78.7741517,10.0547026 78.616919,9.9129208 L74.4,6.11206919 L80.0743978,5.48335727 C80.2852184,5.45932025 80.4678104,5.32778489 80.5554002,5.13685354 L82.9134038,0 L85.2714074,5.13685354 C85.3589977,5.32778573 85.5415911,5.45932124 85.7524128,5.48335727 L91.4268106,6.11206919 L87.2098885,9.9129208 C87.0526559,10.0547026 86.9825843,10.2677628 87.025443,10.473747 L88.1755134,16 L88.1755134,16 Z" id="Path-Copy-3"></path>
                    <path d="M112.975513,16 L108.013581,13.2136396 C107.827625,13.1084774 107.599186,13.1084774 107.41323,13.2136396 L102.451297,16 L103.601365,10.473747 C103.644223,10.2677628 103.574152,10.0547026 103.416919,9.9129208 L99.2,6.11206919 L104.874398,5.48335727 C105.085218,5.45932025 105.26781,5.32778489 105.3554,5.13685354 L107.713404,0 L110.071407,5.13685354 C110.158998,5.32778573 110.341591,5.45932124 110.552413,5.48335727 L116.226811,6.11206919 L112.009889,9.9129208 C111.852656,10.0547026 111.782584,10.2677628 111.825443,10.473747 L112.975513,16 L112.975513,16 Z" id="Path-Copy-4"></path>
                </g>
            </g>
        </g>
    </g>
</svg>